<svg xmlns="http://www.w3.org/2000/svg" xmlns:xlink="http://www.w3.org/1999/xlink" version="1.1" class="marks" width="870" height="436" viewBox="0 0 870 436"><rect width="870" height="436" fill="white"/><g fill="none" stroke-miterlimit="10" transform="translate(111,79)"><g class="mark-group role-frame root" role="graphics-object" aria-roledescription="group mark container"><g transform="translate(0,0)"><path class="background" aria-hidden="true" d="M0.5,0.5h640v320h-640Z" stroke="#ddd"/><g><g class="mark-group role-axis" aria-hidden="true"><g transform="translate(0.5,320.5)"><path class="background" aria-hidden="true" d="M0,0h0v0h0Z" pointer-events="none"/><g><g class="mark-rule role-axis-grid" pointer-events="none"><line transform="translate(0,-320)" x2="0" y2="320" stroke="#ddd" stroke-width="1" opacity="1"/><line transform="translate(49,-320)" x2="0" y2="320" stroke="#ddd" stroke-width="1" opacity="1"/><line transform="translate(98,-320)" x2="0" y2="320" stroke="#ddd" stroke-width="1" opacity="1"/><line transform="translate(148,-320)" x2="0" y2="320" stroke="#ddd" stroke-width="1" opacity="1"/><line transform="translate(197,-320)" x2="0" y2="320" stroke="#ddd" stroke-width="1" opacity="1"/><line transform="translate(246,-320)" x2="0" y2="320" stroke="#ddd" stroke-width="1" opacity="1"/><line transform="translate(295,-320)" x2="0" y2="320" stroke="#ddd" stroke-width="1" opacity="1"/><line transform="translate(345,-320)" x2="0" y2="320" stroke="#ddd" stroke-width="1" opacity="1"/><line transform="translate(394,-320)" x2="0" y2="320" stroke="#ddd" stroke-width="1" opacity="1"/><line transform="translate(443,-320)" x2="0" y2="320" stroke="#ddd" stroke-width="1" opacity="1"/><line transform="translate(492,-320)" x2="0" y2="320" stroke="#ddd" stroke-width="1" opacity="1"/><line transform="translate(542,-320)" x2="0" y2="320" stroke="#ddd" stroke-width="1" opacity="1"/><line transform="translate(591,-320)" x2="0" y2="320" stroke="#ddd" stroke-width="1" opacity="1"/><line transform="translate(640,-320)" x2="0" y2="320" stroke="#ddd" stroke-width="1" opacity="1"/></g></g><path class="foreground" aria-hidden="true" d="" pointer-events="none" display="none"/></g></g><g class="mark-group role-axis" aria-hidden="true"><g transform="translate(0.5,0.5)"><path class="background" aria-hidden="true" d="M0,0h0v0h0Z" pointer-events="none"/><g><g class="mark-rule role-axis-grid" pointer-events="none"><line transform="translate(0,320)" x2="640" y2="0" stroke="#ddd" stroke-width="1" opacity="1"/><line transform="translate(0,248)" x2="640" y2="0" stroke="#ddd" stroke-width="1" opacity="1"/><line transform="translate(0,196)" x2="640" y2="0" stroke="#ddd" stroke-width="1" opacity="1"/><line transform="translate(0,156)" x2="640" y2="0" stroke="#ddd" stroke-width="1" opacity="1"/><line transform="translate(0,124)" x2="640" y2="0" stroke="#ddd" stroke-width="1" opacity="1"/><line transform="translate(0,96)" x2="640" y2="0" stroke="#ddd" stroke-width="1" opacity="1"/><line transform="translate(0,72)" x2="640" y2="0" stroke="#ddd" stroke-width="1" opacity="1"/><line transform="translate(0,51)" x2="640" y2="0" stroke="#ddd" stroke-width="1" opacity="1"/><line transform="translate(0,33)" x2="640" y2="0" stroke="#ddd" stroke-width="1" opacity="1"/><line transform="translate(0,16)" x2="640" y2="0" stroke="#ddd" stroke-width="1" opacity="1"/><line transform="translate(0,0)" x2="640" y2="0" stroke="#ddd" stroke-width="1" opacity="1"/></g></g><path class="foreground" aria-hidden="true" d="" pointer-events="none" display="none"/></g></g><g class="mark-group role-axis" role="graphics-symbol" aria-roledescription="axis" aria-label="X-axis titled 'scenario time (s)' for a linear scale with values from −20 to 240"><g transform="translate(0.5,320.5)"><path class="background" aria-hidden="true" d="M0,0h0v0h0Z" pointer-events="none"/><g><g class="mark-rule role-axis-tick" pointer-events="none"><line transform="translate(0,0)" x2="0" y2="5" stroke="#888" stroke-width="1" opacity="1"/><line transform="translate(49,0)" x2="0" y2="5" stroke="#888" stroke-width="1" opacity="1"/><line transform="translate(98,0)" x2="0" y2="5" stroke="#888" stroke-width="1" opacity="1"/><line transform="translate(148,0)" x2="0" y2="5" stroke="#888" stroke-width="1" opacity="1"/><line transform="translate(197,0)" x2="0" y2="5" stroke="#888" stroke-width="1" opacity="1"/><line transform="translate(246,0)" x2="0" y2="5" stroke="#888" stroke-width="1" opacity="1"/><line transform="translate(295,0)" x2="0" y2="5" stroke="#888" stroke-width="1" opacity="1"/><line transform="translate(345,0)" x2="0" y2="5" stroke="#888" stroke-width="1" opacity="1"/><line transform="translate(394,0)" x2="0" y2="5" stroke="#888" stroke-width="1" opacity="1"/><line transform="translate(443,0)" x2="0" y2="5" stroke="#888" stroke-width="1" opacity="1"/><line transform="translate(492,0)" x2="0" y2="5" stroke="#888" stroke-width="1" opacity="1"/><line transform="translate(542,0)" x2="0" y2="5" stroke="#888" stroke-width="1" opacity="1"/><line transform="translate(591,0)" x2="0" y2="5" stroke="#888" stroke-width="1" opacity="1"/><line transform="translate(640,0)" x2="0" y2="5" stroke="#888" stroke-width="1" opacity="1"/></g><g class="mark-text role-axis-label" pointer-events="none"><text text-anchor="start" transform="translate(0,15)" font-family="sans-serif" font-size="10px" fill="#000" opacity="1">−20</text><text text-anchor="middle" transform="translate(49.23076923076923,15)" font-family="sans-serif" font-size="10px" fill="#000" opacity="1">0</text><text text-anchor="middle" transform="translate(98.46153846153847,15)" font-family="sans-serif" font-size="10px" fill="#000" opacity="1">20</text><text text-anchor="middle" transform="translate(147.6923076923077,15)" font-family="sans-serif" font-size="10px" fill="#000" opacity="1">40</text><text text-anchor="middle" transform="translate(196.92307692307693,15)" font-family="sans-serif" font-size="10px" fill="#000" opacity="1">60</text><text text-anchor="middle" transform="translate(246.15384615384616,15)" font-family="sans-serif" font-size="10px" fill="#000" opacity="1">80</text><text text-anchor="middle" transform="translate(295.3846153846154,15)" font-family="sans-serif" font-size="10px" fill="#000" opacity="1">100</text><text text-anchor="middle" transform="translate(344.6153846153846,15)" font-family="sans-serif" font-size="10px" fill="#000" opacity="1">120</text><text text-anchor="middle" transform="translate(393.84615384615387,15)" font-family="sans-serif" font-size="10px" fill="#000" opacity="1">140</text><text text-anchor="middle" transform="translate(443.0769230769231,15)" font-family="sans-serif" font-size="10px" fill="#000" opacity="1">160</text><text text-anchor="middle" transform="translate(492.3076923076923,15)" font-family="sans-serif" font-size="10px" fill="#000" opacity="1">180</text><text text-anchor="middle" transform="translate(541.5384615384615,15)" font-family="sans-serif" font-size="10px" fill="#000" opacity="1">200</text><text text-anchor="middle" transform="translate(590.7692307692308,15)" font-family="sans-serif" font-size="10px" fill="#000" opacity="1">220</text><text text-anchor="end" transform="translate(640,15)" font-family="sans-serif" font-size="10px" fill="#000" opacity="1">240</text></g><g class="mark-rule role-axis-domain" pointer-events="none"><line transform="translate(0,0)" x2="640" y2="0" stroke="#888" stroke-width="1" opacity="1"/></g><g class="mark-text role-axis-title" pointer-events="none"><text text-anchor="middle" transform="translate(320,30)" font-family="sans-serif" font-size="11px" font-weight="bold" fill="#000" opacity="1">scenario time (s)</text></g></g><path class="foreground" aria-hidden="true" d="" pointer-events="none" display="none"/></g></g><g class="mark-group role-axis" role="graphics-symbol" aria-roledescription="axis" aria-label="Y-axis titled 'pairwise |drift| (ms)' for a symlog scale with values from 0 to 500"><g transform="translate(0.5,0.5)"><path class="background" aria-hidden="true" d="M0,0h0v0h0Z" pointer-events="none"/><g><g class="mark-rule role-axis-tick" pointer-events="none"><line transform="translate(0,320)" x2="-5" y2="0" stroke="#888" stroke-width="1" opacity="1"/><line transform="translate(0,248)" x2="-5" y2="0" stroke="#888" stroke-width="1" opacity="1"/><line transform="translate(0,196)" x2="-5" y2="0" stroke="#888" stroke-width="1" opacity="1"/><line transform="translate(0,156)" x2="-5" y2="0" stroke="#888" stroke-width="1" opacity="1"/><line transform="translate(0,124)" x2="-5" y2="0" stroke="#888" stroke-width="1" opacity="1"/><line transform="translate(0,96)" x2="-5" y2="0" stroke="#888" stroke-width="1" opacity="1"/><line transform="translate(0,72)" x2="-5" y2="0" stroke="#888" stroke-width="1" opacity="1"/><line transform="translate(0,51)" x2="-5" y2="0" stroke="#888" stroke-width="1" opacity="1"/><line transform="translate(0,33)" x2="-5" y2="0" stroke="#888" stroke-width="1" opacity="1"/><line transform="translate(0,16)" x2="-5" y2="0" stroke="#888" stroke-width="1" opacity="1"/><line transform="translate(0,0)" x2="-5" y2="0" stroke="#888" stroke-width="1" opacity="1"/></g><g class="mark-text role-axis-label" pointer-events="none"><text text-anchor="end" transform="translate(-7,323)" font-family="sans-serif" font-size="10px" fill="#000" opacity="1">0</text><text text-anchor="end" transform="translate(-7,250.5857966301066)" font-family="sans-serif" font-size="10px" fill="#000" opacity="1">50</text><text text-anchor="end" transform="translate(-7,199.20710168494668)" font-family="sans-serif" font-size="10px" fill="#000" opacity="1">100</text><text text-anchor="end" transform="translate(-7,159.3546897697966)" font-family="sans-serif" font-size="10px" fill="#000" opacity="1">150</text><text text-anchor="end" transform="translate(-7,126.79289831505332)" font-family="sans-serif" font-size="10px" fill="#000" opacity="1">200</text><text text-anchor="end" transform="translate(-7,99.2622959145119)" font-family="sans-serif" font-size="10px" fill="#000" opacity="1">250</text><text text-anchor="end" transform="translate(-7,75.41420336989339)" font-family="sans-serif" font-size="10px" fill="#000" opacity="1">300</text><text text-anchor="end" transform="translate(-7,54.37869494515989)" font-family="sans-serif" font-size="10px" fill="#000" opacity="1">350</text><text text-anchor="end" transform="translate(-7,35.56179145474331)" font-family="sans-serif" font-size="10px" fill="#000" opacity="1">400</text><text text-anchor="end" transform="translate(-7,18.539831721206063)" font-family="sans-serif" font-size="10px" fill="#000" opacity="1">450</text><text text-anchor="end" transform="translate(-7,3)" font-family="sans-serif" font-size="10px" fill="#000" opacity="1">500</text></g><g class="mark-rule role-axis-domain" pointer-events="none"><line transform="translate(0,320)" x2="0" y2="-320" stroke="#888" stroke-width="1" opacity="1"/></g><g class="mark-text role-axis-title" pointer-events="none"><text text-anchor="middle" transform="translate(-35,160) rotate(-90) translate(0,-2)" font-family="sans-serif" font-size="11px" font-weight="bold" fill="#000" opacity="1">pairwise |drift| (ms)</text></g></g><path class="foreground" aria-hidden="true" d="" pointer-events="none" display="none"/></g></g><g class="mark-group role-scope layer_0_pathgroup" role="graphics-object" aria-roledescription="group mark container"><g transform="translate(0,0)"><path class="background" aria-hidden="true" d="M0,0h640v320h-640Z"/><g><g class="mark-line role-mark layer_0_marks" role="graphics-object" aria-roledescription="line mark container"><path aria-label="scenario time (s): 29.5; pairwise |drift| (ms): 1.94497129687; client pair: 0-2" role="graphics-symbol" aria-roledescription="line mark" d="M121.846,316.56L122.462,295.177L123.077,319.859L123.692,319.686L124.308,316.974L124.923,319.559L125.538,319.472L126.154,319.273L126.769,319.751L127.385,307.731L129.231,275.15L129.846,275.666L130.462,273.863L131.077,275.376L131.692,276.481L132.308,277.141L132.923,275.508L133.538,276.235L134.154,275.431L134.769,275.805L135.385,275.388L136,275.957L136.615,273.748L137.231,272.459L137.846,275.415L138.462,275.61L139.077,275.745L139.692,275.165L140.308,275.392L140.923,275.938L141.538,275.076L142.154,276.149L142.769,276.131L143.385,276.283L144,275.559L144.615,275.654L145.231,276.429L145.846,275.743L146.462,275.547L147.077,275.087L147.692,275.177L148.308,275.17L148.923,276.589L149.538,276.253L150.154,276.445L150.769,275.291L151.385,275.183L152,275.489L152.615,275.26L153.231,275.494L153.846,275.739L154.462,276.352L155.077,276.495L155.692,276.09L156.308,274.538L156.923,275.037L157.538,275.627L158.154,276.99L158.769,274.337L159.385,277.531L160,276.096L160.615,275.528L161.231,275.349L161.846,276.342L162.462,276.751L163.077,276.157L163.692,274.965L164.308,275.025L164.923,275.516L165.538,275.978L166.154,276.334L166.769,275.644L167.385,275.959L168,276.193L168.615,275.879L169.231,275.182L169.846,274.725L170.462,275.208L171.077,274.627L171.692,275.21L172.308,275.39L172.923,275.805L173.538,276.288L174.154,275.755L174.769,276.229L175.385,275.459L176,275.454L176.615,275.525L177.231,275.099L177.846,277.278L178.462,276.236L179.077,276.08L179.692,275.733L180.308,276.24L180.923,274.471L181.538,275.923L182.154,275.759L182.769,275.547L183.385,276.316L184,275.024L184.615,275.802L185.231,276.123L185.846,276.459L186.462,276.096L187.077,276.816L187.692,274.726L188.308,276.021L188.923,276.097L189.538,276.217L190.154,276.554L190.769,276.057L191.385,276.287L192,276.452L192.615,275.497L193.231,275.835L193.846,275.919L194.462,275.917L195.077,276.27L195.692,276.608L196.308,276.277L196.923,275.643L197.538,274.801L198.154,276.008L198.769,276.016L199.385,275.552L200,274.933L200.615,276.248L201.231,275.292L201.846,274.033L202.462,275.336L203.077,274.689L203.692,275.131L204.308,275.362L204.923,275.025L205.538,274.502L206.154,275.842L206.769,275.469L207.385,275.962L208,274.803L208.615,276.048L209.231,275.681L209.846,276.245L210.462,275.374L211.077,274.775L211.692,278.091L212.308,276.078L212.923,275.177L213.538,275.221L214.154,275.082L214.769,275.466L215.385,274.867L216,276.585L216.615,275.45L217.231,274.591L217.846,275.937L218.462,274.753L219.077,275.246L219.692,275.881L220.308,276.12L220.923,275.618L221.538,275.692L222.154,276.329L222.769,276.034L223.385,275.708L224,276.17L224.615,276.31L225.231,274.91L225.846,273.454L226.462,275.592L227.077,275.982L227.692,275.251L228.308,276.785L228.923,276.054L229.538,276.212L230.154,274.192L230.769,276.021L231.385,275.448L232,277.642L232.615,275.645L233.231,275.681L233.846,275.961L234.462,275.24L235.077,277.611L235.692,274.692L236.308,275.458L236.923,276.247L237.538,275.583L238.154,277.401L238.769,274.59L239.385,276.034L240,277.249L240.615,276.242L241.231,274.702L241.846,275.056L242.462,275.03L243.077,276.412L243.692,275.835L244.308,275.379L244.923,274.636L245.538,276.584L246.154,276.556L246.769,276.96L247.385,276.723L248,275.27L248.615,275.027L249.231,275.877L249.846,275.776L250.462,275.786L251.077,276.121L251.692,275.875L252.308,275.521L252.923,275.646L253.538,276.426L254.154,276.415L254.769,274.63L255.385,275.435L256,274.797L256.615,274.721L257.231,275.183L257.846,276.357L258.462,275.34L259.077,274.695L259.692,274.995L260.308,275.674L260.923,275.369L261.538,275.34L262.154,274.785L262.769,275.66L263.385,276.112L264,274.995L264.615,275.575L265.231,274.835L265.846,275.627L266.462,276.428L267.077,276.471L267.692,284.564L270.154,276.164L270.769,275.658L271.385,275.889L272,275.706L272.615,277.725L273.231,276.661L273.846,276.514L274.462,277.148L275.077,277.06L275.692,278.804L276.308,276.82L276.923,276.774L277.538,276.612L278.154,276.516L278.769,276.282L279.385,277.914L280,276.861L280.615,276.63L281.231,275.833L281.846,276.286L282.462,275.005L283.077,276.605L283.692,277.183L284.308,277.23L284.923,276.335L285.538,275.947L286.154,276.375L286.769,275.528L287.385,276.401L288,275.297L288.615,275.647L289.231,277.642L289.846,275.165L290.462,275.647L291.077,276.446L291.692,276.455L292.308,275.738L292.923,277.391L293.538,275.634L294.154,277.39L294.769,276.125L295.385,278.905L296,277.284L296.615,276.424L297.231,275.455L297.846,276.668L298.462,277.283L299.077,275.721L299.692,276.73L300.308,275.689L300.923,275.732L301.538,276.947L302.154,276.743L302.769,276.122L303.385,276.289L304,276.803L304.615,276.922L305.231,276.935L305.846,276.288L306.462,276.771L307.077,277.592L307.692,277.345L308.308,276.975L308.923,276.809L309.538,276.62L310.154,276.939L310.769,275.856L311.385,276.462L312,276.014L312.615,276.494L313.231,276.171L313.846,275.862L314.462,276.309L315.077,275.9L315.692,275.948L316.308,276.795L316.923,277.882L317.538,278.825L318.154,276.836L318.769,276.132L319.385,277.039L320,277.156L320.615,275.97L321.231,277.437L321.846,275.769L322.462,274.937L323.077,276.271L323.692,276.411L324.308,277.439L324.923,275.373L325.538,276.043L326.154,276.062L326.769,277.051L327.385,276.168L328,275.864L328.615,276.032L329.231,275.304L329.846,276.141L330.462,275.939L331.077,276.044L331.692,275.344L332.308,277.414L332.923,275.848L333.538,277.05L334.154,277.931L334.769,277.026L335.385,276.388L336,276.521L336.615,276.564L337.231,276.832L337.846,277.353L338.462,275.894L339.077,277.119L339.692,275.778L340.308,276.498L340.923,275.827L341.538,277.532L342.154,276.651L342.769,276.01L343.385,277.751L344,278.581L344.615,277.34L345.231,276.539L345.846,276.16L346.462,276.052L347.077,277.061L347.692,275.675L348.308,276.935L348.923,277.241L349.538,276.813L350.154,276.735L350.769,277.288L351.385,276.344L352,275.751L352.615,276.936L353.231,276.074L353.846,276.303L354.462,276.685L355.077,275.23L355.692,275.982L356.308,277.056L356.923,276.548L357.538,276.53L358.154,276.898L358.769,277.099L359.385,276.501L360,275.948L360.615,276.413L361.231,276.647L361.846,275.678L362.462,276.709L363.077,277.216L363.692,277.134L364.308,276.202L364.923,276.241L365.538,275.871L366.154,274.492L366.769,276.041L367.385,277.205L368,277.147L368.615,276.438L369.231,278.644L369.846,276.61L370.462,276.16L371.077,276.27L371.692,277.113L372.308,276.263L372.923,276.308L373.538,276.695L374.154,276.488L374.769,275.946L375.385,276.498L376,275.461L376.615,276.006L377.231,274.584L377.846,275.933L378.462,277.194L379.077,277.813L379.692,276.381L380.308,275.981L380.923,275.921L381.538,276.618L382.154,276.079L382.769,275.231L383.385,276.187L384,276.321L384.615,277.317L385.231,276.968L385.846,276.957L386.462,276.25L387.077,277.458L387.692,275.916L388.308,275.182L388.923,276.318L389.538,276.928L390.154,276.484L390.769,277.764L391.385,276.436L392,277.228L392.615,277.601L393.231,276.781L393.846,277.164L394.462,275.711L395.077,277.051L395.692,276.466L396.308,276.662L396.923,275.703L397.538,275.794L398.154,276.192L398.769,276.162L399.385,276.302L400,276.669L400.615,276.344L401.231,275.841L401.846,275.893L402.462,276.524L403.077,275.733L403.692,276.497L404.308,275.498L404.923,276.059L405.538,277.494L406.154,276.71L406.769,276.968L407.385,275.819L408,276.792L408.615,277.1L409.231,276.525L409.846,276.535L410.462,276.778L411.077,275.665L411.692,277.567L412.308,275.245L412.923,276.876L413.538,277.216L414.154,276.604L414.769,276.572L415.385,276.821L430.154,276.835L430.769,276.965L431.385,277.436L432,275.986L432.615,275.046L433.231,276.004L433.846,275.175L434.462,275.415L435.077,275.931L435.692,276.26L436.308,276.143L436.923,276.413L437.538,277.108L438.154,276.648L438.769,277.491L439.385,276.418L440,276.7L440.615,276.507L441.231,276.089L441.846,275.775L442.462,275.516L443.077,275.99L443.692,276.053L444.308,276.239L444.923,275.894L445.538,276.164L446.154,276.325L446.769,276.094L447.385,277.185L448,277.049L448.615,277.236L449.231,276.077L449.846,276.226L450.462,275.791L451.077,275.938L451.692,277.489L452.308,275.111L452.923,277.269L453.538,276.678L454.154,277.295L454.769,277.288L455.385,276.198L456,276.573L456.615,277.056L457.231,276.794L457.846,276.103L458.462,275.597L459.077,276.233L459.692,277.279L460.308,276.349L460.923,276.585L461.538,276.203L462.154,274.741L462.769,276.348L463.385,276.504L464,275.475L464.615,275.263L465.231,275.652L465.846,276.19L466.462,276.836L467.077,275.706L467.692,277.076L468.308,276.357L468.923,276.24L469.538,276.115L470.154,277.343L470.769,275.887L471.385,275.824L472,275.974L472.615,277.298L473.231,275.792L473.846,276.01L474.462,275.506L475.077,275.357L475.692,275.971L476.308,276.209L476.923,276.401L477.538,276.077L478.154,275.891L478.769,276.528L479.385,276.41L480,276.26L480.615,276.685L481.231,275.672L481.846,274.574L482.462,276.395L483.077,275.958L483.692,276.945L484.308,276.199L484.923,275.565L485.538,276.491L486.154,276.763L486.769,277.133L487.385,275.964L488,276.105L488.615,277.166L489.231,276.718L489.846,276.938L490.462,276.222L491.077,275.616L491.692,276.93L492.308,275.922L492.923,276.378L493.538,277.471L494.154,276.92L494.769,276.507L495.385,276.439L496,275.98L496.615,277.103L497.231,276.037L497.846,276.036L498.462,275.967L499.077,276.041L499.692,276.913L500.308,277.092L500.923,276.454L501.538,277.642L502.154,276.717L502.769,275.376L503.385,276.158L504,276.473L504.615,276.641L505.231,276.247L505.846,276.069L506.462,276.163L507.077,276.092L507.692,276L508.308,277.176L508.923,277.081L509.538,276.004L510.154,276.203L510.769,276.22L511.385,277.302L512,276.198L512.615,276.008L513.231,275.992L513.846,276.315L514.462,275.407L515.077,276.801L515.692,276.238L516.308,276.309L516.923,275.47L517.538,274.799L518.154,276.07L518.769,276.828L519.385,276.282L520,276.06L520.615,277.367L521.231,277.291L521.846,277.772L522.462,276.346L523.077,276.302L523.692,276.112L524.308,276.012L524.923,275.813L525.538,275.001L526.154,275.762L526.769,276.394L527.385,275.399L528,276.461L528.615,276.467L529.231,275.665L529.846,276.162L530.462,275.419L531.077,275.173L531.692,276.044L532.308,276.941L532.923,276.439L533.538,276.87L534.154,276.628L534.769,277.406L535.385,275.875L536,277.018L536.615,276.417L537.231,276.376L537.846,275.521L538.462,276.308L539.077,276.03L539.692,276.545L540.308,276.283L540.923,276.614L541.538,277.171L542.154,276.422L542.769,275.97L543.385,276.342L544,277.079L544.615,274.714L545.231,275.807L545.846,276.162L546.462,275.339L547.077,276.094L547.692,275.764L548.308,275.963L548.923,277.035L549.538,276.603L550.154,276.338L550.769,276.028L551.385,275.124L552,276.331L552.615,276.567L553.231,277.063L553.846,276.482L554.462,275.94L555.077,277.369L555.692,276.95L556.308,277.607L556.923,276.275L557.538,276.22L558.154,276.43L558.769,275.836L559.385,275.841L560,276.478L560.615,275.309L561.231,275.939L561.846,276.189L562.462,277.501L563.077,275.464L563.692,275.277L564.308,277.04L564.923,276.648L565.538,277.148L566.154,277.355L566.769,276.966L567.385,276.335L568,275.655L568.615,276.544L569.231,276.765L569.846,276.809L570.462,276.676L571.077,276.583L571.692,275.358L572.308,276.188L572.923,277.375L573.538,277.344L574.154,276.363L574.769,276.244L575.385,275.509L576,276.468L576.615,276.944L577.231,276.954L577.846,276.89L578.462,277.061L579.077,277.051L579.692,276.915L580.308,276.441L580.923,276.199L581.538,276.097L582.154,276.487L582.769,275.78L583.385,275.651L584,276.392L584.615,276.266L585.231,275.739L585.846,274.854L586.462,276.373L587.077,276.052L587.692,276.452L588.308,276.97L588.923,276.284L589.538,276.557L590.154,276.253L590.769,275.802L591.385,276.245L592,275.129L592.615,275.822L593.231,274.734L593.846,275.894L594.462,276.166L595.077,276.217L595.692,276.205L596.308,276.255L596.923,276.723L597.538,276.199L598.154,276.812L598.769,275.614L599.385,276.377L600,276.06L600.615,277.164L601.231,276.564L601.846,275.705L602.462,276.293L603.077,275.514L603.692,275.554L604.308,275.566L604.923,275.645L605.538,275.281L606.154,276.323L606.769,277.664L607.385,275.818L608,276.538L608.615,276.524L609.231,275.634L609.846,276.761L610.462,275.987L611.077,276.114L611.692,276.376L612.308,276.547L612.923,275.458L613.538,275.262L614.154,274.533L614.769,275.65L615.385,275.819L616,275.526L616.615,275.657L617.231,276.555L617.846,276.056L618.462,276.545L619.077,275.977L619.692,277.246L620.308,275.86L620.923,276.14L621.538,276.211L622.154,276.456L622.769,277.173L623.385,276.208L624,276.323L624.615,276.903L625.231,276.304L625.846,275.509L626.462,275.707L627.077,276.039L627.692,275.922L628.308,275.186L628.923,276.526L629.538,278.313L630.154,276.302L630.769,275.307L631.385,276.888L632,275.82L632.615,276.479L633.231,278.659L633.846,278.173L634.462,277.226L635.077,276.264L635.692,276.011L636.308,276.827" stroke="#f58518" stroke-width="2" opacity="0.8"/></g></g><path class="foreground" aria-hidden="true" d="" display="none"/></g><g transform="translate(0,0)"><path class="background" aria-hidden="true" d="M0,0h640v320h-640Z"/><g><g class="mark-line role-mark layer_0_marks" role="graphics-object" aria-roledescription="line mark container"><path aria-label="scenario time (s): 29.75; pairwise |drift| (ms): 19.9880904293; client pair: 0-1" role="graphics-symbol" aria-roledescription="line mark" d="M122.462,287.456L123.077,317.018L123.692,319.214L124.308,317.282L124.923,318.866L125.538,319.414L126.154,318.892L126.769,319.85L127.385,319.173L128,299.244L129.846,307.029L130.462,307.101L131.077,306.944L131.692,307.965L132.308,307.516L132.923,305.892L133.538,306.469L134.154,307.297L134.769,306.391L135.385,305.788L136,306.687L136.615,304.934L137.231,305.842L137.846,307.277L138.462,307.89L139.077,306.488L139.692,305.992L140.308,308.229L140.923,307.871L141.538,307.106L142.154,307.206L142.769,307.149L143.385,305.62L144,308.07L144.615,306.568L145.231,307.711L145.846,307.124L146.462,307.754L147.077,308.439L147.692,307.978L148.308,307.174L148.923,308.045L149.538,307.693L150.154,307.757L150.769,307.016L151.385,307.318L152,308.287L152.615,307.63L153.231,306.942L153.846,306.929L154.462,307.676L155.077,307.352L155.692,308.608L156.308,306.265L156.923,306.576L157.538,306.624L158.154,308.384L158.769,304.4L159.385,308.939L160,307.593L160.615,306.479L161.231,306.705L161.846,307.456L162.462,309.041L163.077,307.642L163.692,306.412L164.308,307.778L164.923,306.829L165.538,307.522L166.154,308.132L166.769,307.705L167.385,308.352L168,307.886L168.615,307.417L169.231,305.662L169.846,305.923L170.462,307.617L171.077,306.923L171.692,307.326L172.308,307.194L172.923,308.895L173.538,307.897L174.154,306.566L174.769,307.115L175.385,307.194L176,306.95L176.615,307.447L177.231,306.735L177.846,309.151L178.462,307.67L179.077,307.51L179.692,307.587L180.308,307.869L180.923,306.861L181.538,306.648L182.154,307.411L182.769,307.548L183.385,307.048L184,307.146L184.615,307.636L185.231,307.299L185.846,307.66L186.462,307.666L187.077,307.458L187.692,305.849L188.308,308.929L188.923,307.514L189.538,307.678L190.154,307.539L190.769,307.316L191.385,308.143L192,307.519L192.615,306.774L193.231,308.211L193.846,306.372L194.462,305.804L195.077,307.081L195.692,308.35L196.308,306.984L196.923,307.533L197.538,306.348L198.154,306.418L198.769,307.249L199.385,307.183L200,307.512L200.615,307.255L201.231,307.669L201.846,307.139L202.462,307.088L203.077,306.867L203.692,307.155L204.308,307.001L204.923,305.595L205.538,305.784L206.154,307.281L206.769,307.006L207.385,308.201L208,306.355L208.615,306.381L209.231,306.56L209.846,308.267L210.462,307.631L211.077,305.731L211.692,308.864L212.308,306.253L212.923,307.396L213.538,306.762L214.154,307.246L214.769,307.195L215.385,307.586L216,307.515L216.615,306.779L217.231,305.871L217.846,307.351L218.462,306.111L219.077,306.973L219.692,308.237L220.308,308.403L220.923,307.979L221.538,307.379L222.154,308.189L222.769,307.777L223.385,306.401L224,306.801L224.615,306.531L225.231,306.409L225.846,307.251L226.462,307.636L227.077,306.949L227.692,306.943L228.308,308.632L228.923,307.714L229.538,307.171L230.154,306.108L230.769,306.762L231.385,306.421L232,308.895L232.615,306.68L233.231,307.429L233.846,307.571L234.462,307.279L235.077,309.133L235.692,307.304L236.308,307.095L236.923,308.27L237.538,307.5L238.154,308.847L238.769,305.508L239.385,307.415L240,308.319L240.615,307.129L241.231,306.22L241.846,307.011L242.462,307.524L243.077,307.314L243.692,307.977L244.308,308.163L244.923,306.784L245.538,308.193L246.154,307.319L246.769,308.094L247.385,307.352L248,307.348L248.615,308.422L249.231,306.481L249.846,305.988L250.462,307.138L251.077,307.738L251.692,307.995L252.308,308.226L252.923,307.719L253.538,307.741L254.154,307.467L254.769,307.136L255.385,306.141L256,307.199L256.615,304.898L257.231,305.794L257.846,309.013L258.462,307.455L259.077,305.653L259.692,306.682L260.308,307.582L260.923,308.672L261.538,308.978L262.154,307.489L262.769,307.762L263.385,308.206L264,306.638L264.615,307.293L265.231,306.949L265.846,307.302L266.462,307.855L267.077,307.191L267.692,306.18L268.308,313.926L270.154,287.911L270.769,219.96L271.385,219.155L272,219.69L272.615,218.785L273.231,220.115L273.846,219.564L274.462,218.412L275.077,219.35L275.692,189.88L277.538,223.974L278.154,225.252L278.769,223.925L279.385,225.299L280,225.651L280.615,224.757L281.231,224.257L281.846,224.461L282.462,223.678L283.077,224.186L283.692,224.941L284.308,224.712L284.923,223.936L285.538,224.413L286.154,224.095L286.769,223.952L287.385,225.282L288,223.776L288.615,223.595L289.231,224.952L289.846,223.394L290.462,223.815L291.077,225.174L291.692,224.291L292.308,224.038L292.923,225.628L293.538,224.602L294.154,225.384L294.769,224.029L295.385,225.503L296,225.731L296.615,224.614L297.231,224.43L297.846,224.414L298.462,224.983L299.077,223.859L299.692,224.681L300.308,225.395L300.923,224.081L301.538,223.861L302.154,224.143L302.769,223.798L303.385,223.202L304,223.89L304.615,225.194L305.231,224.196L305.846,223.72L306.462,224.132L307.077,224.81L307.692,224.893L308.308,224.36L308.923,224.471L309.538,224.586L310.154,225.617L310.769,224.786L311.385,224.413L312,223.727L312.615,224.469L313.231,224.791L313.846,224.422L314.462,224.387L315.077,224.299L315.692,223.944L316.308,224.245L316.923,224.55L317.538,226.038L318.154,224.654L318.769,225.258L319.385,225.171L320,225.238L320.615,224.153L321.231,224.997L321.846,223.765L322.462,223.278L323.077,224.856L323.692,224.721L324.308,225.15L324.923,224.493L325.538,224.506L326.154,224.234L326.769,224.581L327.385,223.681L328,223.897L328.615,224.08L329.231,223.835L329.846,225.007L330.462,224.968L331.077,225.137L331.692,224.406L332.308,225.284L332.923,224.489L333.538,224.638L334.154,223.682L334.769,223.763L335.385,225.066L336,224.953L336.615,224.573L337.231,224.51L337.846,225.089L338.462,224.494L339.077,225.041L339.692,223.389L340.308,224.645L340.923,223.959L341.538,225.191L342.154,225.067L342.769,224.366L343.385,225.373L344,226.163L344.615,224.793L345.231,224.726L345.846,223.889L346.462,224.78L347.077,224.155L347.692,224.037L348.308,225.157L348.923,225.111L349.538,224.343L350.154,225.117L350.769,224.399L351.385,224.727L352,222.83L352.615,223.977L353.231,224.392L353.846,224.074L354.462,224.45L355.077,223.261L355.692,223.674L356.308,224.202L356.923,223.723L357.538,224.103L358.154,224.552L358.769,224.988L359.385,223.93L360,224.347L360.615,223.569L361.231,224.709L361.846,224.067L362.462,224.249L363.077,224.273L363.692,224.381L364.308,224.037L364.923,224.077L365.538,224.669L366.154,223.94L366.769,224.798L367.385,224.798L368,223.372L368.615,223.734L369.231,225.889L369.846,224.325L370.462,224.936L371.077,224.427L371.692,224.919L372.308,224.983L372.923,224.644L373.538,224.935L374.154,225.055L374.769,224.434L375.385,224.553L376,223.436L376.615,223.999L377.231,224.138L377.846,224.34L378.462,224.564L379.077,224.514L379.692,223.899L380.308,224.017L380.923,224.757L381.538,225.233L382.154,224.915L382.769,223.438L383.385,224.142L384,224.455L384.615,223.303L385.231,224.518L385.846,224.851L386.462,224.799L387.077,225.287L387.692,224.623L388.308,224.042L388.923,224.155L389.538,225.25L390.154,225.06L390.769,225.959L391.385,224.388L392,224.236L392.615,224.422L393.231,224.996L393.846,225.185L394.462,224.656L395.077,224.643L395.692,224.063L396.308,224.705L396.923,224.019L397.538,223.991L398.154,225.521L398.769,225.251L399.385,224.672L400,223.995L400.615,224.35L401.231,223.787L401.846,224.447L402.462,224.356L403.077,223.973L403.692,224.451L404.308,224.583L404.923,224.491L405.538,224.764L406.154,224.525L406.769,224.29L407.385,224.037L408,224.414L408.615,224.668L409.231,224.916L409.846,224.545L410.462,224.97L411.077,224.216L411.692,225.767L412.308,223.227L412.923,224.377L413.538,224.529L414.154,224.799L414.769,224.747L415.385,224.954L416,224.681L430.154,27.855L430.769,27.654L431.385,27.534L432,27.844L432.615,28.013L433.231,27.817L433.846,27.969L434.462,27.862L435.077,27.966L435.692,17.917L437.538,244.666L438.154,244.18L438.769,245.088L439.385,244.186L440,244.829L440.615,245.737L441.231,244.349L441.846,245.042L442.462,244.746L443.077,245.13L443.692,244.504L444.308,243.897L444.923,244.569L445.538,244.98L446.154,244.663L446.769,244.5L447.385,245.124L448,244.653L448.615,244.83L449.231,244.303L449.846,244.481L450.462,243.925L451.077,244.263L451.692,245.707L452.308,244.493L452.923,244.682L453.538,244.53L454.154,245.51L454.769,245.349L455.385,245.418L456,245.423L456.615,244.785L457.231,245.153L457.846,243.443L458.462,244.314L459.077,245.319L459.692,245.166L460.308,244.333L460.923,244.716L461.538,245.097L462.154,244.152L462.769,244.542L463.385,243.259L464,244.162L464.615,244.527L465.231,245.253L465.846,244.723L466.462,244.908L467.077,244.541L467.692,244.559L468.308,244.836L468.923,245.19L469.538,244.678L470.154,244.718L470.769,244.471L471.385,244.174L472,244.557L472.615,245.504L473.231,243.934L473.846,244.584L474.462,244.949L475.077,244.222L475.692,244.647L476.308,245.114L476.923,245.132L477.538,244.913L478.154,244.264L478.769,245.331L479.385,245.243L480,244.603L480.615,244.875L481.231,245.267L481.846,244.515L482.462,244.458L483.077,244.42L483.692,244.513L484.308,244.671L484.923,244.086L485.538,244.022L486.154,243.266L486.769,243.809L487.385,244.635L488,245.086L488.615,245.404L489.231,244.888L489.846,244.559L490.462,244.668L491.077,244.325L491.692,245.531L492.308,244.408L492.923,244.812L493.538,244.734L494.154,244.157L494.769,244.574L495.385,244.427L496,243.684L496.615,244.424L497.231,244.208L497.846,244.053L498.462,243.847L499.077,245.06L499.692,244.784L500.308,243.608L500.923,244.312L501.538,244.889L502.154,244.904L502.769,244.82L503.385,245.386L504,244.821L504.615,244.784L505.231,244.554L505.846,244.595L506.462,244.264L507.077,244.406L507.692,244.098L508.308,244.79L508.923,244.551L509.538,244.262L510.154,244.293L510.769,245.071L511.385,245.195L512,243.977L512.615,244.104L513.231,245.06L513.846,245.701L514.462,243.854L515.077,244.346L515.692,244.023L516.308,244.715L516.923,244.17L517.538,244.151L518.154,244.599L518.769,245.336L519.385,244.478L520,244.884L520.615,245.327L521.231,244.488L521.846,245.316L522.462,244.375L523.077,244.878L523.692,244.827L524.308,245.382L524.923,244.038L525.538,243.214L526.154,244.408L526.769,244.363L527.385,243.887L528,244.337L528.615,244.1L529.231,244.434L529.846,244.056L530.462,244.209L531.077,244.225L531.692,244.341L532.308,245.12L532.923,244.084L533.538,244.605L534.154,245.109L534.769,245.152L535.385,244.987L536,244.75L536.615,245.288L537.231,244.243L537.846,243.745L538.462,244.171L539.077,244.58L539.692,243.964L540.308,243.387L540.923,244.578L541.538,245.519L542.154,244.405L542.769,244.901L543.385,244.869L544,244.406L544.615,243.938L545.231,243.156L545.846,244.487L546.462,243.798L547.077,245.016L547.692,244.133L548.308,244.783L548.923,245.484L549.538,244.192L550.154,244.361L550.769,243.912L551.385,244.364L552,244.36L552.615,244.61L553.231,244.954L553.846,243.919L554.462,244.07L555.077,245.517L555.692,244.717L556.308,244.613L556.923,243.881L557.538,244.713L558.154,244.979L558.769,244.95L559.385,244.964L560,244.929L560.615,243.372L561.231,243.555L561.846,245.459L562.462,245.062L563.077,242.759L563.692,243.097L564.308,244.244L564.923,244.662L565.538,245.355L566.154,245.317L566.769,245.216L567.385,244.103L568,244.361L568.615,244.901L569.231,244.428L569.846,244.682L570.462,244.853L571.077,245.434L571.692,245.315L572.308,244.482L572.923,244.204L573.538,245.11L574.154,245.342L574.769,245.188L575.385,244.74L576,244.88L576.615,244.647L577.231,245.412L577.846,244.977L578.462,245.543L579.077,244.466L579.692,244.246L580.308,244.343L580.923,244.125L581.538,244.367L582.154,245.159L582.769,243.79L583.385,243.702L584,245.251L584.615,245.545L585.231,244.064L585.846,244.312L586.462,244.71L587.077,244.436L587.692,243.943L588.308,245.282L588.923,243.938L589.538,245.203L590.154,244.26L590.769,244.043L591.385,243.713L592,245.057L592.615,244.271L593.231,244.964L593.846,244.092L594.462,244.736L595.077,244.927L595.692,244.712L596.308,244.787L596.923,244.885L597.538,244.93L598.154,244.721L598.769,244.052L599.385,244.654L600,245.418L600.615,245.298L601.231,245.191L601.846,244.545L602.462,244.566L603.077,244.31L603.692,244.625L604.308,244.304L604.923,244.435L605.538,244.643L606.154,244.593L606.769,244.974L607.385,244.527L608,244.603L608.615,244.89L609.231,244.268L609.846,245.154L610.462,244.8L611.077,244.12L611.692,243.84L612.308,245L612.923,243.992L613.538,243.976L614.154,244.338L614.769,243.938L615.385,244.307L616,244.665L616.615,245.105L617.231,245.833L617.846,244.379L618.462,244.437L619.077,244.105L619.692,245.566L620.308,244.73L620.923,245.52L621.538,245.012L622.154,244.996L622.769,245.367L623.385,245.126L624,244.712L624.615,245.369L625.231,245.051L625.846,244.799L626.462,244.236L627.077,244.008L627.692,243.708L628.308,244.435L628.923,245.004L629.538,246.174L630.154,244.797L630.769,244.467L631.385,245.352L632,244.255L632.615,244.717L633.231,246.463L633.846,246.292L634.462,245.696L635.077,244.568L635.692,244.68L636.308,245.162L636.923,245.435" stroke="#4c78a8" stroke-width="2" opacity="0.8"/></g></g><path class="foreground" aria-hidden="true" d="" display="none"/></g><g transform="translate(0,0)"><path class="background" aria-hidden="true" d="M0,0h640v320h-640Z"/><g><g class="mark-line role-mark layer_0_marks" role="graphics-object" aria-roledescription="line mark container"><path aria-label="scenario time (s): 29.75; pairwise |drift| (ms): 5.07668885277; client pair: 1-2" role="graphics-symbol" aria-roledescription="line mark" d="M122.462,311.156L123.077,317.158L123.692,318.901L124.308,319.688L124.923,319.305L125.538,319.942L126.154,319.617L126.769,319.901L127.385,308.507L129.846,286.484L130.462,284.505L131.077,286.25L131.692,286.515L132.308,287.614L132.923,287.335L133.538,287.59L134.154,285.996L134.769,287.202L135.385,287.3L136,287.098L136.615,286.313L137.231,284.122L137.846,285.995L138.462,285.66L139.077,287.051L139.692,286.878L140.308,285.131L140.923,286.023L141.538,285.789L142.154,286.839L142.769,286.87L143.385,288.408L144,285.447L144.615,286.882L145.231,286.685L145.846,286.48L146.462,285.714L147.077,284.626L147.692,285.125L148.308,285.827L148.923,286.559L149.538,286.516L150.154,286.662L150.769,286.097L151.385,285.713L152,285.182L152.615,285.52L153.231,286.378L153.846,286.65L154.462,286.635L155.077,287.074L155.692,285.534L156.308,285.964L156.923,286.218L157.538,286.803L158.154,286.681L158.769,287.43L159.385,286.761L160,286.438L160.615,286.828L161.231,286.435L161.846,286.82L162.462,285.85L163.077,286.459L163.692,286.288L164.308,285.14L164.923,286.502L165.538,286.376L166.154,286.211L166.769,285.86L167.385,285.621L168,286.28L168.615,286.364L169.231,287.193L169.846,286.469L170.462,285.476L171.077,285.474L171.692,285.735L172.308,286.043L172.923,284.983L173.538,286.371L174.154,286.992L174.769,287.005L175.385,286.117L176,286.328L176.615,285.962L177.231,286.143L177.846,286.308L178.462,286.518L179.077,286.495L179.692,286.059L180.308,286.346L180.923,285.363L181.538,287.098L182.154,286.241L182.769,285.896L183.385,287.158L184,285.697L184.615,286.088L185.231,286.727L185.846,286.763L186.462,286.374L187.077,287.321L187.692,286.537L188.308,285.181L188.923,286.509L189.538,286.491L190.154,286.971L190.769,286.642L191.385,286.152L192,286.881L192.615,286.531L193.231,285.615L193.846,287.341L194.462,287.85L195.077,287.079L195.692,286.308L196.308,287.172L196.923,286.011L197.538,286.171L198.154,287.395L198.769,286.659L199.385,286.225L200,285.277L200.615,286.9L201.231,285.519L201.846,284.652L202.462,286.081L203.077,285.589L203.692,285.803L204.308,286.185L204.923,287.085L205.538,286.357L206.154,286.447L206.769,286.294L207.385,285.757L208,286.166L208.615,287.47L209.231,286.918L209.846,285.998L210.462,285.639L211.077,286.696L211.692,287.418L212.308,287.617L212.923,285.638L213.538,286.248L214.154,285.67L214.769,286.123L215.385,285.142L216,287.025L216.615,286.477L217.231,286.373L217.846,286.484L218.462,286.331L219.077,286.087L219.692,285.64L220.308,285.747L220.923,285.59L221.538,286.199L222.154,286.156L222.769,286.208L223.385,287.089L224,287.224L224.615,287.614L225.231,286.232L225.846,283.939L226.462,285.866L227.077,286.89L227.692,286.119L228.308,286.246L228.923,286.286L229.538,286.936L230.154,285.735L230.769,287.099L231.385,286.795L232,286.916L232.615,286.773L233.231,286.144L233.846,286.314L234.462,285.809L235.077,286.674L235.692,285.205L236.308,286.204L236.923,285.997L237.538,285.977L238.154,286.705L238.769,286.698L239.385,286.53L240,287.013L240.615,287.005L241.231,286.179L241.846,285.852L242.462,285.37L243.077,287.021L243.692,285.821L244.308,285.175L244.923,285.606L245.538,286.422L246.154,287.17L246.769,286.907L247.385,287.317L248,285.78L248.615,284.577L249.231,287.199L249.846,287.534L250.462,286.514L251.077,286.335L251.692,285.848L252.308,285.27L252.923,285.849L253.538,286.655L254.154,286.888L254.769,285.288L255.385,287.032L256,285.41L256.615,287.389L257.231,287.075L257.846,285.461L258.462,285.759L259.077,286.681L259.692,286.079L260.308,286.001L260.923,284.718L261.538,284.42L262.154,285.14L262.769,285.827L263.385,285.911L264,286.118L264.615,286.152L265.231,285.672L265.846,286.199L266.462,286.557L267.077,287.195L267.692,296.753L270.154,250.585L270.769,193.305L271.385,192.758L272,193.104L272.615,193.587L273.231,194.072L273.846,193.503L274.462,192.903L275.077,193.661L275.692,168.813L277.538,255.245L278.154,256.855L278.769,255.48L279.385,255.668L280,257.022L280.615,256.163L281.231,256.278L281.846,256.117L282.462,256.329L283.077,255.504L283.692,255.89L284.308,255.576L284.923,255.446L285.538,256.363L286.154,255.6L286.769,256.187L287.385,256.994L288,256.183L288.615,255.653L289.231,255.496L289.846,255.844L290.462,255.915L291.077,256.824L291.692,255.763L292.308,256.101L292.923,256.521L293.538,256.869L294.154,256.233L294.769,255.745L295.385,255.038L296,256.74L296.615,256.177L297.231,256.825L297.846,255.72L298.462,255.851L299.077,255.903L299.692,255.983L300.308,257.771L300.923,256.157L301.538,254.814L302.154,255.332L302.769,255.471L303.385,254.612L304,254.977L304.615,256.423L305.231,255.224L305.846,255.23L306.462,255.293L307.077,255.371L307.692,255.689L308.308,255.384L308.923,255.663L309.538,255.968L310.154,256.911L310.769,256.89L311.385,255.902L312,255.483L312.615,255.94L313.231,256.614L313.846,256.449L314.462,256.007L315.077,256.268L315.692,255.801L316.308,255.406L316.923,254.809L317.538,255.74L318.154,255.856L318.769,257.207L319.385,256.291L320,256.266L320.615,256.031L321.231,255.731L321.846,255.746L322.462,255.909L323.077,256.602L323.692,256.315L324.308,255.911L324.923,256.974L325.538,256.387L326.154,256.045L326.769,255.579L327.385,255.291L328,255.821L328.615,255.888L329.231,256.247L329.846,256.899L330.462,257.033L331.077,257.142L331.692,256.896L332.308,256.093L332.923,256.543L333.538,255.648L334.154,253.738L334.769,254.628L335.385,256.748L336,256.494L336.615,256.003L337.231,255.688L337.846,255.916L338.462,256.507L339.077,256.066L339.692,255.289L340.308,256.147L340.923,255.927L341.538,255.877L342.154,256.513L342.769,256.25L343.385,255.899L344,256.103L344.615,255.575L345.231,256.207L345.846,255.546L346.462,256.707L347.077,255.063L347.692,256.156L348.308,256.367L348.923,256.041L349.538,255.507L350.154,256.498L350.769,255.152L351.385,256.382L352,254.645L352.615,254.962L353.231,256.223L353.846,255.639L354.462,255.748L355.077,255.626L355.692,255.447L356.308,255.125L356.923,255.003L357.538,255.472L358.154,255.679L358.769,256.02L359.385,255.291L360,256.282L360.615,254.94L361.231,256.091L361.846,256.19L362.462,255.487L363.077,255.067L363.692,255.267L364.308,255.686L364.923,255.698L365.538,256.737L366.154,257.107L366.769,256.738L367.385,255.7L368,254.056L368.615,255.114L369.231,255.722L369.846,255.665L370.462,256.796L371.077,256.091L371.692,255.926L372.308,256.76L372.923,256.314L373.538,256.317L374.154,256.645L374.769,256.389L375.385,256.037L376,255.628L376.615,255.815L377.231,257.262L377.846,256.288L378.462,255.432L379.077,254.826L379.692,255.361L380.308,255.858L380.923,256.797L381.538,256.741L382.154,256.844L382.769,255.837L383.385,255.824L384,256.078L384.615,253.826L385.231,255.578L385.846,255.983L386.462,256.552L387.077,256.057L387.692,256.642L388.308,256.605L388.923,255.722L389.538,256.485L390.154,256.654L390.769,256.584L391.385,255.895L392,255.012L392.615,254.905L393.231,256.313L393.846,256.197L394.462,256.866L395.077,255.652L395.692,255.481L396.308,256.072L396.923,256.109L397.538,255.995L398.154,257.467L398.769,257.171L399.385,256.355L400,255.22L400.615,255.932L401.231,255.708L401.846,256.452L402.462,255.779L403.077,256.028L403.692,255.916L404.308,256.97L404.923,256.356L405.538,255.404L406.154,255.815L406.769,255.305L407.385,256.028L408,255.609L408.615,255.639L409.231,256.446L409.846,255.995L410.462,256.284L411.077,256.38L411.692,256.531L412.308,255.572L412.923,255.491L413.538,255.371L414.154,256.236L414.769,256.203L415.385,256.228L430.154,18.588L430.769,18.428L431.385,18.424L432,18.378L432.615,18.315L433.231,18.356L433.846,18.304L434.462,18.259L435.077,18.48L435.692,9.011L437.538,279.682L438.154,279.557L438.769,279.806L439.385,279.797L440,280.295L440.615,281.601L441.231,280.333L441.846,281.505L442.462,281.409L443.077,281.39L443.692,280.559L444.308,279.627L444.923,280.803L445.538,281.029L446.154,280.476L446.769,280.513L447.385,280.16L448,279.726L448.615,279.751L449.231,280.289L449.846,280.354L450.462,280.12L451.077,280.383L451.692,280.561L452.308,281.518L452.923,279.537L453.538,279.953L454.154,280.518L454.769,280.329L455.385,281.529L456,281.15L456.615,279.879L457.231,280.594L457.846,279.212L458.462,280.795L459.077,281.372L459.692,280.116L460.308,280.048L460.923,280.274L461.538,281.131L462.154,281.482L462.769,280.304L463.385,278.58L464,280.735L464.615,281.402L465.231,281.891L465.846,280.686L466.462,280.253L467.077,280.961L467.692,279.584L468.308,280.654L468.923,281.207L469.538,280.709L470.154,279.507L470.769,280.689L471.385,280.391L472,280.706L472.615,280.508L473.231,280.129L473.846,280.701L474.462,281.669L475.077,280.929L475.692,280.819L476.308,281.147L476.923,280.971L477.538,281.035L478.154,280.431L478.769,281.084L479.385,281.098L480,280.468L480.615,280.366L481.231,281.887L481.846,282.103L482.462,280.153L483.077,280.554L483.692,279.661L484.308,280.614L484.923,280.549L485.538,279.523L486.154,278.328L486.769,278.614L487.385,280.812L488,281.219L488.615,280.52L489.231,280.349L489.846,279.723L490.462,280.586L491.077,280.789L491.692,280.916L492.308,280.576L492.923,280.603L493.538,279.396L494.154,279.252L494.769,280.18L495.385,280.071L496,279.632L496.615,279.392L497.231,280.214L497.846,280.026L498.462,279.844L499.077,281.254L499.692,280.022L500.308,278.411L500.923,279.915L501.538,279.412L502.154,280.37L502.769,281.645L503.385,281.531L504,280.517L504.615,280.299L505.231,280.422L505.846,280.654L506.462,280.154L507.077,280.4L507.692,280.117L508.308,279.763L508.923,279.568L509.538,280.313L510.154,280.148L510.769,281.082L511.385,280.127L512,279.767L512.615,280.116L513.231,281.303L513.846,281.755L514.462,280.427L515.077,279.604L515.692,279.783L516.308,280.555L516.923,280.75L517.538,281.42L518.154,280.658L518.769,280.783L519.385,280.294L520,281.018L520.615,280.222L521.231,279.279L521.846,279.798L522.462,280.102L523.077,280.762L523.692,280.895L524.308,281.678L524.923,280.235L525.538,280.058L526.154,280.741L526.769,280.039L527.385,280.475L528,279.938L528.615,279.643L529.231,280.873L529.846,279.899L530.462,280.85L531.077,281.124L531.692,280.369L532.308,280.404L532.923,279.652L533.538,279.848L534.154,280.709L534.769,279.97L535.385,281.335L536,279.875L536.615,281.145L537.231,279.91L537.846,280.176L538.462,279.893L539.077,280.676L539.692,279.398L540.308,278.96L540.923,280.077L541.538,280.656L542.154,280.062L542.769,281.132L543.385,280.709L544,279.394L544.615,281.246L545.231,279.161L545.846,280.427L546.462,280.427L547.077,281.144L547.692,280.402L548.308,280.993L548.923,280.752L549.538,279.617L550.154,280.093L550.769,279.862L551.385,281.346L552,280.1L552.615,280.164L553.231,280.078L553.846,279.407L554.462,280.144L555.077,280.451L555.692,279.903L556.308,279.112L556.923,279.571L557.538,280.645L558.154,280.754L558.769,281.33L559.385,281.341L560,280.644L560.615,279.935L561.231,279.515L561.846,281.589L562.462,279.764L563.077,279.025L563.692,279.631L564.308,279.236L564.923,280.145L565.538,280.479L566.154,280.222L566.769,280.495L567.385,279.781L568,280.793L568.615,280.543L569.231,279.739L569.846,280.005L570.462,280.349L571.077,281.153L571.692,282.272L572.308,280.395L572.923,278.85L573.538,279.982L574.154,281.267L574.769,281.201L575.385,281.409L576,280.595L576.615,279.824L577.231,280.747L577.846,280.282L578.462,280.797L579.077,279.495L579.692,279.366L580.308,279.965L580.923,279.946L581.538,280.347L582.154,280.915L582.769,279.965L583.385,279.991L584,281.125L584.615,281.614L585.231,280.343L585.846,281.561L586.462,280.484L587.077,280.477L587.692,279.466L588.308,280.571L588.923,279.632L589.538,280.897L590.154,280.057L590.769,280.253L591.385,279.397L592,282.193L592.615,280.511L593.231,282.489L593.846,280.218L594.462,280.728L595.077,280.909L595.692,280.659L596.308,280.698L596.923,280.339L597.538,280.93L598.154,280.049L598.769,280.457L599.385,280.411L600,281.672L600.615,280.394L601.231,280.876L601.846,280.967L602.462,280.39L603.077,280.876L603.692,281.222L604.308,280.814L604.923,280.895L605.538,281.526L606.154,280.392L606.769,279.493L607.385,280.829L608,280.184L608.615,280.55L609.231,280.7L609.846,280.629L610.462,280.99L611.077,280.027L611.692,279.419L612.308,280.66L612.923,280.543L613.538,280.725L614.154,281.927L614.769,280.28L615.385,280.558L616,281.299L616.615,281.704L617.231,281.67L617.846,280.404L618.462,279.975L619.077,280.149L619.692,280.637L620.308,281.034L620.923,281.714L621.538,281.019L622.154,280.748L622.769,280.468L623.385,281.162L624,280.537L624.615,280.746L625.231,280.971L625.846,281.481L626.462,280.586L627.077,279.967L627.692,279.72L628.308,281.369L628.923,280.687L629.538,280.291L630.154,280.663L630.769,281.282L631.385,280.741L632,280.493L632.615,280.384L633.231,280.291L633.846,280.575L634.462,280.815L635.077,280.422L635.692,280.818L636.308,280.571" stroke="#e45756" stroke-width="2" opacity="0.8"/></g></g><path class="foreground" aria-hidden="true" d="" display="none"/></g></g><g class="mark-rule role-mark layer_1_marks" role="graphics-object" aria-roledescription="rule mark container"><line aria-label="tS: −0.803" role="graphics-symbol" aria-roledescription="rule mark" transform="translate(47.25415384615385,0)" x2="0" y2="320" stroke="#888" stroke-dasharray="4,3"/><line aria-label="tS: 4.229" role="graphics-symbol" aria-roledescription="rule mark" transform="translate(59.64061538461539,0)" x2="0" y2="320" stroke="#888" stroke-dasharray="4,3"/><line aria-label="tS: 9.165" role="graphics-symbol" aria-roledescription="rule mark" transform="translate(71.79076923076923,0)" x2="0" y2="320" stroke="#888" stroke-dasharray="4,3"/><line aria-label="tS: 28.863" role="graphics-symbol" aria-roledescription="rule mark" transform="translate(120.27815384615386,0)" x2="0" y2="320" stroke="#888" stroke-dasharray="4,3"/><line aria-label="tS: 88.822" role="graphics-symbol" aria-roledescription="rule mark" transform="translate(267.86953846153847,0)" x2="0" y2="320" stroke="#888" stroke-dasharray="4,3"/><line aria-label="tS: 148.832" role="graphics-symbol" aria-roledescription="rule mark" transform="translate(415.58646153846155,0)" x2="0" y2="320" stroke="#888" stroke-dasharray="4,3"/><line aria-label="tS: 153.841" role="graphics-symbol" aria-roledescription="rule mark" transform="translate(427.9163076923077,0)" x2="0" y2="320" stroke="#888" stroke-dasharray="4,3"/></g><g class="mark-text role-mark layer_2_marks" role="graphics-object" aria-roledescription="text mark container"><text aria-label="tS: −0.803; kind: join c0" role="graphics-symbol" aria-roledescription="text mark" text-anchor="start" transform="translate(47.25415384615385,0) rotate(270) translate(0,-6)" font-family="sans-serif" font-size="9px" fill="#555">join c0</text><text aria-label="tS: 4.229; kind: join c1" role="graphics-symbol" aria-roledescription="text mark" text-anchor="start" transform="translate(59.64061538461539,0) rotate(270) translate(0,-6)" font-family="sans-serif" font-size="9px" fill="#555">join c1</text><text aria-label="tS: 9.165; kind: join c2" role="graphics-symbol" aria-roledescription="text mark" text-anchor="start" transform="translate(71.79076923076923,0) rotate(270) translate(0,-6)" font-family="sans-serif" font-size="9px" fill="#555">join c2</text><text aria-label="tS: 28.863; kind: play c0" role="graphics-symbol" aria-roledescription="text mark" text-anchor="start" transform="translate(120.27815384615386,0) rotate(270) translate(0,-6)" font-family="sans-serif" font-size="9px" fill="#555">play c0</text><text aria-label="tS: 88.822; kind: seek c0" role="graphics-symbol" aria-roledescription="text mark" text-anchor="start" transform="translate(267.86953846153847,0) rotate(270) translate(0,-6)" font-family="sans-serif" font-size="9px" fill="#555">seek c0</text><text aria-label="tS: 148.832; kind: pause c0" role="graphics-symbol" aria-roledescription="text mark" text-anchor="start" transform="translate(415.58646153846155,0) rotate(270) translate(0,-6)" font-family="sans-serif" font-size="9px" fill="#555">pause c0</text><text aria-label="tS: 153.841; kind: play c0" role="graphics-symbol" aria-roledescription="text mark" text-anchor="start" transform="translate(427.9163076923077,0) rotate(270) translate(0,-6)" font-family="sans-serif" font-size="9px" fill="#555">play c0</text></g><g class="mark-group role-legend" role="graphics-symbol" aria-roledescription="legend" aria-label="Symbol legend titled 'client pair' for stroke color with 3 values: 0-1, 0-2, 1-2"><g transform="translate(658,0)"><path class="background" aria-hidden="true" d="M0,0h96v53h-96Z" pointer-events="none"/><g><g class="mark-group role-legend-entry"><g transform="translate(0,16)"><path class="background" aria-hidden="true" d="M0,0h0v0h0Z" pointer-events="none"/><g><g class="mark-group role-scope" role="graphics-object" aria-roledescription="group mark container"><g transform="translate(0,0)"><path class="background" aria-hidden="true" d="M0,0h40v11h-40Z" pointer-events="none" opacity="1"/><g><g class="mark-symbol role-legend-symbol" pointer-events="none"><path transform="translate(6,6)" d="M-5,0L5,0" stroke="#4c78a8" stroke-width="1.5" opacity="0.8"/></g><g class="mark-text role-legend-label" pointer-events="none"><text text-anchor="start" transform="translate(16,9)" font-family="sans-serif" font-size="10px" fill="#000" opacity="1">0-1</text></g></g><path class="foreground" aria-hidden="true" d="" pointer-events="none" display="none"/></g><g transform="translate(0,13)"><path class="background" aria-hidden="true" d="M0,0h40v11h-40Z" pointer-events="none" opacity="1"/><g><g class="mark-symbol role-legend-symbol" pointer-events="none"><path transform="translate(6,6)" d="M-5,0L5,0" stroke="#f58518" stroke-width="1.5" opacity="0.8"/></g><g class="mark-text role-legend-label" pointer-events="none"><text text-anchor="start" transform="translate(16,9)" font-family="sans-serif" font-size="10px" fill="#000" opacity="1">0-2</text></g></g><path class="foreground" aria-hidden="true" d="" pointer-events="none" display="none"/></g><g transform="translate(0,26)"><path class="background" aria-hidden="true" d="M0,0h40v11h-40Z" pointer-events="none" opacity="1"/><g><g class="mark-symbol role-legend-symbol" pointer-events="none"><path transform="translate(6,6)" d="M-5,0L5,0" stroke="#e45756" stroke-width="1.5" opacity="0.8"/></g><g class="mark-text role-legend-label" pointer-events="none"><text text-anchor="start" transform="translate(16,9)" font-family="sans-serif" font-size="10px" fill="#000" opacity="1">1-2</text></g></g><path class="foreground" aria-hidden="true" d="" pointer-events="none" display="none"/></g></g></g><path class="foreground" aria-hidden="true" d="" pointer-events="none" display="none"/></g></g><g class="mark-text role-legend-title" pointer-events="none"><text text-anchor="start" transform="translate(0,9)" font-family="sans-serif" font-size="11px" font-weight="bold" fill="#000" opacity="1">client pair</text></g></g><path class="foreground" aria-hidden="true" d="" pointer-events="none" display="none"/></g></g><g class="mark-group role-title"><g transform="translate(320,-74)"><path class="background" aria-hidden="true" d="M0,0h0v0h0Z" pointer-events="none"/><g><g class="mark-text role-title-text" role="graphics-symbol" aria-roledescription="title" aria-label="Title text 'S9 · overhauled · 40ms with 25% segments sent ahead (netem reorder) — HoL blocking'" pointer-events="none"><text text-anchor="middle" transform="translate(0,10)" font-family="sans-serif" font-size="13px" font-weight="bold" fill="#000" opacity="1">S9 · overhauled · 40ms with 25% segments sent ahead (netem reorder) — HoL blocking</text></g></g><path class="foreground" aria-hidden="true" d="" pointer-events="none" display="none"/></g></g></g><path class="foreground" aria-hidden="true" d="" display="none"/></g></g></g></svg>