<svg xmlns="http://www.w3.org/2000/svg" xmlns:xlink="http://www.w3.org/1999/xlink" version="1.1" class="marks" width="1092" height="384" viewBox="0 0 1092 384"><rect width="1092" height="384" fill="white"/><g fill="none" stroke-miterlimit="10" transform="translate(226,27)"><g class="mark-group role-frame root" role="graphics-object" aria-roledescription="group mark container"><g transform="translate(0,0)"><path class="background" aria-hidden="true" d="M0.5,0.5h640v320h-640Z" stroke="#ddd"/><g><g class="mark-group role-axis" aria-hidden="true"><g transform="translate(0.5,320.5)"><path class="background" aria-hidden="true" d="M0,0h0v0h0Z" pointer-events="none"/><g><g class="mark-rule role-axis-grid" pointer-events="none"><line transform="translate(0,-320)" x2="0" y2="320" stroke="#ddd" stroke-width="1" opacity="1"/><line transform="translate(53,-320)" x2="0" y2="320" stroke="#ddd" stroke-width="1" opacity="1"/><line transform="translate(107,-320)" x2="0" y2="320" stroke="#ddd" stroke-width="1" opacity="1"/><line transform="translate(160,-320)" x2="0" y2="320" stroke="#ddd" stroke-width="1" opacity="1"/><line transform="translate(213,-320)" x2="0" y2="320" stroke="#ddd" stroke-width="1" opacity="1"/><line transform="translate(267,-320)" x2="0" y2="320" stroke="#ddd" stroke-width="1" opacity="1"/><line transform="translate(320,-320)" x2="0" y2="320" stroke="#ddd" stroke-width="1" opacity="1"/><line transform="translate(373,-320)" x2="0" y2="320" stroke="#ddd" stroke-width="1" opacity="1"/><line transform="translate(427,-320)" x2="0" y2="320" stroke="#ddd" stroke-width="1" opacity="1"/><line transform="translate(480,-320)" x2="0" y2="320" stroke="#ddd" stroke-width="1" opacity="1"/><line transform="translate(533,-320)" x2="0" y2="320" stroke="#ddd" stroke-width="1" opacity="1"/><line transform="translate(587,-320)" x2="0" y2="320" stroke="#ddd" stroke-width="1" opacity="1"/><line transform="translate(640,-320)" x2="0" y2="320" stroke="#ddd" stroke-width="1" opacity="1"/></g></g><path class="foreground" aria-hidden="true" d="" pointer-events="none" display="none"/></g></g><g class="mark-group role-axis" aria-hidden="true"><g transform="translate(0.5,0.5)"><path class="background" aria-hidden="true" d="M0,0h0v0h0Z" pointer-events="none"/><g><g class="mark-rule role-axis-grid" pointer-events="none"><line transform="translate(0,320)" x2="640" y2="0" stroke="#ddd" stroke-width="1" opacity="1"/><line transform="translate(0,288)" x2="640" y2="0" stroke="#ddd" stroke-width="1" opacity="1"/><line transform="translate(0,256)" x2="640" y2="0" stroke="#ddd" stroke-width="1" opacity="1"/><line transform="translate(0,224)" x2="640" y2="0" stroke="#ddd" stroke-width="1" opacity="1"/><line transform="translate(0,192)" x2="640" y2="0" stroke="#ddd" stroke-width="1" opacity="1"/><line transform="translate(0,160)" x2="640" y2="0" stroke="#ddd" stroke-width="1" opacity="1"/><line transform="translate(0,128)" x2="640" y2="0" stroke="#ddd" stroke-width="1" opacity="1"/><line transform="translate(0,96)" x2="640" y2="0" stroke="#ddd" stroke-width="1" opacity="1"/><line transform="translate(0,64)" x2="640" y2="0" stroke="#ddd" stroke-width="1" opacity="1"/><line transform="translate(0,32)" x2="640" y2="0" stroke="#ddd" stroke-width="1" opacity="1"/><line transform="translate(0,0)" x2="640" y2="0" stroke="#ddd" stroke-width="1" opacity="1"/></g></g><path class="foreground" aria-hidden="true" d="" pointer-events="none" display="none"/></g></g><g class="mark-group role-axis" role="graphics-symbol" aria-roledescription="axis" aria-label="X-axis titled 'scenario time (s)' for a linear scale with values from 0 to 240"><g transform="translate(0.5,320.5)"><path class="background" aria-hidden="true" d="M0,0h0v0h0Z" pointer-events="none"/><g><g class="mark-rule role-axis-tick" pointer-events="none"><line transform="translate(0,0)" x2="0" y2="5" stroke="#888" stroke-width="1" opacity="1"/><line transform="translate(53,0)" x2="0" y2="5" stroke="#888" stroke-width="1" opacity="1"/><line transform="translate(107,0)" x2="0" y2="5" stroke="#888" stroke-width="1" opacity="1"/><line transform="translate(160,0)" x2="0" y2="5" stroke="#888" stroke-width="1" opacity="1"/><line transform="translate(213,0)" x2="0" y2="5" stroke="#888" stroke-width="1" opacity="1"/><line transform="translate(267,0)" x2="0" y2="5" stroke="#888" stroke-width="1" opacity="1"/><line transform="translate(320,0)" x2="0" y2="5" stroke="#888" stroke-width="1" opacity="1"/><line transform="translate(373,0)" x2="0" y2="5" stroke="#888" stroke-width="1" opacity="1"/><line transform="translate(427,0)" x2="0" y2="5" stroke="#888" stroke-width="1" opacity="1"/><line transform="translate(480,0)" x2="0" y2="5" stroke="#888" stroke-width="1" opacity="1"/><line transform="translate(533,0)" x2="0" y2="5" stroke="#888" stroke-width="1" opacity="1"/><line transform="translate(587,0)" x2="0" y2="5" stroke="#888" stroke-width="1" opacity="1"/><line transform="translate(640,0)" x2="0" y2="5" stroke="#888" stroke-width="1" opacity="1"/></g><g class="mark-text role-axis-label" pointer-events="none"><text text-anchor="start" transform="translate(0,15)" font-family="sans-serif" font-size="10px" fill="#000" opacity="1">0</text><text text-anchor="middle" transform="translate(53.33333333333333,15)" font-family="sans-serif" font-size="10px" fill="#000" opacity="1">20</text><text text-anchor="middle" transform="translate(106.66666666666666,15)" font-family="sans-serif" font-size="10px" fill="#000" opacity="1">40</text><text text-anchor="middle" transform="translate(160,15)" font-family="sans-serif" font-size="10px" fill="#000" opacity="1">60</text><text text-anchor="middle" transform="translate(213.33333333333331,15)" font-family="sans-serif" font-size="10px" fill="#000" opacity="1">80</text><text text-anchor="middle" transform="translate(266.6666666666667,15)" font-family="sans-serif" font-size="10px" fill="#000" opacity="1">100</text><text text-anchor="middle" transform="translate(320,15)" font-family="sans-serif" font-size="10px" fill="#000" opacity="1">120</text><text text-anchor="middle" transform="translate(373.33333333333337,15)" font-family="sans-serif" font-size="10px" fill="#000" opacity="1">140</text><text text-anchor="middle" transform="translate(426.66666666666663,15)" font-family="sans-serif" font-size="10px" fill="#000" opacity="1">160</text><text text-anchor="middle" transform="translate(480,15)" font-family="sans-serif" font-size="10px" fill="#000" opacity="1">180</text><text text-anchor="middle" transform="translate(533.3333333333334,15)" font-family="sans-serif" font-size="10px" fill="#000" opacity="1">200</text><text text-anchor="middle" transform="translate(586.6666666666666,15)" font-family="sans-serif" font-size="10px" fill="#000" opacity="1">220</text><text text-anchor="end" transform="translate(640,15)" font-family="sans-serif" font-size="10px" fill="#000" opacity="1">240</text></g><g class="mark-rule role-axis-domain" pointer-events="none"><line transform="translate(0,0)" x2="640" y2="0" stroke="#888" stroke-width="1" opacity="1"/></g><g class="mark-text role-axis-title" pointer-events="none"><text text-anchor="middle" transform="translate(320,30)" font-family="sans-serif" font-size="11px" font-weight="bold" fill="#000" opacity="1">scenario time (s)</text></g></g><path class="foreground" aria-hidden="true" d="" pointer-events="none" display="none"/></g></g><g class="mark-group role-axis" role="graphics-symbol" aria-roledescription="axis" aria-label="Y-axis titled 'playhead (s)' for a linear scale with values from 0 to 500"><g transform="translate(0.5,0.5)"><path class="background" aria-hidden="true" d="M0,0h0v0h0Z" pointer-events="none"/><g><g class="mark-rule role-axis-tick" pointer-events="none"><line transform="translate(0,320)" x2="-5" y2="0" stroke="#888" stroke-width="1" opacity="1"/><line transform="translate(0,288)" x2="-5" y2="0" stroke="#888" stroke-width="1" opacity="1"/><line transform="translate(0,256)" x2="-5" y2="0" stroke="#888" stroke-width="1" opacity="1"/><line transform="translate(0,224)" x2="-5" y2="0" stroke="#888" stroke-width="1" opacity="1"/><line transform="translate(0,192)" x2="-5" y2="0" stroke="#888" stroke-width="1" opacity="1"/><line transform="translate(0,160)" x2="-5" y2="0" stroke="#888" stroke-width="1" opacity="1"/><line transform="translate(0,128)" x2="-5" y2="0" stroke="#888" stroke-width="1" opacity="1"/><line transform="translate(0,96)" x2="-5" y2="0" stroke="#888" stroke-width="1" opacity="1"/><line transform="translate(0,64)" x2="-5" y2="0" stroke="#888" stroke-width="1" opacity="1"/><line transform="translate(0,32)" x2="-5" y2="0" stroke="#888" stroke-width="1" opacity="1"/><line transform="translate(0,0)" x2="-5" y2="0" stroke="#888" stroke-width="1" opacity="1"/></g><g class="mark-text role-axis-label" pointer-events="none"><text text-anchor="end" transform="translate(-7,323)" font-family="sans-serif" font-size="10px" fill="#000" opacity="1">0</text><text text-anchor="end" transform="translate(-7,291)" font-family="sans-serif" font-size="10px" fill="#000" opacity="1">50</text><text text-anchor="end" transform="translate(-7,259)" font-family="sans-serif" font-size="10px" fill="#000" opacity="1">100</text><text text-anchor="end" transform="translate(-7,227)" font-family="sans-serif" font-size="10px" fill="#000" opacity="1">150</text><text text-anchor="end" transform="translate(-7,195)" font-family="sans-serif" font-size="10px" fill="#000" opacity="1">200</text><text text-anchor="end" transform="translate(-7,163)" font-family="sans-serif" font-size="10px" fill="#000" opacity="1">250</text><text text-anchor="end" transform="translate(-7,131)" font-family="sans-serif" font-size="10px" fill="#000" opacity="1">300</text><text text-anchor="end" transform="translate(-7,99.00000000000001)" font-family="sans-serif" font-size="10px" fill="#000" opacity="1">350</text><text text-anchor="end" transform="translate(-7,66.99999999999999)" font-family="sans-serif" font-size="10px" fill="#000" opacity="1">400</text><text text-anchor="end" transform="translate(-7,34.99999999999999)" font-family="sans-serif" font-size="10px" fill="#000" opacity="1">450</text><text text-anchor="end" transform="translate(-7,3)" font-family="sans-serif" font-size="10px" fill="#000" opacity="1">500</text></g><g class="mark-rule role-axis-domain" pointer-events="none"><line transform="translate(0,320)" x2="0" y2="-320" stroke="#888" stroke-width="1" opacity="1"/></g><g class="mark-text role-axis-title" pointer-events="none"><text text-anchor="middle" transform="translate(-35,160) rotate(-90) translate(0,-2)" font-family="sans-serif" font-size="11px" font-weight="bold" fill="#000" opacity="1">playhead (s)</text></g></g><path class="foreground" aria-hidden="true" d="" pointer-events="none" display="none"/></g></g><g class="mark-group role-scope pathgroup" role="graphics-object" aria-roledescription="group mark container"><g transform="translate(0,0)"><path class="background" aria-hidden="true" d="M0,0h640v320h-640Z"/><g><g class="mark-line role-mark marks" role="graphics-object" aria-roledescription="line mark container"><path aria-label="scenario time (s): 4; playhead (s): 0; client: c1" role="graphics-symbol" aria-roledescription="line mark" d="M10.667,320L13.333,320L16,320L18.667,320L21.333,320L24,320L26.667,320L29.333,320L32,320L34.667,320L37.333,320L40,320L42.667,320L45.333,320L48,320L50.667,320L53.333,320L56,320L58.667,320L61.333,320L64,320L66.667,320L69.333,320L72,320L74.667,320L77.333,319.592L80,318.953L82.667,318.319L85.333,317.244L88,316.604L90.667,315.97L93.333,315.518L96,314.877L98.667,314.238L101.333,313.598L104,312.958L106.667,312.318L109.333,311.678L112,311.038L114.667,310.398L117.333,309.758L120,309.118L122.667,308.478L125.333,307.838L128,307.198L130.667,306.558L133.333,305.918L136,305.278L138.667,304.638L141.333,303.999L144,303.358L146.667,302.718L149.333,302.078L152,301.438L154.667,300.798L157.333,300.157L160,299.517L162.667,298.878L165.333,298.237L168,297.598L170.667,296.958L173.333,296.318L176,295.677L178.667,295.038L181.333,294.397L184,293.758L186.667,293.117L189.333,292.478L192,291.838L194.667,291.198L197.333,290.557L200,289.918L202.667,289.277L205.333,288.637L208,287.998L210.667,287.358L213.333,286.718L216,286.078L218.667,285.438L221.333,284.798L224,284.157L226.667,283.518L229.333,282.878L232,282.239L234.667,281.604L237.333,118.084L240,117.444L242.667,116.806L245.333,116.165L248,115.525L250.667,114.886L253.333,114.244L256,113.605L258.667,112.965L261.333,112.324L264,111.685L266.667,111.044L269.333,110.405L272,109.765L274.667,109.125L277.333,108.484L280,107.887L282.667,107.265L285.333,106.625L288,105.985L290.667,105.344L293.333,104.704L296,104.065L298.667,103.425L301.333,102.785L304,102.145L306.667,101.505L309.333,100.865L312,100.225L314.667,99.585L317.333,98.946L320,98.305L322.667,97.665L325.333,97.024L328,96.385L330.667,95.745L333.333,95.105L336,94.465L338.667,93.825L341.333,93.185L344,92.545L346.667,91.905L349.333,91.265L352,90.625L354.667,89.985L357.333,89.344L360,88.704L362.667,88.065L365.333,87.425L368,86.785L370.667,86.145L373.333,85.504L376,84.864L378.667,84.225L381.333,83.585L384,82.945L386.667,82.305L389.333,81.665L392,81.024L394.667,80.385L397.333,80.567L400,80.567L402.667,80.567L405.333,80.567L408,80.567L410.667,79.976L413.333,79.337L416,78.698L418.667,77.855L421.333,77.216L424,76.576L426.667,75.936L429.333,75.295L432,74.655L434.667,74.015L437.333,73.375L440,72.735L442.667,72.095L445.333,71.455L448,70.815L450.667,70.175L453.333,69.535L456,68.894L458.667,68.255L461.333,67.615L464,66.975L466.667,66.335L469.333,65.694L472,65.055L474.667,64.415L477.333,63.775L480,63.134L482.667,62.495L485.333,61.855L488,61.215L490.667,60.575L493.333,59.934L496,59.296L498.667,58.655L501.333,58.015L504,57.375L506.667,56.735L509.333,56.095L512,55.456L514.667,54.815L517.333,54.175L520,53.535L522.667,52.895L525.333,52.255L528,51.615L530.667,50.975L533.333,50.335L536,49.695L538.667,49.055L541.333,48.415L544,47.775L546.667,47.135L549.333,46.494L552,45.854L554.667,45.214L557.333,44.575L560,43.935L562.667,43.295L565.333,42.655L568,42.015L570.667,41.375L573.333,40.735L576,40.095L578.667,39.455L581.333,38.815L584,38.175L586.667,37.535L589.333,36.895L592,36.474L594.667,35.751L597.333,35.111L600,34.471L602.667,33.831L605.333,33.19L608,32.551L610.667,31.911L613.333,31.272L616,30.631L618.667,29.991L621.333,29.351L624,28.711L626.667,28.072L629.333,27.43L632,26.791" stroke="#f58518" stroke-width="2"/></g></g><path class="foreground" aria-hidden="true" d="" display="none"/></g><g transform="translate(0,0)"><path class="background" aria-hidden="true" d="M0,0h640v320h-640Z"/><g><g class="mark-line role-mark marks" role="graphics-object" aria-roledescription="line mark container"><path aria-label="scenario time (s): 0; playhead (s): 0; client: c0" role="graphics-symbol" aria-roledescription="line mark" d="M0,320L2.667,320L5.333,320L8,320L10.667,320L13.333,320L16,320L18.667,320L21.333,320L24,320L26.667,320L29.333,320L32,320L34.667,320L37.333,320L40,320L42.667,320L45.333,320L48,320L50.667,320L53.333,320L56,320L58.667,320L61.333,320L64,320L66.667,320L69.333,320L72,320L74.667,320L77.333,319.745L80,319.105L82.667,318.465L85.333,317.379L88,316.738L90.667,316.099L93.333,315.525L96,314.885L98.667,314.245L101.333,313.605L104,312.964L106.667,312.325L109.333,311.685L112,311.044L114.667,310.404L117.333,309.764L120,309.124L122.667,308.484L125.333,307.844L128,307.204L130.667,306.564L133.333,305.924L136,305.284L138.667,304.644L141.333,304.004L144,303.364L146.667,302.724L149.333,302.084L152,301.444L154.667,300.804L157.333,300.164L160,299.524L162.667,298.884L165.333,298.244L168,297.604L170.667,296.964L173.333,296.324L176,295.684L178.667,295.044L181.333,294.405L184,293.764L186.667,293.124L189.333,292.484L192,291.845L194.667,291.204L197.333,290.564L200,289.924L202.667,289.284L205.333,288.644L208,288.004L210.667,287.364L213.333,286.724L216,286.084L218.667,285.445L221.333,284.804L224,284.165L226.667,283.524L229.333,282.885L232,282.244L234.667,281.605L237.333,118.325L240,117.685L242.667,117.045L245.333,116.405L248,115.765L250.667,115.126L253.333,114.485L256,113.845L258.667,113.206L261.333,112.565L264,111.925L266.667,111.285L269.333,110.645L272,110.005L274.667,109.365L277.333,108.725L280,108.085L282.667,107.445L285.333,106.805L288,106.165L290.667,105.525L293.333,104.885L296,104.245L298.667,103.605L301.333,102.965L304,102.325L306.667,101.685L309.333,101.045L312,100.405L314.667,99.765L317.333,99.125L320,98.486L322.667,97.845L325.333,97.205L328,96.565L330.667,95.925L333.333,95.285L336,94.645L338.667,94.005L341.333,93.365L344,92.725L346.667,92.085L349.333,91.445L352,90.805L354.667,90.165L357.333,89.525L360,88.885L362.667,88.245L365.333,87.606L368,86.965L370.667,86.325L373.333,85.685L376,85.045L378.667,84.405L381.333,83.765L384,83.126L386.667,82.485L389.333,81.845L392,81.206L394.667,80.564L397.333,80.567L400,80.567L402.667,80.567L405.333,80.567L408,80.567L410.667,80.13L413.333,79.489L416,78.849L418.667,77.951L421.333,77.311L424,76.672L426.667,76.081L429.333,75.441L432,74.802L434.667,74.161L437.333,73.521L440,72.881L442.667,72.241L445.333,71.6L448,70.961L450.667,70.321L453.333,69.681L456,69.041L458.667,68.401L461.333,67.761L464,67.121L466.667,66.481L469.333,65.842L472,65.201L474.667,64.561L477.333,63.921L480,63.281L482.667,62.641L485.333,62.001L488,61.361L490.667,60.721L493.333,60.082L496,59.441L498.667,58.801L501.333,58.161L504,57.521L506.667,56.882L509.333,56.241L512,55.602L514.667,54.962L517.333,54.322L520,53.681L522.667,53.042L525.333,52.402L528,51.761L530.667,51.121L533.333,50.481L536,49.841L538.667,49.201L541.333,48.561L544,47.921L546.667,47.281L549.333,46.642L552,46.001L554.667,45.362L557.333,44.721L560,44.082L562.667,43.441L565.333,42.801L568,42.162L570.667,41.521L573.333,40.881L576,40.241L578.667,39.601L581.333,38.961L584,38.321L586.667,37.681L589.333,37.042L592,36.614L594.667,35.898L597.333,35.258L600,34.619L602.667,33.915L605.333,33.275L608,32.635L610.667,31.994L613.333,31.355L616,30.715L618.667,30.075L621.333,29.435L624,28.794L626.667,28.155L629.333,27.515L632,26.874" stroke="#4c78a8" stroke-width="2"/></g></g><path class="foreground" aria-hidden="true" d="" display="none"/></g><g transform="translate(0,0)"><path class="background" aria-hidden="true" d="M0,0h640v320h-640Z"/><g><g class="mark-line role-mark marks" role="graphics-object" aria-roledescription="line mark container"><path aria-label="scenario time (s): 9; playhead (s): 0; client: c2" role="graphics-symbol" aria-roledescription="line mark" d="M24,320L26.667,320L29.333,320L32,320L34.667,320L37.333,320L40,320L42.667,320L45.333,320L48,320L50.667,320L53.333,320L56,320L58.667,320L61.333,320L64,320L66.667,320L69.333,320L72,320L74.667,320L77.333,319.63L80,318.99L82.667,318.357L85.333,317.263L88,316.623L90.667,315.992L93.333,315.539L96,314.899L98.667,314.267L101.333,313.485L104,312.846L106.667,312.206L109.333,311.565L112,310.925L114.667,310.285L117.333,309.645L120,309.005L122.667,308.366L125.333,307.725L128,307.085L130.667,306.445L133.333,305.805L136,305.165L138.667,304.525L141.333,303.885L144,303.245L146.667,302.605L149.333,301.966L152,301.326L154.667,300.685L157.333,300.046L160,299.405L162.667,298.766L165.333,298.125L168,297.486L170.667,296.845L173.333,296.206L176,295.565L178.667,294.925L181.333,294.285L184,293.645L186.667,293.005L189.333,292.365L192,291.725L194.667,291.085L197.333,290.445L200,289.806L202.667,289.165L205.333,288.526L208,287.885L210.667,287.245L213.333,286.605L216,285.964L218.667,285.325L221.333,284.684L224,284.044L226.667,283.405L229.333,282.764L232,282.124L234.667,281.492L237.333,118.267L240,117.628L242.667,116.993L245.333,116.129L248,115.489L250.667,114.855L253.333,114.291L256,113.651L258.667,113.011L261.333,112.371L264,111.73L266.667,111.091L269.333,110.451L272,109.811L274.667,109.171L277.333,108.531L280,107.891L282.667,107.25L285.333,106.611L288,105.97L290.667,105.331L293.333,104.691L296,104.051L298.667,103.411L301.333,102.77L304,102.132L306.667,101.491L309.333,100.851L312,100.21L314.667,99.571L317.333,98.93L320,98.291L322.667,97.651L325.333,97.011L328,96.372L330.667,95.731L333.333,95.091L336,94.451L338.667,93.81L341.333,93.171L344,92.531L346.667,91.892L349.333,91.251L352,90.611L354.667,89.97L357.333,89.331L360,88.691L362.667,88.051L365.333,87.411L368,86.771L370.667,86.131L373.333,85.491L376,84.85L378.667,84.211L381.333,83.571L384,82.931L386.667,82.291L389.333,81.651L392,81.012L394.667,80.371L397.333,80.567L400,80.567L402.667,80.567L405.333,80.567L408,80.567L410.667,79.973L413.333,79.333L416,78.7L418.667,77.863L421.333,77.223L424,76.583L426.667,75.983L429.333,75.365L432,74.724L434.667,74.084L437.333,73.445L440,72.805L442.667,72.165L445.333,71.525L448,70.885L450.667,70.244L453.333,69.604L456,68.964L458.667,68.324L461.333,67.685L464,67.045L466.667,66.405L469.333,65.764L472,65.125L474.667,64.485L477.333,63.844L480,63.204L482.667,62.564L485.333,61.924L488,61.285L490.667,60.645L493.333,60.004L496,59.365L498.667,58.725L501.333,58.084L504,57.445L506.667,56.804L509.333,56.164L512,55.524L514.667,54.885L517.333,54.245L520,53.605L522.667,52.964L525.333,52.325L528,51.685L530.667,51.045L533.333,50.404L536,49.764L538.667,49.124L541.333,48.484L544,47.845L546.667,47.205L549.333,46.565L552,45.924L554.667,45.285L557.333,44.644L560,44.005L562.667,43.365L565.333,42.725L568,42.084L570.667,41.444L573.333,40.805L576,40.165L578.667,39.524L581.333,38.884L584,38.244L586.667,37.604L589.333,36.964L592,36.418L594.667,35.814L597.333,35.174L600,34.442L602.667,33.803L605.333,33.162L608,32.522L610.667,31.882L613.333,31.243L616,30.602L618.667,29.962L621.333,29.323L624,28.682L626.667,28.042L629.333,27.403L632,26.763" stroke="#e45756" stroke-width="2"/></g></g><path class="foreground" aria-hidden="true" d="" display="none"/></g></g><g class="mark-group role-legend" role="graphics-symbol" aria-roledescription="legend" aria-label="Symbol legend titled 'client' for stroke color with 3 values: c0, c1, c2"><g transform="translate(658,0)"><path class="background" aria-hidden="true" d="M0,0h52v53h-52Z" pointer-events="none"/><g><g class="mark-group role-legend-entry"><g transform="translate(0,16)"><path class="background" aria-hidden="true" d="M0,0h0v0h0Z" pointer-events="none"/><g><g class="mark-group role-scope" role="graphics-object" aria-roledescription="group mark container"><g transform="translate(0,0)"><path class="background" aria-hidden="true" d="M0,0h32v11h-32Z" pointer-events="none" opacity="1"/><g><g class="mark-symbol role-legend-symbol" pointer-events="none"><path transform="translate(6,6)" d="M-5,0L5,0" stroke="#4c78a8" stroke-width="1.5" opacity="1"/></g><g class="mark-text role-legend-label" pointer-events="none"><text text-anchor="start" transform="translate(16,9)" font-family="sans-serif" font-size="10px" fill="#000" opacity="1">c0</text></g></g><path class="foreground" aria-hidden="true" d="" pointer-events="none" display="none"/></g><g transform="translate(0,13)"><path class="background" aria-hidden="true" d="M0,0h32v11h-32Z" pointer-events="none" opacity="1"/><g><g class="mark-symbol role-legend-symbol" pointer-events="none"><path transform="translate(6,6)" d="M-5,0L5,0" stroke="#f58518" stroke-width="1.5" opacity="1"/></g><g class="mark-text role-legend-label" pointer-events="none"><text text-anchor="start" transform="translate(16,9)" font-family="sans-serif" font-size="10px" fill="#000" opacity="1">c1</text></g></g><path class="foreground" aria-hidden="true" d="" pointer-events="none" display="none"/></g><g transform="translate(0,26)"><path class="background" aria-hidden="true" d="M0,0h32v11h-32Z" pointer-events="none" opacity="1"/><g><g class="mark-symbol role-legend-symbol" pointer-events="none"><path transform="translate(6,6)" d="M-5,0L5,0" stroke="#e45756" stroke-width="1.5" opacity="1"/></g><g class="mark-text role-legend-label" pointer-events="none"><text text-anchor="start" transform="translate(16,9)" font-family="sans-serif" font-size="10px" fill="#000" opacity="1">c2</text></g></g><path class="foreground" aria-hidden="true" d="" pointer-events="none" display="none"/></g></g></g><path class="foreground" aria-hidden="true" d="" pointer-events="none" display="none"/></g></g><g class="mark-text role-legend-title" pointer-events="none"><text text-anchor="start" transform="translate(0,9)" font-family="sans-serif" font-size="11px" font-weight="bold" fill="#000" opacity="1">client</text></g></g><path class="foreground" aria-hidden="true" d="" pointer-events="none" display="none"/></g></g><g class="mark-group role-title"><g transform="translate(320,-22)"><path class="background" aria-hidden="true" d="M0,0h0v0h0Z" pointer-events="none"/><g><g class="mark-text role-title-text" role="graphics-symbol" aria-roledescription="title" aria-label="Title text 'per-client playhead · S9 · overhauled · 40ms with 25% segments sent ahead (netem reorder) — HoL blocking'" pointer-events="none"><text text-anchor="middle" transform="translate(0,10)" font-family="sans-serif" font-size="13px" font-weight="bold" fill="#000" opacity="1">per-client playhead · S9 · overhauled · 40ms with 25% segments sent ahead (netem reorder) — HoL blocking</text></g></g><path class="foreground" aria-hidden="true" d="" pointer-events="none" display="none"/></g></g></g><path class="foreground" aria-hidden="true" d="" display="none"/></g></g></g></svg>