<svg xmlns="http://www.w3.org/2000/svg" xmlns:xlink="http://www.w3.org/1999/xlink" version="1.1" class="marks" width="890" height="384" viewBox="0 0 890 384"><rect width="890" height="384" fill="white"/><g fill="none" stroke-miterlimit="10" transform="translate(51,27)"><g class="mark-group role-frame root" role="graphics-object" aria-roledescription="group mark container"><g transform="translate(0,0)"><path class="background" aria-hidden="true" d="M0.5,0.5h640v320h-640Z" stroke="#ddd"/><g><g class="mark-group role-axis" aria-hidden="true"><g transform="translate(0.5,320.5)"><path class="background" aria-hidden="true" d="M0,0h0v0h0Z" pointer-events="none"/><g><g class="mark-rule role-axis-grid" pointer-events="none"><line transform="translate(0,-320)" x2="0" y2="320" stroke="#ddd" stroke-width="1" opacity="1"/><line transform="translate(96,-320)" x2="0" y2="320" stroke="#ddd" stroke-width="1" opacity="1"/><line transform="translate(153,-320)" x2="0" y2="320" stroke="#ddd" stroke-width="1" opacity="1"/><line transform="translate(193,-320)" x2="0" y2="320" stroke="#ddd" stroke-width="1" opacity="1"/><line transform="translate(224,-320)" x2="0" y2="320" stroke="#ddd" stroke-width="1" opacity="1"/><line transform="translate(249,-320)" x2="0" y2="320" stroke="#ddd" stroke-width="1" opacity="1"/><line transform="translate(270,-320)" x2="0" y2="320" stroke="#ddd" stroke-width="1" opacity="1"/><line transform="translate(289,-320)" x2="0" y2="320" stroke="#ddd" stroke-width="1" opacity="1"/><line transform="translate(305,-320)" x2="0" y2="320" stroke="#ddd" stroke-width="1" opacity="1"/><line transform="translate(320,-320)" x2="0" y2="320" stroke="#ddd" stroke-width="1" opacity="1"/><line transform="translate(416,-320)" x2="0" y2="320" stroke="#ddd" stroke-width="1" opacity="1"/><line transform="translate(473,-320)" x2="0" y2="320" stroke="#ddd" stroke-width="1" opacity="1"/><line transform="translate(513,-320)" x2="0" y2="320" stroke="#ddd" stroke-width="1" opacity="1"/><line transform="translate(544,-320)" x2="0" y2="320" stroke="#ddd" stroke-width="1" opacity="1"/><line transform="translate(569,-320)" x2="0" y2="320" stroke="#ddd" stroke-width="1" opacity="1"/><line transform="translate(590,-320)" x2="0" y2="320" stroke="#ddd" stroke-width="1" opacity="1"/><line transform="translate(609,-320)" x2="0" y2="320" stroke="#ddd" stroke-width="1" opacity="1"/><line transform="translate(625,-320)" x2="0" y2="320" stroke="#ddd" stroke-width="1" opacity="1"/><line transform="translate(640,-320)" x2="0" y2="320" stroke="#ddd" stroke-width="1" opacity="1"/></g></g><path class="foreground" aria-hidden="true" d="" pointer-events="none" display="none"/></g></g><g class="mark-group role-axis" aria-hidden="true"><g transform="translate(0.5,0.5)"><path class="background" aria-hidden="true" d="M0,0h0v0h0Z" pointer-events="none"/><g><g class="mark-rule role-axis-grid" pointer-events="none"><line transform="translate(0,320)" x2="640" y2="0" stroke="#ddd" stroke-width="1" opacity="1"/><line transform="translate(0,280)" x2="640" y2="0" stroke="#ddd" stroke-width="1" opacity="1"/><line transform="translate(0,240)" x2="640" y2="0" stroke="#ddd" stroke-width="1" opacity="1"/><line transform="translate(0,200)" x2="640" y2="0" stroke="#ddd" stroke-width="1" opacity="1"/><line transform="translate(0,160)" x2="640" y2="0" stroke="#ddd" stroke-width="1" opacity="1"/><line transform="translate(0,120)" x2="640" y2="0" stroke="#ddd" stroke-width="1" opacity="1"/><line transform="translate(0,80)" x2="640" y2="0" stroke="#ddd" stroke-width="1" opacity="1"/><line transform="translate(0,40)" x2="640" y2="0" stroke="#ddd" stroke-width="1" opacity="1"/><line transform="translate(0,0)" x2="640" y2="0" stroke="#ddd" stroke-width="1" opacity="1"/></g></g><path class="foreground" aria-hidden="true" d="" pointer-events="none" display="none"/></g></g><g class="mark-group role-axis" role="graphics-symbol" aria-roledescription="axis" aria-label="X-axis titled 'clients in one room' for a log scale with values from 10 to 1,000"><g transform="translate(0.5,320.5)"><path class="background" aria-hidden="true" d="M0,0h0v0h0Z" pointer-events="none"/><g><g class="mark-rule role-axis-tick" pointer-events="none"><line transform="translate(0,0)" x2="0" y2="5" stroke="#888" stroke-width="1" opacity="1"/><line transform="translate(96,0)" x2="0" y2="5" stroke="#888" stroke-width="1" opacity="1"/><line transform="translate(153,0)" x2="0" y2="5" stroke="#888" stroke-width="1" opacity="1"/><line transform="translate(193,0)" x2="0" y2="5" stroke="#888" stroke-width="1" opacity="1"/><line transform="translate(224,0)" x2="0" y2="5" stroke="#888" stroke-width="1" opacity="1"/><line transform="translate(249,0)" x2="0" y2="5" stroke="#888" stroke-width="1" opacity="1"/><line transform="translate(270,0)" x2="0" y2="5" stroke="#888" stroke-width="1" opacity="1"/><line transform="translate(289,0)" x2="0" y2="5" stroke="#888" stroke-width="1" opacity="1"/><line transform="translate(305,0)" x2="0" y2="5" stroke="#888" stroke-width="1" opacity="1"/><line transform="translate(320,0)" x2="0" y2="5" stroke="#888" stroke-width="1" opacity="1"/><line transform="translate(416,0)" x2="0" y2="5" stroke="#888" stroke-width="1" opacity="1"/><line transform="translate(473,0)" x2="0" y2="5" stroke="#888" stroke-width="1" opacity="1"/><line transform="translate(513,0)" x2="0" y2="5" stroke="#888" stroke-width="1" opacity="1"/><line transform="translate(544,0)" x2="0" y2="5" stroke="#888" stroke-width="1" opacity="1"/><line transform="translate(569,0)" x2="0" y2="5" stroke="#888" stroke-width="1" opacity="1"/><line transform="translate(590,0)" x2="0" y2="5" stroke="#888" stroke-width="1" opacity="1"/><line transform="translate(609,0)" x2="0" y2="5" stroke="#888" stroke-width="1" opacity="1"/><line transform="translate(625,0)" x2="0" y2="5" stroke="#888" stroke-width="1" opacity="1"/><line transform="translate(640,0)" x2="0" y2="5" stroke="#888" stroke-width="1" opacity="1"/></g><g class="mark-text role-axis-label" pointer-events="none"><text text-anchor="start" transform="translate(0,15)" font-family="sans-serif" font-size="10px" fill="#000" opacity="1">10</text><text text-anchor="middle" transform="translate(96.32959861247394,15)" font-family="sans-serif" font-size="10px" fill="#000" opacity="1">20</text><text text-anchor="middle" transform="translate(152.67880151029198,15)" font-family="sans-serif" font-size="10px" fill="#000" opacity="1">30</text><text text-anchor="middle" transform="translate(192.65919722494795,15)" font-family="sans-serif" font-size="10px" fill="#000" opacity="1">40</text><text text-anchor="middle" transform="translate(223.670401387526,15)" font-family="sans-serif" font-size="10px" fill="#000" opacity="1">50</text><text text-anchor="middle" transform="translate(249.00840012276592,15)" font-family="sans-serif" font-size="10px" fill="#000" opacity="1"/><text text-anchor="middle" transform="translate(270.4313728045622,15)" font-family="sans-serif" font-size="10px" fill="#000" opacity="1"/><text text-anchor="middle" transform="translate(288.9887958374219,15)" font-family="sans-serif" font-size="10px" fill="#000" opacity="1"/><text text-anchor="middle" transform="translate(305.35760302058395,15)" font-family="sans-serif" font-size="10px" fill="#000" opacity="1"/><text text-anchor="middle" transform="translate(320.00000000000006,15)" font-family="sans-serif" font-size="10px" fill="#000" opacity="1">100</text><text text-anchor="middle" transform="translate(416.32959861247394,15)" font-family="sans-serif" font-size="10px" fill="#000" opacity="1">200</text><text text-anchor="middle" transform="translate(472.678801510292,15)" font-family="sans-serif" font-size="10px" fill="#000" opacity="1">300</text><text text-anchor="middle" transform="translate(512.6591972249479,15)" font-family="sans-serif" font-size="10px" fill="#000" opacity="1">400</text><text text-anchor="middle" transform="translate(543.670401387526,15)" font-family="sans-serif" font-size="10px" fill="#000" opacity="1">500</text><text text-anchor="middle" transform="translate(569.0084001227659,15)" font-family="sans-serif" font-size="10px" fill="#000" opacity="1"/><text text-anchor="middle" transform="translate(590.4313728045621,15)" font-family="sans-serif" font-size="10px" fill="#000" opacity="1"/><text text-anchor="middle" transform="translate(608.9887958374219,15)" font-family="sans-serif" font-size="10px" fill="#000" opacity="1"/><text text-anchor="middle" transform="translate(625.357603020584,15)" font-family="sans-serif" font-size="10px" fill="#000" opacity="1"/><text text-anchor="end" transform="translate(640,15)" font-family="sans-serif" font-size="10px" fill="#000" opacity="1">1,000</text></g><g class="mark-rule role-axis-domain" pointer-events="none"><line transform="translate(0,0)" x2="640" y2="0" stroke="#888" stroke-width="1" opacity="1"/></g><g class="mark-text role-axis-title" pointer-events="none"><text text-anchor="middle" transform="translate(320,30)" font-family="sans-serif" font-size="11px" font-weight="bold" fill="#000" opacity="1">clients in one room</text></g></g><path class="foreground" aria-hidden="true" d="" pointer-events="none" display="none"/></g></g><g class="mark-group role-axis" role="graphics-symbol" aria-roledescription="axis" aria-label="Y-axis titled 'drift P95 (ms)' for a linear scale with values from 0 to 160"><g transform="translate(0.5,0.5)"><path class="background" aria-hidden="true" d="M0,0h0v0h0Z" pointer-events="none"/><g><g class="mark-rule role-axis-tick" pointer-events="none"><line transform="translate(0,320)" x2="-5" y2="0" stroke="#888" stroke-width="1" opacity="1"/><line transform="translate(0,280)" x2="-5" y2="0" stroke="#888" stroke-width="1" opacity="1"/><line transform="translate(0,240)" x2="-5" y2="0" stroke="#888" stroke-width="1" opacity="1"/><line transform="translate(0,200)" x2="-5" y2="0" stroke="#888" stroke-width="1" opacity="1"/><line transform="translate(0,160)" x2="-5" y2="0" stroke="#888" stroke-width="1" opacity="1"/><line transform="translate(0,120)" x2="-5" y2="0" stroke="#888" stroke-width="1" opacity="1"/><line transform="translate(0,80)" x2="-5" y2="0" stroke="#888" stroke-width="1" opacity="1"/><line transform="translate(0,40)" x2="-5" y2="0" stroke="#888" stroke-width="1" opacity="1"/><line transform="translate(0,0)" x2="-5" y2="0" stroke="#888" stroke-width="1" opacity="1"/></g><g class="mark-text role-axis-label" pointer-events="none"><text text-anchor="end" transform="translate(-7,323)" font-family="sans-serif" font-size="10px" fill="#000" opacity="1">0</text><text text-anchor="end" transform="translate(-7,283)" font-family="sans-serif" font-size="10px" fill="#000" opacity="1">20</text><text text-anchor="end" transform="translate(-7,243)" font-family="sans-serif" font-size="10px" fill="#000" opacity="1">40</text><text text-anchor="end" transform="translate(-7,203)" font-family="sans-serif" font-size="10px" fill="#000" opacity="1">60</text><text text-anchor="end" transform="translate(-7,163)" font-family="sans-serif" font-size="10px" fill="#000" opacity="1">80</text><text text-anchor="end" transform="translate(-7,123)" font-family="sans-serif" font-size="10px" fill="#000" opacity="1">100</text><text text-anchor="end" transform="translate(-7,83)" font-family="sans-serif" font-size="10px" fill="#000" opacity="1">120</text><text text-anchor="end" transform="translate(-7,43)" font-family="sans-serif" font-size="10px" fill="#000" opacity="1">140</text><text text-anchor="end" transform="translate(-7,3)" font-family="sans-serif" font-size="10px" fill="#000" opacity="1">160</text></g><g class="mark-rule role-axis-domain" pointer-events="none"><line transform="translate(0,320)" x2="0" y2="-320" stroke="#888" stroke-width="1" opacity="1"/></g><g class="mark-text role-axis-title" pointer-events="none"><text text-anchor="middle" transform="translate(-35,160) rotate(-90) translate(0,-2)" font-family="sans-serif" font-size="11px" font-weight="bold" fill="#000" opacity="1">drift P95 (ms)</text></g></g><path class="foreground" aria-hidden="true" d="" pointer-events="none" display="none"/></g></g><g class="mark-group role-scope layer_0_pathgroup" role="graphics-object" aria-roledescription="group mark container"><g transform="translate(0,0)"><path class="background" aria-hidden="true" d="M0,0h640v320h-640Z"/><g><g class="mark-line role-mark layer_0_marks" role="graphics-object" aria-roledescription="line mark container"><path aria-label="clients in one room: 10; drift P95 (ms): 115.624528316; topology: 1 instance; load-gen self-skewed: false" role="graphics-symbol" aria-roledescription="line mark" d="M0,88.751L127.341,75.598L223.67,37.26L320,25.785L447.341,10.802" stroke="#4c78a8" stroke-width="2" stroke-dasharray="1,0"/></g></g><path class="foreground" aria-hidden="true" d="" display="none"/></g><g transform="translate(0,0)"><path class="background" aria-hidden="true" d="M0,0h640v320h-640Z"/><g><g class="mark-line role-mark layer_0_marks" role="graphics-object" aria-roledescription="line mark container"><path aria-label="clients in one room: 10; drift P95 (ms): 116.952807604; topology: 3 instances; load-gen self-skewed: false" role="graphics-symbol" aria-roledescription="line mark" d="M0,86.094L127.341,47.505L223.67,28.642L320,22.759L447.341,8.508" stroke="#f58518" stroke-width="2" stroke-dasharray="1,0"/></g></g><path class="foreground" aria-hidden="true" d="" display="none"/></g></g><g class="mark-symbol role-mark layer_1_marks" role="graphics-object" aria-roledescription="symbol mark container"><path aria-label="clients in one room: 10; drift P95 (ms): 115.624528316; topology: 1 instance; load-gen self-skewed: false" role="graphics-symbol" aria-roledescription="point" transform="translate(0,88.75094336827487)" d="M2.739,0A2.739,2.739,0,1,1,-2.739,0A2.739,2.739,0,1,1,2.739,0" fill="#4c78a8" stroke-width="2" stroke-dasharray="1,0" opacity="1"/><path aria-label="clients in one room: 10; drift P95 (ms): 116.952807604; topology: 3 instances; load-gen self-skewed: false" role="graphics-symbol" aria-roledescription="point" transform="translate(0,86.09438479219705)" d="M2.739,0A2.739,2.739,0,1,1,-2.739,0A2.739,2.739,0,1,1,2.739,0" fill="#f58518" stroke-width="2" stroke-dasharray="1,0" opacity="1"/><path aria-label="clients in one room: 25; drift P95 (ms): 122.200791947; topology: 1 instance; load-gen self-skewed: false" role="graphics-symbol" aria-roledescription="point" transform="translate(127.340802775052,75.59841610549938)" d="M2.739,0A2.739,2.739,0,1,1,-2.739,0A2.739,2.739,0,1,1,2.739,0" fill="#4c78a8" stroke-width="2" stroke-dasharray="1,0" opacity="1"/><path aria-label="clients in one room: 25; drift P95 (ms): 136.247269103; topology: 3 instances; load-gen self-skewed: false" role="graphics-symbol" aria-roledescription="point" transform="translate(127.340802775052,47.50546179463175)" d="M2.739,0A2.739,2.739,0,1,1,-2.739,0A2.739,2.739,0,1,1,2.739,0" fill="#f58518" stroke-width="2" stroke-dasharray="1,0" opacity="1"/><path aria-label="clients in one room: 50; drift P95 (ms): 141.370109731; topology: 1 instance; load-gen self-skewed: false" role="graphics-symbol" aria-roledescription="point" transform="translate(223.670401387526,37.25978053700601)" d="M2.739,0A2.739,2.739,0,1,1,-2.739,0A2.739,2.739,0,1,1,2.739,0" fill="#4c78a8" stroke-width="2" stroke-dasharray="1,0" opacity="1"/><path aria-label="clients in one room: 50; drift P95 (ms): 145.679017463; topology: 3 instances; load-gen self-skewed: false" role="graphics-symbol" aria-roledescription="point" transform="translate(223.670401387526,28.641965074434665)" d="M2.739,0A2.739,2.739,0,1,1,-2.739,0A2.739,2.739,0,1,1,2.739,0" fill="#f58518" stroke-width="2" stroke-dasharray="1,0" opacity="1"/><path aria-label="clients in one room: 100; drift P95 (ms): 147.107581291; topology: 1 instance; load-gen self-skewed: false" role="graphics-symbol" aria-roledescription="point" transform="translate(320.00000000000006,25.784837418264033)" d="M2.739,0A2.739,2.739,0,1,1,-2.739,0A2.739,2.739,0,1,1,2.739,0" fill="#4c78a8" stroke-width="2" stroke-dasharray="1,0" opacity="1"/><path aria-label="clients in one room: 100; drift P95 (ms): 148.620703231; topology: 3 instances; load-gen self-skewed: false" role="graphics-symbol" aria-roledescription="point" transform="translate(320.00000000000006,22.758593538419518)" d="M2.739,0A2.739,2.739,0,1,1,-2.739,0A2.739,2.739,0,1,1,2.739,0" fill="#f58518" stroke-width="2" stroke-dasharray="1,0" opacity="1"/><path aria-label="clients in one room: 250; drift P95 (ms): 154.599004887; topology: 1 instance; load-gen self-skewed: false" role="graphics-symbol" aria-roledescription="point" transform="translate(447.340802775052,10.801990225054396)" d="M2.739,0A2.739,2.739,0,1,1,-2.739,0A2.739,2.739,0,1,1,2.739,0" fill="#4c78a8" stroke-width="2" stroke-dasharray="1,0" opacity="1"/><path aria-label="clients in one room: 250; drift P95 (ms): 155.746112236; topology: 3 instances; load-gen self-skewed: false" role="graphics-symbol" aria-roledescription="point" transform="translate(447.340802775052,8.507775527796184)" d="M2.739,0A2.739,2.739,0,1,1,-2.739,0A2.739,2.739,0,1,1,2.739,0" fill="#f58518" stroke-width="2" stroke-dasharray="1,0" opacity="1"/></g><g class="mark-group role-legend" role="graphics-symbol" aria-roledescription="legend" aria-label="Symbol legend titled 'topology' for fill color and stroke color with 2 values: 1 instance, 3 instances"><g transform="translate(658,0)"><path class="background" aria-hidden="true" d="M0,0h104v45h-104Z" pointer-events="none"/><g><g class="mark-group role-legend-entry"><g transform="translate(0,16)"><path class="background" aria-hidden="true" d="M0,0h0v0h0Z" pointer-events="none"/><g><g class="mark-group role-scope" role="graphics-object" aria-roledescription="group mark container"><g transform="translate(0,0)"><path class="background" aria-hidden="true" d="M0,0h104v12.5h-104Z" pointer-events="none" opacity="1"/><g><g class="mark-symbol role-legend-symbol" pointer-events="none"><path transform="translate(6,6)" d="M5,0A5,5,0,1,1,-5,0A5,5,0,1,1,5,0" fill="#4c78a8" stroke="#4c78a8" stroke-width="1.5" opacity="1"/></g><g class="mark-text role-legend-label" pointer-events="none"><text text-anchor="start" transform="translate(16,9)" font-family="sans-serif" font-size="10px" fill="#000" opacity="1">1 instance</text></g></g><path class="foreground" aria-hidden="true" d="" pointer-events="none" display="none"/></g><g transform="translate(0,16)"><path class="background" aria-hidden="true" d="M0,0h104v12.5h-104Z" pointer-events="none" opacity="1"/><g><g class="mark-symbol role-legend-symbol" pointer-events="none"><path transform="translate(6,6)" d="M5,0A5,5,0,1,1,-5,0A5,5,0,1,1,5,0" fill="#f58518" stroke="#f58518" stroke-width="1.5" opacity="1"/></g><g class="mark-text role-legend-label" pointer-events="none"><text text-anchor="start" transform="translate(16,9)" font-family="sans-serif" font-size="10px" fill="#000" opacity="1">3 instances</text></g></g><path class="foreground" aria-hidden="true" d="" pointer-events="none" display="none"/></g></g></g><path class="foreground" aria-hidden="true" d="" pointer-events="none" display="none"/></g></g><g class="mark-text role-legend-title" pointer-events="none"><text text-anchor="start" transform="translate(0,9)" font-family="sans-serif" font-size="11px" font-weight="bold" fill="#000" opacity="1">topology</text></g></g><path class="foreground" aria-hidden="true" d="" pointer-events="none" display="none"/></g></g><g class="mark-group role-legend" role="graphics-symbol" aria-roledescription="legend" aria-label="Symbol legend titled 'load-gen self-skewed' for strokeDash with 1 value: false"><g transform="translate(658,53)"><path class="background" aria-hidden="true" d="M0,0h176v29h-176Z" pointer-events="none"/><g><g class="mark-group role-legend-entry"><g transform="translate(0,16)"><path class="background" aria-hidden="true" d="M0,0h0v0h0Z" pointer-events="none"/><g><g class="mark-group role-scope" role="graphics-object" aria-roledescription="group mark container"><g transform="translate(0,0)"><path class="background" aria-hidden="true" d="M0,0h56v12.5h-56Z" pointer-events="none" opacity="1"/><g><g class="mark-symbol role-legend-symbol" pointer-events="none"><path transform="translate(6,6)" d="M5,0A5,5,0,1,1,-5,0A5,5,0,1,1,5,0" fill="black" fill-opacity="1" stroke-width="1.5" stroke-dasharray="1,0" opacity="1"/></g><g class="mark-text role-legend-label" pointer-events="none"><text text-anchor="start" transform="translate(16,9)" font-family="sans-serif" font-size="10px" fill="#000" opacity="1">false</text></g></g><path class="foreground" aria-hidden="true" d="" pointer-events="none" display="none"/></g></g></g><path class="foreground" aria-hidden="true" d="" pointer-events="none" display="none"/></g></g><g class="mark-text role-legend-title" pointer-events="none"><text text-anchor="start" transform="translate(0,9)" font-family="sans-serif" font-size="11px" font-weight="bold" fill="#000" opacity="1">load-gen self-skewed</text></g></g><path class="foreground" aria-hidden="true" d="" pointer-events="none" display="none"/></g></g><g class="mark-group role-title"><g transform="translate(320,-22)"><path class="background" aria-hidden="true" d="M0,0h0v0h0Z" pointer-events="none"/><g><g class="mark-text role-title-text" role="graphics-symbol" aria-roledescription="title" aria-label="Title text 'protocol drift P95 vs room size — 1 vs 3 instances (120s cells)'" pointer-events="none"><text text-anchor="middle" transform="translate(0,10)" font-family="sans-serif" font-size="13px" font-weight="bold" fill="#000" opacity="1">protocol drift P95 vs room size — 1 vs 3 instances (120s cells)</text></g></g><path class="foreground" aria-hidden="true" d="" pointer-events="none" display="none"/></g></g></g><path class="foreground" aria-hidden="true" d="" display="none"/></g></g></g></svg>