<svg xmlns="http://www.w3.org/2000/svg" xmlns:xlink="http://www.w3.org/1999/xlink" version="1.1" class="marks" width="697" height="384" viewBox="0 0 697 384"><rect width="697" height="384" fill="white"/><g fill="none" stroke-miterlimit="10" transform="translate(51,27)"><g class="mark-group role-frame root" role="graphics-object" aria-roledescription="group mark container"><g transform="translate(0,0)"><path class="background" aria-hidden="true" d="M0.5,0.5h640v320h-640Z" stroke="#ddd"/><g><g class="mark-group role-axis" aria-hidden="true"><g transform="translate(0.5,320.5)"><path class="background" aria-hidden="true" d="M0,0h0v0h0Z" pointer-events="none"/><g><g class="mark-rule role-axis-grid" pointer-events="none"><line transform="translate(0,-320)" x2="0" y2="320" stroke="#ddd" stroke-width="1" opacity="1"/><line transform="translate(173,-320)" x2="0" y2="320" stroke="#ddd" stroke-width="1" opacity="1"/><line transform="translate(274,-320)" x2="0" y2="320" stroke="#ddd" stroke-width="1" opacity="1"/><line transform="translate(346,-320)" x2="0" y2="320" stroke="#ddd" stroke-width="1" opacity="1"/><line transform="translate(402,-320)" x2="0" y2="320" stroke="#ddd" stroke-width="1" opacity="1"/><line transform="translate(447,-320)" x2="0" y2="320" stroke="#ddd" stroke-width="1" opacity="1"/><line transform="translate(486,-320)" x2="0" y2="320" stroke="#ddd" stroke-width="1" opacity="1"/><line transform="translate(519,-320)" x2="0" y2="320" stroke="#ddd" stroke-width="1" opacity="1"/><line transform="translate(548,-320)" x2="0" y2="320" stroke="#ddd" stroke-width="1" opacity="1"/><line transform="translate(575,-320)" x2="0" y2="320" stroke="#ddd" stroke-width="1" opacity="1"/><line transform="translate(598,-320)" x2="0" y2="320" stroke="#ddd" stroke-width="1" opacity="1"/><line transform="translate(620,-320)" x2="0" y2="320" stroke="#ddd" stroke-width="1" opacity="1"/><line transform="translate(640,-320)" x2="0" y2="320" stroke="#ddd" stroke-width="1" opacity="1"/></g></g><path class="foreground" aria-hidden="true" d="" pointer-events="none" display="none"/></g></g><g class="mark-group role-axis" aria-hidden="true"><g transform="translate(0.5,0.5)"><path class="background" aria-hidden="true" d="M0,0h0v0h0Z" pointer-events="none"/><g><g class="mark-rule role-axis-grid" pointer-events="none"><line transform="translate(0,320)" x2="640" y2="0" stroke="#ddd" stroke-width="1" opacity="1"/><line transform="translate(0,288)" x2="640" y2="0" stroke="#ddd" stroke-width="1" opacity="1"/><line transform="translate(0,256)" x2="640" y2="0" stroke="#ddd" stroke-width="1" opacity="1"/><line transform="translate(0,224)" x2="640" y2="0" stroke="#ddd" stroke-width="1" opacity="1"/><line transform="translate(0,192)" x2="640" y2="0" stroke="#ddd" stroke-width="1" opacity="1"/><line transform="translate(0,160)" x2="640" y2="0" stroke="#ddd" stroke-width="1" opacity="1"/><line transform="translate(0,128)" x2="640" y2="0" stroke="#ddd" stroke-width="1" opacity="1"/><line transform="translate(0,96)" x2="640" y2="0" stroke="#ddd" stroke-width="1" opacity="1"/><line transform="translate(0,64)" x2="640" y2="0" stroke="#ddd" stroke-width="1" opacity="1"/><line transform="translate(0,32)" x2="640" y2="0" stroke="#ddd" stroke-width="1" opacity="1"/><line transform="translate(0,0)" x2="640" y2="0" stroke="#ddd" stroke-width="1" opacity="1"/></g></g><path class="foreground" aria-hidden="true" d="" pointer-events="none" display="none"/></g></g><g class="mark-group role-axis" role="graphics-symbol" aria-roledescription="axis" aria-label="X-axis titled 'pairwise |drift| (ms)' for a symlog scale with values from 0 to 1,200"><g transform="translate(0.5,320.5)"><path class="background" aria-hidden="true" d="M0,0h0v0h0Z" pointer-events="none"/><g><g class="mark-rule role-axis-tick" pointer-events="none"><line transform="translate(0,0)" x2="0" y2="5" stroke="#888" stroke-width="1" opacity="1"/><line transform="translate(173,0)" x2="0" y2="5" stroke="#888" stroke-width="1" opacity="1"/><line transform="translate(274,0)" x2="0" y2="5" stroke="#888" stroke-width="1" opacity="1"/><line transform="translate(346,0)" x2="0" y2="5" stroke="#888" stroke-width="1" opacity="1"/><line transform="translate(402,0)" x2="0" y2="5" stroke="#888" stroke-width="1" opacity="1"/><line transform="translate(447,0)" x2="0" y2="5" stroke="#888" stroke-width="1" opacity="1"/><line transform="translate(486,0)" x2="0" y2="5" stroke="#888" stroke-width="1" opacity="1"/><line transform="translate(519,0)" x2="0" y2="5" stroke="#888" stroke-width="1" opacity="1"/><line transform="translate(548,0)" x2="0" y2="5" stroke="#888" stroke-width="1" opacity="1"/><line transform="translate(575,0)" x2="0" y2="5" stroke="#888" stroke-width="1" opacity="1"/><line transform="translate(598,0)" x2="0" y2="5" stroke="#888" stroke-width="1" opacity="1"/><line transform="translate(620,0)" x2="0" y2="5" stroke="#888" stroke-width="1" opacity="1"/><line transform="translate(640,0)" x2="0" y2="5" stroke="#888" stroke-width="1" opacity="1"/></g><g class="mark-text role-axis-label" pointer-events="none"><text text-anchor="start" transform="translate(0,15)" font-family="sans-serif" font-size="10px" fill="#000" opacity="1">0</text><text text-anchor="middle" transform="translate(172.95241883348464,15)" font-family="sans-serif" font-size="10px" fill="#000" opacity="1">100</text><text text-anchor="middle" transform="translate(274.12309826009255,15)" font-family="sans-serif" font-size="10px" fill="#000" opacity="1">200</text><text text-anchor="middle" transform="translate(345.9048376669693,15)" font-family="sans-serif" font-size="10px" fill="#000" opacity="1">300</text><text text-anchor="middle" transform="translate(401.58308036819415,15)" font-family="sans-serif" font-size="10px" fill="#000" opacity="1">400</text><text text-anchor="middle" transform="translate(447.0755170935772,15)" font-family="sans-serif" font-size="10px" fill="#000" opacity="1">500</text><text text-anchor="middle" transform="translate(485.5388242939513,15)" font-family="sans-serif" font-size="10px" fill="#000" opacity="1">600</text><text text-anchor="middle" transform="translate(518.8572565004539,15)" font-family="sans-serif" font-size="10px" fill="#000" opacity="1">700</text><text text-anchor="middle" transform="translate(548.2461965201853,15)" font-family="sans-serif" font-size="10px" fill="#000" opacity="1">800</text><text text-anchor="middle" transform="translate(574.5354992016788,15)" font-family="sans-serif" font-size="10px" fill="#000" opacity="1">900</text><text text-anchor="middle" transform="translate(598.3170662323575,15)" font-family="sans-serif" font-size="10px" fill="#000" opacity="0">1,000</text><text text-anchor="middle" transform="translate(620.0279359270619,15)" font-family="sans-serif" font-size="10px" fill="#000" opacity="1">1,100</text><text text-anchor="end" transform="translate(640,15)" font-family="sans-serif" font-size="10px" fill="#000" opacity="0">1,200</text></g><g class="mark-rule role-axis-domain" pointer-events="none"><line transform="translate(0,0)" x2="640" y2="0" stroke="#888" stroke-width="1" opacity="1"/></g><g class="mark-text role-axis-title" pointer-events="none"><text text-anchor="middle" transform="translate(320,30)" font-family="sans-serif" font-size="11px" font-weight="bold" fill="#000" opacity="1">pairwise |drift| (ms)</text></g></g><path class="foreground" aria-hidden="true" d="" pointer-events="none" display="none"/></g></g><g class="mark-group role-axis" role="graphics-symbol" aria-roledescription="axis" aria-label="Y-axis titled 'CDF' for a linear scale with values from 0.0 to 1.0"><g transform="translate(0.5,0.5)"><path class="background" aria-hidden="true" d="M0,0h0v0h0Z" pointer-events="none"/><g><g class="mark-rule role-axis-tick" pointer-events="none"><line transform="translate(0,320)" x2="-5" y2="0" stroke="#888" stroke-width="1" opacity="1"/><line transform="translate(0,288)" x2="-5" y2="0" stroke="#888" stroke-width="1" opacity="1"/><line transform="translate(0,256)" x2="-5" y2="0" stroke="#888" stroke-width="1" opacity="1"/><line transform="translate(0,224)" x2="-5" y2="0" stroke="#888" stroke-width="1" opacity="1"/><line transform="translate(0,192)" x2="-5" y2="0" stroke="#888" stroke-width="1" opacity="1"/><line transform="translate(0,160)" x2="-5" y2="0" stroke="#888" stroke-width="1" opacity="1"/><line transform="translate(0,128)" x2="-5" y2="0" stroke="#888" stroke-width="1" opacity="1"/><line transform="translate(0,96)" x2="-5" y2="0" stroke="#888" stroke-width="1" opacity="1"/><line transform="translate(0,64)" x2="-5" y2="0" stroke="#888" stroke-width="1" opacity="1"/><line transform="translate(0,32)" x2="-5" y2="0" stroke="#888" stroke-width="1" opacity="1"/><line transform="translate(0,0)" x2="-5" y2="0" stroke="#888" stroke-width="1" opacity="1"/></g><g class="mark-text role-axis-label" pointer-events="none"><text text-anchor="end" transform="translate(-7,323)" font-family="sans-serif" font-size="10px" fill="#000" opacity="1">0.0</text><text text-anchor="end" transform="translate(-7,291)" font-family="sans-serif" font-size="10px" fill="#000" opacity="1">0.1</text><text text-anchor="end" transform="translate(-7,259)" font-family="sans-serif" font-size="10px" fill="#000" opacity="1">0.2</text><text text-anchor="end" transform="translate(-7,227)" font-family="sans-serif" font-size="10px" fill="#000" opacity="1">0.3</text><text text-anchor="end" transform="translate(-7,195)" font-family="sans-serif" font-size="10px" fill="#000" opacity="1">0.4</text><text text-anchor="end" transform="translate(-7,163)" font-family="sans-serif" font-size="10px" fill="#000" opacity="1">0.5</text><text text-anchor="end" transform="translate(-7,131)" font-family="sans-serif" font-size="10px" fill="#000" opacity="1">0.6</text><text text-anchor="end" transform="translate(-7,99.00000000000001)" font-family="sans-serif" font-size="10px" fill="#000" opacity="1">0.7</text><text text-anchor="end" transform="translate(-7,66.99999999999999)" font-family="sans-serif" font-size="10px" fill="#000" opacity="1">0.8</text><text text-anchor="end" transform="translate(-7,34.99999999999999)" font-family="sans-serif" font-size="10px" fill="#000" opacity="1">0.9</text><text text-anchor="end" transform="translate(-7,3)" font-family="sans-serif" font-size="10px" fill="#000" opacity="1">1.0</text></g><g class="mark-rule role-axis-domain" pointer-events="none"><line transform="translate(0,320)" x2="0" y2="-320" stroke="#888" stroke-width="1" opacity="1"/></g><g class="mark-text role-axis-title" pointer-events="none"><text text-anchor="middle" transform="translate(-35,160) rotate(-90) translate(0,-2)" font-family="sans-serif" font-size="11px" font-weight="bold" fill="#000" opacity="1">CDF</text></g></g><path class="foreground" aria-hidden="true" d="" pointer-events="none" display="none"/></g></g><g class="mark-line role-mark marks" role="graphics-object" aria-roledescription="line mark container"><path aria-label="pairwise |drift| (ms): 0.0495740707152; CDF: 0" role="graphics-symbol" aria-roledescription="line mark" d="M0.124,320L0.246,320L0.246,319.865L0.647,319.865L0.647,319.729L1.736,319.729L1.736,319.594L1.816,319.594L1.816,319.459L2.412,319.459L2.412,319.323L2.785,319.323L2.785,319.188L2.856,319.188L2.856,319.053L3.038,319.053L3.038,318.918L3.043,318.918L3.043,318.782L3.53,318.782L3.53,318.647L3.544,318.647L3.544,318.512L3.607,318.512L3.607,318.376L3.651,318.376L3.651,318.241L3.706,318.241L3.706,318.106L3.883,318.106L3.883,317.97L3.886,317.97L3.886,317.835L3.891,317.835L3.891,317.7L4.052,317.7L4.052,317.564L4.093,317.564L4.093,317.429L4.372,317.429L4.372,317.294L4.378,317.294L4.378,317.159L4.395,317.159L4.395,317.023L4.4,317.023L4.4,316.888L4.457,316.888L4.457,316.753L4.536,316.753L4.536,316.617L4.573,316.617L4.573,316.482L4.676,316.482L4.676,316.347L4.707,316.347L4.707,316.211L4.768,316.211L4.768,316.076L4.777,316.076L4.777,315.941L5.025,315.941L5.025,315.805L5.031,315.805L5.031,315.67L5.065,315.67L5.065,315.535L5.104,315.535L5.104,315.4L5.111,315.4L5.111,315.264L5.157,315.264L5.157,315.129L5.296,315.129L5.296,314.994L5.411,314.994L5.411,314.858L5.418,314.858L5.418,314.723L5.443,314.723L5.443,314.588L5.478,314.588L5.478,314.452L5.479,314.452L5.479,314.317L5.494,314.317L5.494,314.182L5.581,314.182L5.581,314.047L5.629,314.047L5.629,313.911L5.661,313.911L5.661,313.776L5.699,313.776L5.699,313.641L5.726,313.641L5.726,313.505L5.744,313.505L5.744,313.37L5.752,313.37L5.752,313.235L5.767,313.235L5.767,313.099L6.074,313.099L6.074,312.964L6.094,312.964L6.094,312.829L6.626,312.829L6.626,312.693L6.801,312.693L6.801,312.558L6.972,312.558L6.972,312.423L6.975,312.423L6.975,312.288L7.129,312.288L7.129,312.152L7.182,312.152L7.182,312.017L7.184,312.017L7.184,311.882L7.249,311.882L7.249,311.746L7.285,311.746L7.285,311.611L7.285,311.611L7.285,311.476L7.305,311.476L7.305,311.34L7.31,311.34L7.31,311.205L7.335,311.205L7.335,311.07L7.399,311.07L7.399,310.934L7.404,310.934L7.404,310.799L7.418,310.799L7.418,310.664L7.457,310.664L7.457,310.529L7.495,310.529L7.495,310.393L7.607,310.393L7.607,310.258L7.627,310.258L7.627,310.123L7.634,310.123L7.634,309.987L7.697,309.987L7.697,309.852L7.732,309.852L7.732,309.717L7.754,309.717L7.754,309.581L7.779,309.581L7.779,309.446L7.783,309.446L7.783,309.311L7.787,309.311L7.787,309.175L7.798,309.175L7.798,309.04L7.816,309.04L7.816,308.905L7.871,308.905L7.871,308.77L7.881,308.77L7.881,308.634L7.904,308.634L7.904,308.499L7.915,308.499L7.915,308.364L7.941,308.364L7.941,308.228L8.01,308.228L8.01,308.093L8.011,308.093L8.011,307.958L8.011,307.958L8.011,307.822L8.016,307.822L8.016,307.687L8.022,307.687L8.022,307.552L8.032,307.552L8.032,307.416L8.051,307.416L8.051,307.281L8.117,307.281L8.117,307.146L8.129,307.146L8.129,307.011L8.135,307.011L8.135,306.875L8.161,306.875L8.161,306.74L8.172,306.74L8.172,306.605L8.199,306.605L8.199,306.469L8.22,306.469L8.22,306.334L8.251,306.334L8.251,306.199L8.268,306.199L8.268,306.063L8.297,306.063L8.297,305.928L8.491,305.928L8.491,305.793L8.576,305.793L8.576,305.658L8.581,305.658L8.581,305.522L8.582,305.522L8.582,305.387L8.594,305.387L8.594,305.252L8.597,305.252L8.597,305.116L8.658,305.116L8.658,304.981L8.799,304.981L8.799,304.846L8.8,304.846L8.8,304.71L8.807,304.71L8.807,304.575L8.811,304.575L8.811,304.44L8.823,304.44L8.823,304.304L8.892,304.304L8.892,304.169L8.892,304.169L8.892,304.034L8.901,304.034L8.901,303.899L8.937,303.899L8.937,303.763L8.988,303.763L8.988,303.628L8.999,303.628L8.999,303.493L9.004,303.493L9.004,303.357L9.118,303.357L9.118,303.222L9.13,303.222L9.13,303.087L9.151,303.087L9.151,302.951L9.172,302.951L9.172,302.816L9.303,302.816L9.303,302.681L9.359,302.681L9.359,302.545L9.372,302.545L9.372,302.41L9.383,302.41L9.383,302.275L9.395,302.275L9.395,302.14L9.41,302.14L9.41,302.004L9.411,302.004L9.411,301.869L9.428,301.869L9.428,301.734L9.524,301.734L9.524,301.598L9.527,301.598L9.527,301.463L9.555,301.463L9.555,301.328L9.618,301.328L9.618,301.192L9.695,301.192L9.695,301.057L9.779,301.057L9.779,300.922L9.821,300.922L9.821,300.786L9.838,300.786L9.838,300.651L9.86,300.651L9.86,300.516L9.905,300.516L9.905,300.381L9.908,300.381L9.908,300.245L9.988,300.245L9.988,300.11L10.007,300.11L10.007,299.975L10.042,299.975L10.042,299.839L10.047,299.839L10.047,299.704L10.152,299.704L10.152,299.569L10.17,299.569L10.17,299.433L10.184,299.433L10.184,299.298L10.248,299.298L10.248,299.163L10.279,299.163L10.279,299.027L10.313,299.027L10.313,298.892L10.324,298.892L10.324,298.757L10.371,298.757L10.371,298.622L10.379,298.622L10.379,298.486L10.408,298.486L10.408,298.351L10.421,298.351L10.421,298.216L10.421,298.216L10.421,298.08L10.426,298.08L10.426,297.945L10.454,297.945L10.454,297.81L10.46,297.81L10.46,297.674L10.485,297.674L10.485,297.539L10.555,297.539L10.555,297.404L10.585,297.404L10.585,297.268L10.599,297.268L10.599,297.133L10.604,297.133L10.604,296.998L10.637,296.998L10.637,296.863L10.641,296.863L10.641,296.727L10.655,296.727L10.655,296.592L10.664,296.592L10.664,296.457L10.675,296.457L10.675,296.321L10.678,296.321L10.678,296.186L10.691,296.186L10.691,296.051L10.697,296.051L10.697,295.915L10.706,295.915L10.706,295.78L10.727,295.78L10.727,295.645L10.736,295.645L10.736,295.51L10.747,295.51L10.747,295.374L10.756,295.374L10.756,295.239L10.771,295.239L10.771,295.104L10.787,295.104L10.787,294.968L10.855,294.968L10.855,294.833L10.862,294.833L10.862,294.698L10.882,294.698L10.882,294.562L10.893,294.562L10.893,294.427L10.896,294.427L10.896,294.292L10.902,294.292L10.902,294.156L10.917,294.156L10.917,294.021L10.919,294.021L10.919,293.886L10.921,293.886L10.921,293.751L10.93,293.751L10.93,293.615L10.936,293.615L10.936,293.48L10.956,293.48L10.956,293.345L10.963,293.345L10.963,293.209L10.998,293.209L10.998,293.074L11.057,293.074L11.057,292.939L11.066,292.939L11.066,292.803L11.07,292.803L11.07,292.668L11.081,292.668L11.081,292.533L11.108,292.533L11.108,292.397L11.111,292.397L11.111,292.262L11.111,292.262L11.111,292.127L11.136,292.127L11.136,291.992L11.14,291.992L11.14,291.856L11.167,291.856L11.167,291.721L11.181,291.721L11.181,291.586L11.186,291.586L11.186,291.45L11.29,291.45L11.29,291.315L11.298,291.315L11.298,291.18L11.305,291.18L11.305,291.044L11.31,291.044L11.31,290.909L11.318,290.909L11.318,290.774L11.319,290.774L11.319,290.638L11.33,290.638L11.33,290.503L11.345,290.503L11.345,290.368L11.361,290.368L11.361,290.233L11.368,290.233L11.368,290.097L11.375,290.097L11.375,289.962L11.437,289.962L11.437,289.827L11.446,289.827L11.446,289.691L11.51,289.691L11.51,289.556L11.515,289.556L11.515,289.421L11.521,289.421L11.521,289.285L11.529,289.285L11.529,289.15L11.585,289.15L11.585,289.015L11.587,289.015L11.587,288.879L11.59,288.879L11.59,288.744L11.596,288.744L11.596,288.609L11.617,288.609L11.617,288.474L11.627,288.474L11.627,288.338L11.641,288.338L11.641,288.203L11.655,288.203L11.655,288.068L11.663,288.068L11.663,287.932L11.672,287.932L11.672,287.797L11.686,287.797L11.686,287.662L11.708,287.662L11.708,287.526L11.714,287.526L11.714,287.391L11.715,287.391L11.715,287.256L11.717,287.256L11.717,287.121L11.719,287.121L11.719,286.985L11.72,286.985L11.72,286.85L11.726,286.85L11.726,286.715L11.729,286.715L11.729,286.579L11.735,286.579L11.735,286.444L11.741,286.444L11.741,286.309L11.75,286.309L11.75,286.173L11.759,286.173L11.759,286.038L11.759,286.038L11.759,285.903L11.777,285.903L11.777,285.767L11.786,285.767L11.786,285.632L11.797,285.632L11.797,285.497L11.806,285.497L11.806,285.362L11.809,285.362L11.809,285.226L11.812,285.226L11.812,285.091L11.815,285.091L11.815,284.956L11.822,284.956L11.822,284.82L11.851,284.82L11.851,284.685L11.884,284.685L11.884,284.55L11.894,284.55L11.894,284.414L11.895,284.414L11.895,284.279L11.903,284.279L11.903,284.144L11.91,284.144L11.91,284.008L11.926,284.008L11.926,283.873L11.932,283.873L11.932,283.738L11.948,283.738L11.948,283.603L11.961,283.603L11.961,283.467L11.962,283.467L11.962,283.332L11.97,283.332L11.97,283.197L11.986,283.197L11.986,283.061L11.994,283.061L11.994,282.926L11.995,282.926L11.995,282.791L11.998,282.791L11.998,282.655L12.034,282.655L12.034,282.52L12.055,282.52L12.055,282.385L12.065,282.385L12.065,282.249L12.068,282.249L12.068,282.114L12.071,282.114L12.071,281.979L12.072,281.979L12.072,281.844L12.072,281.844L12.072,281.708L12.111,281.708L12.111,281.573L12.116,281.573L12.116,281.438L12.132,281.438L12.132,281.302L12.144,281.302L12.144,281.167L12.179,281.167L12.179,281.032L12.187,281.032L12.187,280.896L12.194,280.896L12.194,280.761L12.202,280.761L12.202,280.626L12.204,280.626L12.204,280.49L12.219,280.49L12.219,280.355L12.221,280.355L12.221,280.22L12.235,280.22L12.235,280.085L12.249,280.085L12.249,279.949L12.253,279.949L12.253,279.814L12.286,279.814L12.286,279.679L12.292,279.679L12.292,279.543L12.309,279.543L12.309,279.408L12.313,279.408L12.313,279.273L12.326,279.273L12.326,279.137L12.327,279.137L12.327,279.002L12.329,279.002L12.329,278.867L12.338,278.867L12.338,278.732L12.354,278.732L12.354,278.596L12.36,278.596L12.36,278.461L12.369,278.461L12.369,278.326L12.389,278.326L12.389,278.19L12.41,278.19L12.41,278.055L12.419,278.055L12.419,277.92L12.425,277.92L12.425,277.784L12.431,277.784L12.431,277.649L12.442,277.649L12.442,277.514L12.46,277.514L12.46,277.378L12.467,277.378L12.467,277.243L12.475,277.243L12.475,277.108L12.495,277.108L12.495,276.973L12.5,276.973L12.5,276.837L12.536,276.837L12.536,276.702L12.552,276.702L12.552,276.567L12.563,276.567L12.563,276.431L12.586,276.431L12.586,276.296L12.604,276.296L12.604,276.161L12.622,276.161L12.622,276.025L12.627,276.025L12.627,275.89L12.635,275.89L12.635,275.755L12.666,275.755L12.666,275.619L12.672,275.619L12.672,275.484L12.697,275.484L12.697,275.349L12.7,275.349L12.7,275.214L12.718,275.214L12.718,275.078L12.745,275.078L12.745,274.943L12.745,274.943L12.745,274.808L12.751,274.808L12.751,274.672L12.772,274.672L12.772,274.537L12.791,274.537L12.791,274.402L12.792,274.402L12.792,274.266L12.811,274.266L12.811,274.131L12.855,274.131L12.855,273.996L12.868,273.996L12.868,273.86L12.875,273.86L12.875,273.725L12.893,273.725L12.893,273.59L12.912,273.59L12.912,273.455L12.917,273.455L12.917,273.319L12.928,273.319L12.928,273.184L12.931,273.184L12.931,273.049L12.935,273.049L12.935,272.913L12.941,272.913L12.941,272.778L12.948,272.778L12.948,272.643L12.984,272.643L12.984,272.507L13.027,272.507L13.027,272.372L13.041,272.372L13.041,272.237L13.05,272.237L13.05,272.101L13.053,272.101L13.053,271.966L13.07,271.966L13.07,271.831L13.077,271.831L13.077,271.696L13.112,271.696L13.112,271.56L13.161,271.56L13.161,271.425L13.193,271.425L13.193,271.29L13.212,271.29L13.212,271.154L13.226,271.154L13.226,271.019L13.239,271.019L13.239,270.884L13.261,270.884L13.261,270.748L13.27,270.748L13.27,270.613L13.291,270.613L13.291,270.478L13.31,270.478L13.31,270.342L13.342,270.342L13.342,270.207L13.403,270.207L13.403,270.072L13.404,270.072L13.404,269.937L13.423,269.937L13.423,269.801L13.433,269.801L13.433,269.666L13.442,269.666L13.442,269.531L13.492,269.531L13.492,269.395L13.547,269.395L13.547,269.26L13.552,269.26L13.552,269.125L13.614,269.125L13.614,268.989L13.646,268.989L13.646,268.854L13.702,268.854L13.702,268.719L13.709,268.719L13.709,268.584L13.711,268.584L13.711,268.448L13.722,268.448L13.722,268.313L13.756,268.313L13.756,268.178L13.768,268.178L13.768,268.042L13.778,268.042L13.778,267.907L13.824,267.907L13.824,267.772L13.832,267.772L13.832,267.636L13.885,267.636L13.885,267.501L13.924,267.501L13.924,267.366L13.947,267.366L13.947,267.23L13.949,267.23L13.949,267.095L13.955,267.095L13.955,266.96L13.968,266.96L13.968,266.825L13.977,266.825L13.977,266.689L14.009,266.689L14.009,266.554L14.023,266.554L14.023,266.419L14.057,266.419L14.057,266.283L14.076,266.283L14.076,266.148L14.079,266.148L14.079,266.013L14.108,266.013L14.108,265.877L14.124,265.877L14.124,265.742L14.129,265.742L14.129,265.607L14.174,265.607L14.174,265.471L14.236,265.471L14.236,265.336L14.263,265.336L14.263,265.201L14.269,265.201L14.269,265.066L14.275,265.066L14.275,264.93L14.288,264.93L14.288,264.795L14.297,264.795L14.297,264.66L14.31,264.66L14.31,264.524L14.406,264.524L14.406,264.389L14.64,264.389L14.64,264.254L14.653,264.254L14.653,264.118L14.703,264.118L14.703,263.983L14.901,263.983L14.901,263.848L14.941,263.848L14.941,263.712L14.951,263.712L14.951,263.577L14.972,263.577L14.972,263.442L15.009,263.442L15.009,263.307L15.04,263.307L15.04,263.171L15.094,263.171L15.094,263.036L15.17,263.036L15.17,262.901L15.238,262.901L15.238,262.765L15.391,262.765L15.391,262.63L15.476,262.63L15.476,262.495L15.507,262.495L15.507,262.359L15.583,262.359L15.583,262.224L15.648,262.224L15.648,262.089L15.704,262.089L15.704,261.953L16.105,261.953L16.105,261.818L16.111,261.818L16.111,261.683L16.151,261.683L16.151,261.548L16.175,261.548L16.175,261.412L16.292,261.412L16.292,261.277L16.48,261.277L16.48,261.142L16.592,261.142L16.592,261.006L16.897,261.006L16.897,260.871L16.967,260.871L16.967,260.736L17.047,260.736L17.047,260.6L17.109,260.6L17.109,260.465L17.141,260.465L17.141,260.33L17.335,260.33L17.335,260.195L17.602,260.195L17.602,260.059L17.626,260.059L17.626,259.924L17.791,259.924L17.791,259.789L17.814,259.789L17.814,259.653L17.855,259.653L17.855,259.518L17.862,259.518L17.862,259.383L17.884,259.383L17.884,259.247L17.913,259.247L17.913,259.112L17.922,259.112L17.922,258.977L17.926,258.977L17.926,258.841L17.952,258.841L17.952,258.706L18.1,258.706L18.1,258.571L18.126,258.571L18.126,258.436L18.189,258.436L18.189,258.3L18.213,258.3L18.213,258.165L18.302,258.165L18.302,258.03L18.328,258.03L18.328,257.894L18.474,257.894L18.474,257.759L18.482,257.759L18.482,257.624L18.484,257.624L18.484,257.488L18.534,257.488L18.534,257.353L18.624,257.353L18.624,257.218L18.627,257.218L18.627,257.082L18.631,257.082L18.631,256.947L18.69,256.947L18.69,256.812L18.713,256.812L18.713,256.677L18.733,256.677L18.733,256.541L18.905,256.541L18.905,256.406L18.906,256.406L18.906,256.271L18.972,256.271L18.972,256.135L19.001,256.135L19.001,256L19.096,256L19.096,255.865L19.125,255.865L19.125,255.729L19.22,255.729L19.22,255.594L19.262,255.594L19.262,255.459L19.265,255.459L19.265,255.323L19.302,255.323L19.302,255.188L19.309,255.188L19.309,255.053L19.314,255.053L19.314,254.918L19.316,254.918L19.316,254.782L19.335,254.782L19.335,254.647L19.399,254.647L19.399,254.512L19.419,254.512L19.419,254.376L19.469,254.376L19.469,254.241L19.472,254.241L19.472,254.106L19.478,254.106L19.478,253.97L19.484,253.97L19.484,253.835L19.556,253.835L19.556,253.7L19.582,253.7L19.582,253.564L19.619,253.564L19.619,253.429L19.708,253.429L19.708,253.294L19.801,253.294L19.801,253.159L19.906,253.159L19.906,253.023L20.206,253.023L20.206,252.888L20.249,252.888L20.249,252.753L20.278,252.753L20.278,252.617L20.473,252.617L20.473,252.482L20.479,252.482L20.479,252.347L20.802,252.347L20.802,252.211L21.025,252.211L21.025,252.076L21.374,252.076L21.374,251.941L21.6,251.941L21.6,251.805L21.872,251.805L21.872,251.67L21.973,251.67L21.973,251.535L21.997,251.535L21.997,251.4L22.015,251.4L22.015,251.264L22.062,251.264L22.062,251.129L22.068,251.129L22.068,250.994L22.079,250.994L22.079,250.858L22.133,250.858L22.133,250.723L22.176,250.723L22.176,250.588L22.202,250.588L22.202,250.452L22.233,250.452L22.233,250.317L22.238,250.317L22.238,250.182L22.279,250.182L22.279,250.047L22.291,250.047L22.291,249.911L22.305,249.911L22.305,249.776L22.345,249.776L22.345,249.641L22.376,249.641L22.376,249.505L22.47,249.505L22.47,249.37L22.528,249.37L22.528,249.235L22.568,249.235L22.568,249.099L22.596,249.099L22.596,248.964L22.643,248.964L22.643,248.829L22.704,248.829L22.704,248.693L22.757,248.693L22.757,248.558L22.761,248.558L22.761,248.423L22.803,248.423L22.803,248.288L23.003,248.288L23.003,248.152L23.04,248.152L23.04,248.017L23.103,248.017L23.103,247.882L23.126,247.882L23.126,247.746L23.231,247.746L23.231,247.611L23.241,247.611L23.241,247.476L23.289,247.476L23.289,247.34L23.351,247.34L23.351,247.205L23.406,247.205L23.406,247.07L23.428,247.07L23.428,246.934L23.462,246.934L23.462,246.799L23.512,246.799L23.512,246.664L23.519,246.664L23.519,246.529L23.677,246.529L23.677,246.393L23.687,246.393L23.687,246.258L23.807,246.258L23.807,246.123L23.845,246.123L23.845,245.987L23.854,245.987L23.854,245.852L23.881,245.852L23.881,245.717L23.964,245.717L23.964,245.581L23.966,245.581L23.966,245.446L23.975,245.446L23.975,245.311L23.977,245.311L23.977,245.175L24.098,245.175L24.098,245.04L24.276,245.04L24.276,244.905L24.358,244.905L24.358,244.77L24.695,244.77L24.695,244.634L24.858,244.634L24.858,244.499L24.94,244.499L24.94,244.364L25.026,244.364L25.026,244.228L25.141,244.228L25.141,244.093L25.328,244.093L25.328,243.958L25.65,243.958L25.65,243.822L26.193,243.822L26.193,243.687L26.465,243.687L26.465,243.552L27.003,243.552L27.003,243.416L27.56,243.416L27.56,243.281L27.851,243.281L27.851,243.146L28.263,243.146L28.263,243.011L30.519,243.011L30.519,242.875L31.224,242.875L31.224,242.74L31.364,242.74L31.364,242.605L31.507,242.605L31.507,242.469L31.707,242.469L31.707,242.334L32.51,242.334L32.51,242.199L33.653,242.199L33.653,242.063L33.929,242.063L33.929,241.928L34.087,241.928L34.087,241.793L34.357,241.793L34.357,241.658L34.37,241.658L34.37,241.522L34.376,241.522L34.376,241.387L34.382,241.387L34.382,241.252L34.632,241.252L34.632,241.116L34.8,241.116L34.8,240.981L34.891,240.981L34.891,240.846L34.993,240.846L34.993,240.71L35.019,240.71L35.019,240.575L35.175,240.575L35.175,240.44L35.177,240.44L35.177,240.304L35.201,240.304L35.201,240.169L35.259,240.169L35.259,240.034L35.31,240.034L35.31,239.899L35.379,239.899L35.379,239.763L35.423,239.763L35.423,239.628L35.475,239.628L35.475,239.493L35.608,239.493L35.608,239.357L35.64,239.357L35.64,239.222L35.666,239.222L35.666,239.087L35.949,239.087L35.949,238.951L35.964,238.951L35.964,238.816L36.006,238.816L36.006,238.681L36.076,238.681L36.076,238.545L36.088,238.545L36.088,238.41L36.386,238.41L36.386,238.275L36.412,238.275L36.412,238.14L36.51,238.14L36.51,238.004L36.587,238.004L36.587,237.869L36.596,237.869L36.596,237.734L36.616,237.734L36.616,237.598L36.635,237.598L36.635,237.463L36.697,237.463L36.697,237.328L36.711,237.328L36.711,237.192L36.747,237.192L36.747,237.057L36.777,237.057L36.777,236.922L36.83,236.922L36.83,236.786L36.835,236.786L36.835,236.651L36.842,236.651L36.842,236.516L36.966,236.516L36.966,236.381L37.032,236.381L37.032,236.245L37.053,236.245L37.053,236.11L37.124,236.11L37.124,235.975L37.152,235.975L37.152,235.839L37.188,235.839L37.188,235.704L37.224,235.704L37.224,235.569L37.275,235.569L37.275,235.433L37.295,235.433L37.295,235.298L37.372,235.298L37.372,235.163L37.378,235.163L37.378,235.027L37.448,235.027L37.448,234.892L37.559,234.892L37.559,234.757L37.581,234.757L37.581,234.622L37.585,234.622L37.585,234.486L37.619,234.486L37.619,234.351L37.636,234.351L37.636,234.216L37.649,234.216L37.649,234.08L37.683,234.08L37.683,233.945L37.728,233.945L37.728,233.81L37.752,233.81L37.752,233.674L37.777,233.674L37.777,233.539L37.824,233.539L37.824,233.404L37.83,233.404L37.83,233.268L37.925,233.268L37.925,233.133L37.932,233.133L37.932,232.998L37.934,232.998L37.934,232.863L37.943,232.863L37.943,232.727L37.949,232.727L37.949,232.592L38.041,232.592L38.041,232.457L38.064,232.457L38.064,232.321L38.065,232.321L38.065,232.186L38.083,232.186L38.083,232.051L38.144,232.051L38.144,231.915L38.15,231.915L38.15,231.78L38.167,231.78L38.167,231.645L38.199,231.645L38.199,231.51L38.252,231.51L38.252,231.374L38.31,231.374L38.31,231.239L38.312,231.239L38.312,231.104L38.336,231.104L38.336,230.968L38.398,230.968L38.398,230.833L38.4,230.833L38.4,230.698L38.435,230.698L38.435,230.562L38.441,230.562L38.441,230.427L38.484,230.427L38.484,230.292L38.515,230.292L38.515,230.156L38.531,230.156L38.531,230.021L38.602,230.021L38.602,229.886L38.723,229.886L38.723,229.751L38.724,229.751L38.724,229.615L38.763,229.615L38.763,229.48L38.789,229.48L38.789,229.345L38.812,229.345L38.812,229.209L38.816,229.209L38.816,229.074L38.873,229.074L38.873,228.939L38.91,228.939L38.91,228.803L38.97,228.803L38.97,228.668L38.982,228.668L38.982,228.533L39.023,228.533L39.023,228.397L39.087,228.397L39.087,228.262L39.188,228.262L39.188,228.127L39.201,228.127L39.201,227.992L39.255,227.992L39.255,227.856L39.269,227.856L39.269,227.721L39.312,227.721L39.312,227.586L39.328,227.586L39.328,227.45L39.331,227.45L39.331,227.315L39.332,227.315L39.332,227.18L39.362,227.18L39.362,227.044L39.433,227.044L39.433,226.909L39.453,226.909L39.453,226.774L39.456,226.774L39.456,226.638L39.463,226.638L39.463,226.503L39.498,226.503L39.498,226.368L39.535,226.368L39.535,226.233L39.56,226.233L39.56,226.097L39.583,226.097L39.583,225.962L39.643,225.962L39.643,225.827L39.693,225.827L39.693,225.691L39.703,225.691L39.703,225.556L39.77,225.556L39.77,225.421L39.807,225.421L39.807,225.285L39.807,225.285L39.807,225.15L39.83,225.15L39.83,225.015L39.906,225.015L39.906,224.879L39.908,224.879L39.908,224.744L39.946,224.744L39.946,224.609L39.991,224.609L39.991,224.474L40.011,224.474L40.011,224.338L40.145,224.338L40.145,224.203L40.178,224.203L40.178,224.068L40.233,224.068L40.233,223.932L40.249,223.932L40.249,223.797L40.333,223.797L40.333,223.662L40.353,223.662L40.353,223.526L40.419,223.526L40.419,223.391L40.445,223.391L40.445,223.256L40.46,223.256L40.46,223.121L40.526,223.121L40.526,222.985L40.572,222.985L40.572,222.85L40.636,222.85L40.636,222.715L40.666,222.715L40.666,222.579L40.704,222.579L40.704,222.444L40.813,222.444L40.813,222.309L40.829,222.309L40.829,222.173L40.833,222.173L40.833,222.038L40.987,222.038L40.987,221.903L41.016,221.903L41.016,221.767L41.025,221.767L41.025,221.632L41.125,221.632L41.125,221.497L41.165,221.497L41.165,221.362L41.168,221.362L41.168,221.226L41.181,221.226L41.181,221.091L41.194,221.091L41.194,220.956L41.236,220.956L41.236,220.82L41.287,220.82L41.287,220.685L41.37,220.685L41.37,220.55L41.479,220.55L41.479,220.414L41.528,220.414L41.528,220.279L41.53,220.279L41.53,220.144L41.754,220.144L41.754,220.008L41.773,220.008L41.773,219.873L41.789,219.873L41.789,219.738L41.813,219.738L41.813,219.603L41.911,219.603L41.911,219.467L41.962,219.467L41.962,219.332L41.98,219.332L41.98,219.197L41.991,219.197L41.991,219.061L41.993,219.061L41.993,218.926L42.011,218.926L42.011,218.791L42.085,218.791L42.085,218.655L42.132,218.655L42.132,218.52L42.339,218.52L42.339,218.385L42.348,218.385L42.348,218.249L42.35,218.249L42.35,218.114L42.437,218.114L42.437,217.979L42.461,217.979L42.461,217.844L42.578,217.844L42.578,217.708L42.651,217.708L42.651,217.573L42.727,217.573L42.727,217.438L42.886,217.438L42.886,217.302L43.033,217.302L43.033,217.167L43.081,217.167L43.081,217.032L43.332,217.032L43.332,216.896L43.388,216.896L43.388,216.761L43.484,216.761L43.484,216.626L43.785,216.626L43.785,216.49L43.829,216.49L43.829,216.355L44.076,216.355L44.076,216.22L44.339,216.22L44.339,216.085L44.465,216.085L44.465,215.949L44.564,215.949L44.564,215.814L44.941,215.814L44.941,215.679L45.01,215.679L45.01,215.543L45.108,215.543L45.108,215.408L45.119,215.408L45.119,215.273L45.367,215.273L45.367,215.137L45.528,215.137L45.528,215.002L45.59,215.002L45.59,214.867L45.595,214.867L45.595,214.732L45.71,214.732L45.71,214.596L45.721,214.596L45.721,214.461L45.835,214.461L45.835,214.326L45.863,214.326L45.863,214.19L45.871,214.19L45.871,214.055L45.881,214.055L45.881,213.92L45.895,213.92L45.895,213.784L45.932,213.784L45.932,213.649L46.01,213.649L46.01,213.514L46.047,213.514L46.047,213.378L46.056,213.378L46.056,213.243L46.083,213.243L46.083,213.108L46.115,213.108L46.115,212.973L46.147,212.973L46.147,212.837L46.223,212.837L46.223,212.702L46.235,212.702L46.235,212.567L46.243,212.567L46.243,212.431L46.281,212.431L46.281,212.296L46.303,212.296L46.303,212.161L46.334,212.161L46.334,212.025L46.371,212.025L46.371,211.89L46.39,211.89L46.39,211.755L46.391,211.755L46.391,211.619L46.417,211.619L46.417,211.484L46.437,211.484L46.437,211.349L46.438,211.349L46.438,211.214L46.451,211.214L46.451,211.078L46.459,211.078L46.459,210.943L46.465,210.943L46.465,210.808L46.476,210.808L46.476,210.672L46.487,210.672L46.487,210.537L46.493,210.537L46.493,210.402L46.503,210.402L46.503,210.266L46.583,210.266L46.583,210.131L46.66,210.131L46.66,209.996L46.663,209.996L46.663,209.86L46.678,209.86L46.678,209.725L46.705,209.725L46.705,209.59L46.706,209.59L46.706,209.455L46.728,209.455L46.728,209.319L46.748,209.319L46.748,209.184L46.779,209.184L46.779,209.049L46.792,209.049L46.792,208.913L46.795,208.913L46.795,208.778L46.813,208.778L46.813,208.643L46.815,208.643L46.815,208.507L46.816,208.507L46.816,208.372L46.83,208.372L46.83,208.237L46.863,208.237L46.863,208.101L46.886,208.101L46.886,207.966L46.942,207.966L46.942,207.831L46.957,207.831L46.957,207.696L46.983,207.696L46.983,207.56L46.985,207.56L46.985,207.425L46.988,207.425L46.988,207.29L46.99,207.29L46.99,207.154L47.051,207.154L47.051,207.019L47.051,207.019L47.051,206.884L47.053,206.884L47.053,206.748L47.053,206.748L47.053,206.613L47.067,206.613L47.067,206.478L47.074,206.478L47.074,206.342L47.079,206.342L47.079,206.207L47.123,206.207L47.123,206.072L47.126,206.072L47.126,205.937L47.222,205.937L47.222,205.801L47.243,205.801L47.243,205.666L47.252,205.666L47.252,205.531L47.287,205.531L47.287,205.395L47.289,205.395L47.289,205.26L47.362,205.26L47.362,205.125L47.365,205.125L47.365,204.989L47.397,204.989L47.397,204.854L47.403,204.854L47.403,204.719L47.412,204.719L47.412,204.584L47.445,204.584L47.445,204.448L47.483,204.448L47.483,204.313L47.502,204.313L47.502,204.178L47.512,204.178L47.512,204.042L47.521,204.042L47.521,203.907L47.529,203.907L47.529,203.772L47.541,203.772L47.541,203.636L47.561,203.636L47.561,203.501L47.578,203.501L47.578,203.366L47.58,203.366L47.58,203.23L47.59,203.23L47.59,203.095L47.59,203.095L47.59,202.96L47.604,202.96L47.604,202.825L47.607,202.825L47.607,202.689L47.625,202.689L47.625,202.554L47.626,202.554L47.626,202.419L47.642,202.419L47.642,202.283L47.663,202.283L47.663,202.148L47.673,202.148L47.673,202.013L47.709,202.013L47.709,201.877L47.724,201.877L47.724,201.742L47.724,201.742L47.724,201.607L47.724,201.607L47.724,201.471L47.729,201.471L47.729,201.336L47.732,201.336L47.732,201.201L47.734,201.201L47.734,201.066L47.754,201.066L47.754,200.93L47.765,200.93L47.765,200.795L47.773,200.795L47.773,200.66L47.789,200.66L47.789,200.524L47.789,200.524L47.789,200.389L47.806,200.389L47.806,200.254L47.809,200.254L47.809,200.118L47.818,200.118L47.818,199.983L47.818,199.983L47.818,199.848L47.823,199.848L47.823,199.712L47.869,199.712L47.869,199.577L47.935,199.577L47.935,199.442L47.936,199.442L47.936,199.307L47.938,199.307L47.938,199.171L47.946,199.171L47.946,199.036L47.964,199.036L47.964,198.901L47.967,198.901L47.967,198.765L47.992,198.765L47.992,198.63L48.011,198.63L48.011,198.495L48.035,198.495L48.035,198.359L48.069,198.359L48.069,198.224L48.085,198.224L48.085,198.089L48.099,198.089L48.099,197.953L48.105,197.953L48.105,197.818L48.111,197.818L48.111,197.683L48.112,197.683L48.112,197.548L48.159,197.548L48.159,197.412L48.162,197.412L48.162,197.277L48.199,197.277L48.199,197.142L48.2,197.142L48.2,197.006L48.229,197.006L48.229,196.871L48.285,196.871L48.285,196.736L48.306,196.736L48.306,196.6L48.322,196.6L48.322,196.465L48.323,196.465L48.323,196.33L48.339,196.33L48.339,196.195L48.352,196.195L48.352,196.059L48.359,196.059L48.359,195.924L48.36,195.924L48.36,195.789L48.369,195.789L48.369,195.653L48.392,195.653L48.392,195.518L48.419,195.518L48.419,195.383L48.431,195.383L48.431,195.247L48.451,195.247L48.451,195.112L48.486,195.112L48.486,194.977L48.505,194.977L48.505,194.841L48.51,194.841L48.51,194.706L48.516,194.706L48.516,194.571L48.536,194.571L48.536,194.436L48.541,194.436L48.541,194.3L48.548,194.3L48.548,194.165L48.551,194.165L48.551,194.03L48.564,194.03L48.564,193.894L48.569,193.894L48.569,193.759L48.579,193.759L48.579,193.624L48.589,193.624L48.589,193.488L48.595,193.488L48.595,193.353L48.601,193.353L48.601,193.218L48.605,193.218L48.605,193.082L48.62,193.082L48.62,192.947L48.624,192.947L48.624,192.812L48.627,192.812L48.627,192.677L48.635,192.677L48.635,192.541L48.639,192.541L48.639,192.406L48.661,192.406L48.661,192.271L48.674,192.271L48.674,192.135L48.677,192.135L48.677,192L48.678,192L48.678,191.865L48.699,191.865L48.699,191.729L48.712,191.729L48.712,191.594L48.721,191.594L48.721,191.459L48.726,191.459L48.726,191.323L48.744,191.323L48.744,191.188L48.747,191.188L48.747,191.053L48.748,191.053L48.748,190.918L48.78,190.918L48.78,190.782L48.817,190.782L48.817,190.647L48.82,190.647L48.82,190.512L48.828,190.512L48.828,190.376L48.846,190.376L48.846,190.241L48.849,190.241L48.849,190.106L48.895,190.106L48.895,189.97L48.912,189.97L48.912,189.835L48.913,189.835L48.913,189.7L48.921,189.7L48.921,189.564L48.944,189.564L48.944,189.429L48.963,189.429L48.963,189.294L48.979,189.294L48.979,189.159L48.984,189.159L48.984,189.023L49.014,189.023L49.014,188.888L49.029,188.888L49.029,188.753L49.058,188.753L49.058,188.617L49.07,188.617L49.07,188.482L49.079,188.482L49.079,188.347L49.1,188.347L49.1,188.211L49.115,188.211L49.115,188.076L49.127,188.076L49.127,187.941L49.153,187.941L49.153,187.805L49.166,187.805L49.166,187.67L49.174,187.67L49.174,187.535L49.176,187.535L49.176,187.4L49.179,187.4L49.179,187.264L49.185,187.264L49.185,187.129L49.191,187.129L49.191,186.994L49.225,186.994L49.225,186.858L49.228,186.858L49.228,186.723L49.228,186.723L49.228,186.588L49.242,186.588L49.242,186.452L49.243,186.452L49.243,186.317L49.255,186.317L49.255,186.182L49.269,186.182L49.269,186.047L49.27,186.047L49.27,185.911L49.28,185.911L49.28,185.776L49.283,185.776L49.283,185.641L49.291,185.641L49.291,185.505L49.293,185.505L49.293,185.37L49.294,185.37L49.294,185.235L49.324,185.235L49.324,185.099L49.331,185.099L49.331,184.964L49.346,184.964L49.346,184.829L49.355,184.829L49.355,184.693L49.374,184.693L49.374,184.558L49.38,184.558L49.38,184.423L49.396,184.423L49.396,184.288L49.41,184.288L49.41,184.152L49.411,184.152L49.411,184.017L49.453,184.017L49.453,183.882L49.47,183.882L49.47,183.746L49.471,183.746L49.471,183.611L49.471,183.611L49.471,183.476L49.471,183.476L49.471,183.34L49.474,183.34L49.474,183.205L49.48,183.205L49.48,183.07L49.51,183.07L49.51,182.934L49.537,182.934L49.537,182.799L49.539,182.799L49.539,182.664L49.572,182.664L49.572,182.529L49.577,182.529L49.577,182.393L49.58,182.393L49.58,182.258L49.585,182.258L49.585,182.123L49.62,182.123L49.62,181.987L49.637,181.987L49.637,181.852L49.661,181.852L49.661,181.717L49.667,181.717L49.667,181.581L49.671,181.581L49.671,181.446L49.679,181.446L49.679,181.311L49.699,181.311L49.699,181.175L49.723,181.175L49.723,181.04L49.728,181.04L49.728,180.905L49.733,180.905L49.733,180.77L49.735,180.77L49.735,180.634L49.744,180.634L49.744,180.499L49.768,180.499L49.768,180.364L49.773,180.364L49.773,180.228L49.795,180.228L49.795,180.093L49.799,180.093L49.799,179.958L49.819,179.958L49.819,179.822L49.89,179.822L49.89,179.687L49.891,179.687L49.891,179.552L49.893,179.552L49.893,179.416L49.9,179.416L49.9,179.281L49.904,179.281L49.904,179.146L49.932,179.146L49.932,179.011L49.944,179.011L49.944,178.875L49.947,178.875L49.947,178.74L49.953,178.74L49.953,178.605L49.958,178.605L49.958,178.469L49.96,178.469L49.96,178.334L49.969,178.334L49.969,178.199L49.988,178.199L49.988,178.063L50.026,178.063L50.026,177.928L50.027,177.928L50.027,177.793L50.033,177.793L50.033,177.658L50.034,177.658L50.034,177.522L50.048,177.522L50.048,177.387L50.063,177.387L50.063,177.252L50.064,177.252L50.064,177.116L50.083,177.116L50.083,176.981L50.097,176.981L50.097,176.846L50.099,176.846L50.099,176.71L50.111,176.71L50.111,176.575L50.116,176.575L50.116,176.44L50.142,176.44L50.142,176.304L50.142,176.304L50.142,176.169L50.149,176.169L50.149,176.034L50.153,176.034L50.153,175.899L50.156,175.899L50.156,175.763L50.182,175.763L50.182,175.628L50.192,175.628L50.192,175.493L50.199,175.493L50.199,175.357L50.225,175.357L50.225,175.222L50.242,175.222L50.242,175.087L50.246,175.087L50.246,174.951L50.247,174.951L50.247,174.816L50.259,174.816L50.259,174.681L50.268,174.681L50.268,174.545L50.278,174.545L50.278,174.41L50.29,174.41L50.29,174.275L50.303,174.275L50.303,174.14L50.306,174.14L50.306,174.004L50.339,174.004L50.339,173.869L50.35,173.869L50.35,173.734L50.375,173.734L50.375,173.598L50.378,173.598L50.378,173.463L50.396,173.463L50.396,173.328L50.406,173.328L50.406,173.192L50.434,173.192L50.434,173.057L50.435,173.057L50.435,172.922L50.438,172.922L50.438,172.786L50.441,172.786L50.441,172.651L50.451,172.651L50.451,172.516L50.481,172.516L50.481,172.381L50.491,172.381L50.491,172.245L50.515,172.245L50.515,172.11L50.536,172.11L50.536,171.975L50.546,171.975L50.546,171.839L50.548,171.839L50.548,171.704L50.557,171.704L50.557,171.569L50.569,171.569L50.569,171.433L50.569,171.433L50.569,171.298L50.57,171.298L50.57,171.163L50.581,171.163L50.581,171.027L50.593,171.027L50.593,170.892L50.612,170.892L50.612,170.757L50.62,170.757L50.62,170.622L50.626,170.622L50.626,170.486L50.637,170.486L50.637,170.351L50.639,170.351L50.639,170.216L50.647,170.216L50.647,170.08L50.648,170.08L50.648,169.945L50.668,169.945L50.668,169.81L50.676,169.81L50.676,169.674L50.68,169.674L50.68,169.539L50.708,169.539L50.708,169.404L50.709,169.404L50.709,169.268L50.709,169.268L50.709,169.133L50.728,169.133L50.728,168.998L50.729,168.998L50.729,168.863L50.75,168.863L50.75,168.727L50.793,168.727L50.793,168.592L50.838,168.592L50.838,168.457L50.85,168.457L50.85,168.321L50.903,168.321L50.903,168.186L50.913,168.186L50.913,168.051L50.924,168.051L50.924,167.915L50.933,167.915L50.933,167.78L50.949,167.78L50.949,167.645L50.964,167.645L50.964,167.51L50.965,167.51L50.965,167.374L50.973,167.374L50.973,167.239L50.977,167.239L50.977,167.104L50.984,167.104L50.984,166.968L51.005,166.968L51.005,166.833L51.043,166.833L51.043,166.698L51.048,166.698L51.048,166.562L51.07,166.562L51.07,166.427L51.075,166.427L51.075,166.292L51.088,166.292L51.088,166.156L51.1,166.156L51.1,166.021L51.105,166.021L51.105,165.886L51.124,165.886L51.124,165.751L51.129,165.751L51.129,165.615L51.139,165.615L51.139,165.48L51.139,165.48L51.139,165.345L51.142,165.345L51.142,165.209L51.158,165.209L51.158,165.074L51.185,165.074L51.185,164.939L51.213,164.939L51.213,164.803L51.239,164.803L51.239,164.668L51.245,164.668L51.245,164.533L51.254,164.533L51.254,164.397L51.262,164.397L51.262,164.262L51.276,164.262L51.276,164.127L51.291,164.127L51.291,163.992L51.303,163.992L51.303,163.856L51.332,163.856L51.332,163.721L51.347,163.721L51.347,163.586L51.383,163.586L51.383,163.45L51.417,163.45L51.417,163.315L51.42,163.315L51.42,163.18L51.428,163.18L51.428,163.044L51.434,163.044L51.434,162.909L51.435,162.909L51.435,162.774L51.46,162.774L51.46,162.638L51.464,162.638L51.464,162.503L51.469,162.503L51.469,162.368L51.476,162.368L51.476,162.233L51.487,162.233L51.487,162.097L51.495,162.097L51.495,161.962L51.518,161.962L51.518,161.827L51.519,161.827L51.519,161.691L51.526,161.691L51.526,161.556L51.536,161.556L51.536,161.421L51.539,161.421L51.539,161.285L51.541,161.285L51.541,161.15L51.584,161.15L51.584,161.015L51.619,161.015L51.619,160.879L51.657,160.879L51.657,160.744L51.659,160.744L51.659,160.609L51.662,160.609L51.662,160.474L51.675,160.474L51.675,160.338L51.692,160.338L51.692,160.203L51.724,160.203L51.724,160.068L51.812,160.068L51.812,159.932L51.816,159.932L51.816,159.797L51.838,159.797L51.838,159.662L51.909,159.662L51.909,159.526L51.933,159.526L51.933,159.391L51.958,159.391L51.958,159.256L52.033,159.256L52.033,159.121L52.045,159.121L52.045,158.985L52.057,158.985L52.057,158.85L52.088,158.85L52.088,158.715L52.093,158.715L52.093,158.579L52.163,158.579L52.163,158.444L52.169,158.444L52.169,158.309L52.182,158.309L52.182,158.173L52.184,158.173L52.184,158.038L52.211,158.038L52.211,157.903L52.227,157.903L52.227,157.767L52.298,157.767L52.298,157.632L52.31,157.632L52.31,157.497L52.349,157.497L52.349,157.362L52.404,157.362L52.404,157.226L52.405,157.226L52.405,157.091L52.43,157.091L52.43,156.956L52.436,156.956L52.436,156.82L52.455,156.82L52.455,156.685L52.456,156.685L52.456,156.55L52.466,156.55L52.466,156.414L52.469,156.414L52.469,156.279L52.47,156.279L52.47,156.144L52.474,156.144L52.474,156.008L52.481,156.008L52.481,155.873L52.53,155.873L52.53,155.738L52.541,155.738L52.541,155.603L52.568,155.603L52.568,155.467L52.6,155.467L52.6,155.332L52.629,155.332L52.629,155.197L52.653,155.197L52.653,155.061L52.662,155.061L52.662,154.926L52.667,154.926L52.667,154.791L52.672,154.791L52.672,154.655L52.702,154.655L52.702,154.52L52.716,154.52L52.716,154.385L52.718,154.385L52.718,154.249L52.736,154.249L52.736,154.114L52.76,154.114L52.76,153.979L52.769,153.979L52.769,153.844L52.774,153.844L52.774,153.708L52.782,153.708L52.782,153.573L52.812,153.573L52.812,153.438L52.819,153.438L52.819,153.302L52.836,153.302L52.836,153.167L52.851,153.167L52.851,153.032L52.855,153.032L52.855,152.896L52.872,152.896L52.872,152.761L52.877,152.761L52.877,152.626L52.882,152.626L52.882,152.49L52.895,152.49L52.895,152.355L52.908,152.355L52.908,152.22L52.908,152.22L52.908,152.085L52.925,152.085L52.925,151.949L52.925,151.949L52.925,151.814L52.931,151.814L52.931,151.679L52.935,151.679L52.935,151.543L52.937,151.543L52.937,151.408L52.946,151.408L52.946,151.273L52.95,151.273L52.95,151.137L52.954,151.137L52.954,151.002L52.955,151.002L52.955,150.867L52.96,150.867L52.96,150.732L52.968,150.732L52.968,150.596L52.97,150.596L52.97,150.461L52.988,150.461L52.988,150.326L52.991,150.326L52.991,150.19L53.003,150.19L53.003,150.055L53.039,150.055L53.039,149.92L53.048,149.92L53.048,149.784L53.132,149.784L53.132,149.649L53.156,149.649L53.156,149.514L53.162,149.514L53.162,149.378L53.177,149.378L53.177,149.243L53.179,149.243L53.179,149.108L53.182,149.108L53.182,148.973L53.183,148.973L53.183,148.837L53.189,148.837L53.189,148.702L53.199,148.702L53.199,148.567L53.242,148.567L53.242,148.431L53.248,148.431L53.248,148.296L53.289,148.296L53.289,148.161L53.336,148.161L53.336,148.025L53.342,148.025L53.342,147.89L53.355,147.89L53.355,147.755L53.413,147.755L53.413,147.619L53.446,147.619L53.446,147.484L53.447,147.484L53.447,147.349L53.449,147.349L53.449,147.214L53.498,147.214L53.498,147.078L53.511,147.078L53.511,146.943L53.533,146.943L53.533,146.808L53.54,146.808L53.54,146.672L53.559,146.672L53.559,146.537L53.572,146.537L53.572,146.402L53.579,146.402L53.579,146.266L53.627,146.266L53.627,146.131L53.637,146.131L53.637,145.996L53.648,145.996L53.648,145.86L53.658,145.86L53.658,145.725L53.678,145.725L53.678,145.59L53.728,145.59L53.728,145.455L53.889,145.455L53.889,145.319L53.896,145.319L53.896,145.184L53.901,145.184L53.901,145.049L53.903,145.049L53.903,144.913L53.909,144.913L53.909,144.778L53.911,144.778L53.911,144.643L53.957,144.643L53.957,144.507L53.971,144.507L53.971,144.372L54.02,144.372L54.02,144.237L54.082,144.237L54.082,144.101L54.13,144.101L54.13,143.966L54.18,143.966L54.18,143.831L54.209,143.831L54.209,143.696L54.216,143.696L54.216,143.56L54.227,143.56L54.227,143.425L54.239,143.425L54.239,143.29L54.254,143.29L54.254,143.154L54.257,143.154L54.257,143.019L54.28,143.019L54.28,142.884L54.285,142.884L54.285,142.748L54.306,142.748L54.306,142.613L54.381,142.613L54.381,142.478L54.399,142.478L54.399,142.342L54.469,142.342L54.469,142.207L54.508,142.207L54.508,142.072L54.525,142.072L54.525,141.937L54.527,141.937L54.527,141.801L54.534,141.801L54.534,141.666L54.569,141.666L54.569,141.531L54.6,141.531L54.6,141.395L54.601,141.395L54.601,141.26L54.611,141.26L54.611,141.125L54.631,141.125L54.631,140.989L54.643,140.989L54.643,140.854L54.645,140.854L54.645,140.719L54.67,140.719L54.67,140.584L54.707,140.584L54.707,140.448L54.739,140.448L54.739,140.313L54.797,140.313L54.797,140.178L54.798,140.178L54.798,140.042L54.804,140.042L54.804,139.907L54.861,139.907L54.861,139.772L54.87,139.772L54.87,139.636L54.873,139.636L54.873,139.501L54.9,139.501L54.9,139.366L54.9,139.366L54.9,139.23L54.902,139.23L54.902,139.095L54.904,139.095L54.904,138.96L54.944,138.96L54.944,138.825L54.957,138.825L54.957,138.689L54.957,138.689L54.957,138.554L55.031,138.554L55.031,138.419L55.04,138.419L55.04,138.283L55.053,138.283L55.053,138.148L55.13,138.148L55.13,138.013L55.159,138.013L55.159,137.877L55.174,137.877L55.174,137.742L55.182,137.742L55.182,137.607L55.208,137.607L55.208,137.471L55.21,137.471L55.21,137.336L55.213,137.336L55.213,137.201L55.213,137.201L55.213,137.066L55.223,137.066L55.223,136.93L55.231,136.93L55.231,136.795L55.243,136.795L55.243,136.66L55.282,136.66L55.282,136.524L55.298,136.524L55.298,136.389L55.311,136.389L55.311,136.254L55.316,136.254L55.316,136.118L55.327,136.118L55.327,135.983L55.363,135.983L55.363,135.848L55.387,135.848L55.387,135.712L55.404,135.712L55.404,135.577L55.417,135.577L55.417,135.442L55.432,135.442L55.432,135.307L55.444,135.307L55.444,135.171L55.485,135.171L55.485,135.036L55.494,135.036L55.494,134.901L55.496,134.901L55.496,134.765L55.539,134.765L55.539,134.63L55.553,134.63L55.553,134.495L55.554,134.495L55.554,134.359L55.592,134.359L55.592,134.224L55.634,134.224L55.634,134.089L55.674,134.089L55.674,133.953L55.68,133.953L55.68,133.818L55.69,133.818L55.69,133.683L55.699,133.683L55.699,133.548L55.721,133.548L55.721,133.412L55.722,133.412L55.722,133.277L55.754,133.277L55.754,133.142L55.778,133.142L55.778,133.006L55.795,133.006L55.795,132.871L55.802,132.871L55.802,132.736L55.812,132.736L55.812,132.6L55.851,132.6L55.851,132.465L55.858,132.465L55.858,132.33L55.864,132.33L55.864,132.195L55.866,132.195L55.866,132.059L55.876,132.059L55.876,131.924L55.896,131.924L55.896,131.789L55.907,131.789L55.907,131.653L55.907,131.653L55.907,131.518L55.92,131.518L55.92,131.383L55.924,131.383L55.924,131.247L55.947,131.247L55.947,131.112L55.992,131.112L55.992,130.977L55.996,130.977L55.996,130.841L56.007,130.841L56.007,130.706L56.012,130.706L56.012,130.571L56.023,130.571L56.023,130.436L56.042,130.436L56.042,130.3L56.043,130.3L56.043,130.165L56.084,130.165L56.084,130.03L56.084,130.03L56.084,129.894L56.086,129.894L56.086,129.759L56.09,129.759L56.09,129.624L56.133,129.624L56.133,129.488L56.152,129.488L56.152,129.353L56.153,129.353L56.153,129.218L56.156,129.218L56.156,129.082L56.162,129.082L56.162,128.947L56.185,128.947L56.185,128.812L56.192,128.812L56.192,128.677L56.215,128.677L56.215,128.541L56.229,128.541L56.229,128.406L56.238,128.406L56.238,128.271L56.248,128.271L56.248,128.135L56.287,128.135L56.287,128L56.316,128L56.316,127.865L56.337,127.865L56.337,127.729L56.355,127.729L56.355,127.594L56.37,127.594L56.37,127.459L56.401,127.459L56.401,127.323L56.404,127.323L56.404,127.188L56.406,127.188L56.406,127.053L56.409,127.053L56.409,126.918L56.419,126.918L56.419,126.782L56.431,126.782L56.431,126.647L56.45,126.647L56.45,126.512L56.453,126.512L56.453,126.376L56.466,126.376L56.466,126.241L56.484,126.241L56.484,126.106L56.488,126.106L56.488,125.97L56.49,125.97L56.49,125.835L56.498,125.835L56.498,125.7L56.504,125.7L56.504,125.564L56.526,125.564L56.526,125.429L56.539,125.429L56.539,125.294L56.551,125.294L56.551,125.159L56.556,125.159L56.556,125.023L56.565,125.023L56.565,124.888L56.572,124.888L56.572,124.753L56.575,124.753L56.575,124.617L56.582,124.617L56.582,124.482L56.638,124.482L56.638,124.347L56.654,124.347L56.654,124.211L56.668,124.211L56.668,124.076L56.677,124.076L56.677,123.941L56.689,123.941L56.689,123.805L56.761,123.805L56.761,123.67L56.773,123.67L56.773,123.535L56.783,123.535L56.783,123.4L56.806,123.4L56.806,123.264L56.854,123.264L56.854,123.129L56.859,123.129L56.859,122.994L56.86,122.994L56.86,122.858L56.898,122.858L56.898,122.723L56.904,122.723L56.904,122.588L56.918,122.588L56.918,122.452L56.922,122.452L56.922,122.317L56.928,122.317L56.928,122.182L56.935,122.182L56.935,122.047L56.964,122.047L56.964,121.911L57.001,121.911L57.001,121.776L57.001,121.776L57.001,121.641L57.018,121.641L57.018,121.505L57.062,121.505L57.062,121.37L57.065,121.37L57.065,121.235L57.169,121.235L57.169,121.099L57.221,121.099L57.221,120.964L57.223,120.964L57.223,120.829L57.225,120.829L57.225,120.693L57.226,120.693L57.226,120.558L57.306,120.558L57.306,120.423L57.326,120.423L57.326,120.288L57.339,120.288L57.339,120.152L57.346,120.152L57.346,120.017L57.363,120.017L57.363,119.882L57.401,119.882L57.401,119.746L57.406,119.746L57.406,119.611L57.423,119.611L57.423,119.476L57.445,119.476L57.445,119.34L57.453,119.34L57.453,119.205L57.461,119.205L57.461,119.07L57.471,119.07L57.471,118.934L57.508,118.934L57.508,118.799L57.547,118.799L57.547,118.664L57.563,118.664L57.563,118.529L57.586,118.529L57.586,118.393L57.607,118.393L57.607,118.258L57.687,118.258L57.687,118.123L57.704,118.123L57.704,117.987L57.743,117.987L57.743,117.852L57.777,117.852L57.777,117.717L57.801,117.717L57.801,117.581L57.818,117.581L57.818,117.446L57.952,117.446L57.952,117.311L57.995,117.311L57.995,117.175L58,117.175L58,117.04L58.009,117.04L58.009,116.905L58.139,116.905L58.139,116.77L58.141,116.77L58.141,116.634L58.152,116.634L58.152,116.499L58.218,116.499L58.218,116.364L58.274,116.364L58.274,116.228L58.348,116.228L58.348,116.093L58.364,116.093L58.364,115.958L58.444,115.958L58.444,115.822L58.631,115.822L58.631,115.687L58.684,115.687L58.684,115.552L58.799,115.552L58.799,115.416L58.818,115.416L58.818,115.281L58.941,115.281L58.941,115.146L59.005,115.146L59.005,115.011L59.255,115.011L59.255,114.875L59.271,114.875L59.271,114.74L59.94,114.74L59.94,114.605L60.073,114.605L60.073,114.469L60.18,114.469L60.18,114.334L60.415,114.334L60.415,114.199L60.463,114.199L60.463,114.063L60.471,114.063L60.471,113.928L60.569,113.928L60.569,113.793L60.659,113.793L60.659,113.658L60.773,113.658L60.773,113.522L60.813,113.522L60.813,113.387L60.936,113.387L60.936,113.252L60.941,113.252L60.941,113.116L61.026,113.116L61.026,112.981L61.063,112.981L61.063,112.846L61.073,112.846L61.073,112.71L61.121,112.71L61.121,112.575L61.147,112.575L61.147,112.44L61.199,112.44L61.199,112.304L61.298,112.304L61.298,112.169L61.309,112.169L61.309,112.034L61.314,112.034L61.314,111.899L61.414,111.899L61.414,111.763L61.423,111.763L61.423,111.628L61.432,111.628L61.432,111.493L61.444,111.493L61.444,111.357L61.515,111.357L61.515,111.222L61.545,111.222L61.545,111.087L61.608,111.087L61.608,110.951L61.622,110.951L61.622,110.816L61.639,110.816L61.639,110.681L61.672,110.681L61.672,110.545L61.677,110.545L61.677,110.41L61.694,110.41L61.694,110.275L61.756,110.275L61.756,110.14L61.756,110.14L61.756,110.004L61.757,110.004L61.757,109.869L61.776,109.869L61.776,109.734L61.891,109.734L61.891,109.598L61.901,109.598L61.901,109.463L61.901,109.463L61.901,109.328L61.934,109.328L61.934,109.192L61.935,109.192L61.935,109.057L61.972,109.057L61.972,108.922L62.008,108.922L62.008,108.786L62.021,108.786L62.021,108.651L62.033,108.651L62.033,108.516L62.06,108.516L62.06,108.381L62.157,108.381L62.157,108.245L62.162,108.245L62.162,108.11L62.164,108.11L62.164,107.975L62.165,107.975L62.165,107.839L62.177,107.839L62.177,107.704L62.184,107.704L62.184,107.569L62.191,107.569L62.191,107.433L62.221,107.433L62.221,107.298L62.236,107.298L62.236,107.163L62.264,107.163L62.264,107.027L62.265,107.027L62.265,106.892L62.293,106.892L62.293,106.757L62.298,106.757L62.298,106.622L62.3,106.622L62.3,106.486L62.352,106.486L62.352,106.351L62.358,106.351L62.358,106.216L62.372,106.216L62.372,106.08L62.378,106.08L62.378,105.945L62.394,105.945L62.394,105.81L62.399,105.81L62.399,105.674L62.407,105.674L62.407,105.539L62.415,105.539L62.415,105.404L62.431,105.404L62.431,105.268L62.435,105.268L62.435,105.133L62.465,105.133L62.465,104.998L62.477,104.998L62.477,104.863L62.508,104.863L62.508,104.727L62.51,104.727L62.51,104.592L62.512,104.592L62.512,104.457L62.531,104.457L62.531,104.321L62.559,104.321L62.559,104.186L62.572,104.186L62.572,104.051L62.581,104.051L62.581,103.915L62.582,103.915L62.582,103.78L62.587,103.78L62.587,103.645L62.618,103.645L62.618,103.51L62.648,103.51L62.648,103.374L62.706,103.374L62.706,103.239L62.721,103.239L62.721,103.104L62.75,103.104L62.75,102.968L62.757,102.968L62.757,102.833L62.767,102.833L62.767,102.698L62.772,102.698L62.772,102.562L62.785,102.562L62.785,102.427L62.789,102.427L62.789,102.292L62.793,102.292L62.793,102.156L62.815,102.156L62.815,102.021L62.819,102.021L62.819,101.886L62.843,101.886L62.843,101.751L62.845,101.751L62.845,101.615L62.856,101.615L62.856,101.48L62.858,101.48L62.858,101.345L62.867,101.345L62.867,101.209L62.886,101.209L62.886,101.074L62.903,101.074L62.903,100.939L62.942,100.939L62.942,100.803L62.944,100.803L62.944,100.668L62.966,100.668L62.966,100.533L62.994,100.533L62.994,100.397L63.016,100.397L63.016,100.262L63.018,100.262L63.018,100.127L63.024,100.127L63.024,99.992L63.101,99.992L63.101,99.856L63.11,99.856L63.11,99.721L63.147,99.721L63.147,99.586L63.149,99.586L63.149,99.45L63.156,99.45L63.156,99.315L63.158,99.315L63.158,99.18L63.203,99.18L63.203,99.044L63.221,99.044L63.221,98.909L63.25,98.909L63.25,98.774L63.284,98.774L63.284,98.638L63.288,98.638L63.288,98.503L63.299,98.503L63.299,98.368L63.307,98.368L63.307,98.233L63.316,98.233L63.316,98.097L63.323,98.097L63.323,97.962L63.326,97.962L63.326,97.827L63.326,97.827L63.326,97.691L63.341,97.691L63.341,97.556L63.357,97.556L63.357,97.421L63.36,97.421L63.36,97.285L63.364,97.285L63.364,97.15L63.384,97.15L63.384,97.015L63.386,97.015L63.386,96.879L63.388,96.879L63.388,96.744L63.393,96.744L63.393,96.609L63.419,96.609L63.419,96.474L63.426,96.474L63.426,96.338L63.428,96.338L63.428,96.203L63.432,96.203L63.432,96.068L63.462,96.068L63.462,95.932L63.47,95.932L63.47,95.797L63.506,95.797L63.506,95.662L63.508,95.662L63.508,95.526L63.579,95.526L63.579,95.391L63.582,95.391L63.582,95.256L63.59,95.256L63.59,95.121L63.611,95.121L63.611,94.985L63.634,94.985L63.634,94.85L63.639,94.85L63.639,94.715L63.695,94.715L63.695,94.579L63.749,94.579L63.749,94.444L63.788,94.444L63.788,94.309L63.794,94.309L63.794,94.173L63.804,94.173L63.804,94.038L63.822,94.038L63.822,93.903L63.866,93.903L63.866,93.767L63.897,93.767L63.897,93.632L63.907,93.632L63.907,93.497L63.925,93.497L63.925,93.362L63.925,93.362L63.925,93.226L63.953,93.226L63.953,93.091L63.99,93.091L63.99,92.956L64.005,92.956L64.005,92.82L64.022,92.82L64.022,92.685L64.038,92.685L64.038,92.55L64.041,92.55L64.041,92.414L64.044,92.414L64.044,92.279L64.116,92.279L64.116,92.144L64.186,92.144L64.186,92.008L64.202,92.008L64.202,91.873L64.217,91.873L64.217,91.738L64.246,91.738L64.246,91.603L64.246,91.603L64.246,91.467L64.266,91.467L64.266,91.332L64.273,91.332L64.273,91.197L64.303,91.197L64.303,91.061L64.32,91.061L64.32,90.926L64.325,90.926L64.325,90.791L64.343,90.791L64.343,90.655L64.392,90.655L64.392,90.52L64.4,90.52L64.4,90.385L64.423,90.385L64.423,90.249L64.425,90.249L64.425,90.114L64.463,90.114L64.463,89.979L64.477,89.979L64.477,89.844L64.479,89.844L64.479,89.708L64.513,89.708L64.513,89.573L64.53,89.573L64.53,89.438L64.556,89.438L64.556,89.302L64.598,89.302L64.598,89.167L64.797,89.167L64.797,89.032L64.805,89.032L64.805,88.896L64.922,88.896L64.922,88.761L64.949,88.761L64.949,88.626L65.048,88.626L65.048,88.49L65.934,88.49L65.934,88.355L65.945,88.355L65.945,88.22L66.054,88.22L66.054,88.085L66.411,88.085L66.411,87.949L66.563,87.949L66.563,87.814L67.277,87.814L67.277,87.679L67.659,87.679L67.659,87.543L69.802,87.543L69.802,87.408L70.986,87.408L70.986,87.273L71.759,87.273L71.759,87.137L72.033,87.137L72.033,87.002L74.105,87.002L74.105,86.867L74.992,86.867L74.992,86.732L76.163,86.732L76.163,86.596L77.591,86.596L77.591,86.461L78.271,86.461L78.271,86.326L78.968,86.326L78.968,86.19L79.129,86.19L79.129,86.055L79.145,86.055L79.145,85.92L79.412,85.92L79.412,85.784L79.533,85.784L79.533,85.649L79.624,85.649L79.624,85.514L79.632,85.514L79.632,85.378L79.642,85.378L79.642,85.243L79.683,85.243L79.683,85.108L79.694,85.108L79.694,84.973L79.827,84.973L79.827,84.837L79.923,84.837L79.923,84.702L80.017,84.702L80.017,84.567L80.024,84.567L80.024,84.431L80.212,84.431L80.212,84.296L80.256,84.296L80.256,84.161L80.35,84.161L80.35,84.025L80.424,84.025L80.424,83.89L80.508,83.89L80.508,83.755L80.523,83.755L80.523,83.619L80.537,83.619L80.537,83.484L80.553,83.484L80.553,83.349L80.572,83.349L80.572,83.214L80.572,83.214L80.572,83.078L80.589,83.078L80.589,82.943L80.603,82.943L80.603,82.808L80.842,82.808L80.842,82.672L80.879,82.672L80.879,82.537L80.925,82.537L80.925,82.402L80.943,82.402L80.943,82.266L80.977,82.266L80.977,82.131L81.026,82.131L81.026,81.996L81.105,81.996L81.105,81.86L81.168,81.86L81.168,81.725L81.17,81.725L81.17,81.59L81.173,81.59L81.173,81.455L81.241,81.455L81.241,81.319L81.252,81.319L81.252,81.184L81.386,81.184L81.386,81.049L81.4,81.049L81.4,80.913L81.419,80.913L81.419,80.778L81.421,80.778L81.421,80.643L81.421,80.643L81.421,80.507L81.425,80.507L81.425,80.372L81.481,80.372L81.481,80.237L81.522,80.237L81.522,80.101L81.539,80.101L81.539,79.966L81.568,79.966L81.568,79.831L81.595,79.831L81.595,79.696L81.612,79.696L81.612,79.56L81.637,79.56L81.637,79.425L81.638,79.425L81.638,79.29L81.656,79.29L81.656,79.154L81.784,79.154L81.784,79.019L81.792,79.019L81.792,78.884L81.798,78.884L81.798,78.748L81.804,78.748L81.804,78.613L81.813,78.613L81.813,78.478L81.827,78.478L81.827,78.342L81.84,78.342L81.84,78.207L81.886,78.207L81.886,78.072L81.887,78.072L81.887,77.937L81.89,77.937L81.89,77.801L81.995,77.801L81.995,77.666L82.086,77.666L82.086,77.531L82.123,77.531L82.123,77.395L82.15,77.395L82.15,77.26L82.169,77.26L82.169,77.125L82.185,77.125L82.185,76.989L82.196,76.989L82.196,76.854L82.201,76.854L82.201,76.719L82.225,76.719L82.225,76.584L82.238,76.584L82.238,76.448L82.285,76.448L82.285,76.313L82.292,76.313L82.292,76.178L82.3,76.178L82.3,76.042L82.387,76.042L82.387,75.907L82.421,75.907L82.421,75.772L82.423,75.772L82.423,75.636L82.432,75.636L82.432,75.501L82.433,75.501L82.433,75.366L82.517,75.366L82.517,75.23L82.53,75.23L82.53,75.095L82.556,75.095L82.556,74.96L82.617,74.96L82.617,74.825L82.695,74.825L82.695,74.689L82.703,74.689L82.703,74.554L82.723,74.554L82.723,74.419L82.737,74.419L82.737,74.283L82.747,74.283L82.747,74.148L82.811,74.148L82.811,74.013L82.814,74.013L82.814,73.877L82.932,73.877L82.932,73.742L82.964,73.742L82.964,73.607L83.095,73.607L83.095,73.471L83.148,73.471L83.148,73.336L83.17,73.336L83.17,73.201L83.376,73.201L83.376,73.066L83.488,73.066L83.488,72.93L83.543,72.93L83.543,72.795L83.598,72.795L83.598,72.66L84.602,72.66L84.602,72.524L85.618,72.524L85.618,72.389L85.77,72.389L85.77,72.254L86.314,72.254L86.314,72.118L86.473,72.118L86.473,71.983L87.336,71.983L87.336,71.848L88.906,71.848L88.906,71.712L88.994,71.712L88.994,71.577L89.292,71.577L89.292,71.442L89.383,71.442L89.383,71.307L89.746,71.307L89.746,71.171L90.009,71.171L90.009,71.036L90.111,71.036L90.111,70.901L90.118,70.901L90.118,70.765L90.163,70.765L90.163,70.63L90.267,70.63L90.267,70.495L90.341,70.495L90.341,70.359L90.42,70.359L90.42,70.224L90.475,70.224L90.475,70.089L90.579,70.089L90.579,69.953L90.588,69.953L90.588,69.818L90.647,69.818L90.647,69.683L90.648,69.683L90.648,69.548L90.649,69.548L90.649,69.412L90.679,69.412L90.679,69.277L90.682,69.277L90.682,69.142L90.823,69.142L90.823,69.006L90.828,69.006L90.828,68.871L90.87,68.871L90.87,68.736L90.966,68.736L90.966,68.6L90.969,68.6L90.969,68.465L90.992,68.465L90.992,68.33L91.047,68.33L91.047,68.195L91.057,68.195L91.057,68.059L91.058,68.059L91.058,67.924L91.065,67.924L91.065,67.789L91.066,67.789L91.066,67.653L91.105,67.653L91.105,67.518L91.113,67.518L91.113,67.383L91.137,67.383L91.137,67.247L91.183,67.247L91.183,67.112L91.247,67.112L91.247,66.977L91.331,66.977L91.331,66.841L91.39,66.841L91.39,66.706L91.434,66.706L91.434,66.571L91.437,66.571L91.437,66.436L91.455,66.436L91.455,66.3L91.455,66.3L91.455,66.165L91.468,66.165L91.468,66.03L91.566,66.03L91.566,65.894L91.575,65.894L91.575,65.759L91.598,65.759L91.598,65.624L91.65,65.624L91.65,65.488L91.655,65.488L91.655,65.353L91.662,65.353L91.662,65.218L91.671,65.218L91.671,65.082L91.795,65.082L91.795,64.947L91.822,64.947L91.822,64.812L91.832,64.812L91.832,64.677L91.866,64.677L91.866,64.541L91.885,64.541L91.885,64.406L91.986,64.406L91.986,64.271L92.012,64.271L92.012,64.135L92.056,64.135L92.056,64L92.06,64L92.06,63.865L92.087,63.865L92.087,63.729L92.091,63.729L92.091,63.594L92.115,63.594L92.115,63.459L92.116,63.459L92.116,63.323L92.132,63.323L92.132,63.188L92.157,63.188L92.157,63.053L92.159,63.053L92.159,62.918L92.161,62.918L92.161,62.782L92.23,62.782L92.23,62.647L92.298,62.647L92.298,62.512L92.312,62.512L92.312,62.376L92.343,62.376L92.343,62.241L92.354,62.241L92.354,62.106L92.384,62.106L92.384,61.97L92.388,61.97L92.388,61.835L92.415,61.835L92.415,61.7L92.462,61.7L92.462,61.564L92.463,61.564L92.463,61.429L92.492,61.429L92.492,61.294L92.492,61.294L92.492,61.159L92.503,61.159L92.503,61.023L92.512,61.023L92.512,60.888L92.518,60.888L92.518,60.753L92.541,60.753L92.541,60.617L92.553,60.617L92.553,60.482L92.558,60.482L92.558,60.347L92.558,60.347L92.558,60.211L92.565,60.211L92.565,60.076L92.568,60.076L92.568,59.941L92.599,59.941L92.599,59.805L92.605,59.805L92.605,59.67L92.625,59.67L92.625,59.535L92.638,59.535L92.638,59.4L92.642,59.4L92.642,59.264L92.649,59.264L92.649,59.129L92.652,59.129L92.652,58.994L92.696,58.994L92.696,58.858L92.705,58.858L92.705,58.723L92.718,58.723L92.718,58.588L92.735,58.588L92.735,58.452L92.748,58.452L92.748,58.317L92.764,58.317L92.764,58.182L92.766,58.182L92.766,58.047L92.782,58.047L92.782,57.911L92.783,57.911L92.783,57.776L92.852,57.776L92.852,57.641L92.856,57.641L92.856,57.505L92.868,57.505L92.868,57.37L92.888,57.37L92.888,57.235L92.93,57.235L92.93,57.099L92.934,57.099L92.934,56.964L93,56.964L93,56.829L93.038,56.829L93.038,56.693L93.044,56.693L93.044,56.558L93.054,56.558L93.054,56.423L93.055,56.423L93.055,56.288L93.073,56.288L93.073,56.152L93.085,56.152L93.085,56.017L93.142,56.017L93.142,55.882L93.172,55.882L93.172,55.746L93.237,55.746L93.237,55.611L93.242,55.611L93.242,55.476L93.296,55.476L93.296,55.34L93.297,55.34L93.297,55.205L93.327,55.205L93.327,55.07L93.329,55.07L93.329,54.934L93.392,54.934L93.392,54.799L93.414,54.799L93.414,54.664L93.472,54.664L93.472,54.529L93.499,54.529L93.499,54.393L93.627,54.393L93.627,54.258L93.672,54.258L93.672,54.123L93.83,54.123L93.83,53.987L93.915,53.987L93.915,53.852L93.997,53.852L93.997,53.717L94.015,53.717L94.015,53.581L94.215,53.581L94.215,53.446L94.256,53.446L94.256,53.311L94.427,53.311L94.427,53.175L94.438,53.175L94.438,53.04L94.63,53.04L94.63,52.905L94.971,52.905L94.971,52.77L94.984,52.77L94.984,52.634L95.017,52.634L95.017,52.499L95.136,52.499L95.136,52.364L95.635,52.364L95.635,52.228L96.083,52.228L96.083,52.093L97.354,52.093L97.354,51.958L97.411,51.958L97.411,51.822L97.422,51.822L97.422,51.687L97.673,51.687L97.673,51.552L97.732,51.552L97.732,51.416L97.814,51.416L97.814,51.281L97.992,51.281L97.992,51.146L98.559,51.146L98.559,51.011L99.068,51.011L99.068,50.875L99.327,50.875L99.327,50.74L99.352,50.74L99.352,50.605L99.787,50.605L99.787,50.469L99.862,50.469L99.862,50.334L100.137,50.334L100.137,50.199L100.214,50.199L100.214,50.063L100.245,50.063L100.245,49.928L100.344,49.928L100.344,49.793L100.379,49.793L100.379,49.658L100.392,49.658L100.392,49.522L100.499,49.522L100.499,49.387L100.511,49.387L100.511,49.252L100.545,49.252L100.545,49.116L100.556,49.116L100.556,48.981L100.589,48.981L100.589,48.846L100.594,48.846L100.594,48.71L100.61,48.71L100.61,48.575L100.622,48.575L100.622,48.44L100.701,48.44L100.701,48.304L100.715,48.304L100.715,48.169L100.725,48.169L100.725,48.034L100.788,48.034L100.788,47.899L100.802,47.899L100.802,47.763L100.806,47.763L100.806,47.628L100.825,47.628L100.825,47.493L100.826,47.493L100.826,47.357L100.855,47.357L100.855,47.222L100.882,47.222L100.882,47.087L100.887,47.087L100.887,46.951L100.936,46.951L100.936,46.816L101.021,46.816L101.021,46.681L101.107,46.681L101.107,46.545L101.127,46.545L101.127,46.41L101.128,46.41L101.128,46.275L101.204,46.275L101.204,46.14L101.27,46.14L101.27,46.004L101.287,46.004L101.287,45.869L101.295,45.869L101.295,45.734L101.297,45.734L101.297,45.598L101.326,45.598L101.326,45.463L101.343,45.463L101.343,45.328L101.359,45.328L101.359,45.192L101.394,45.192L101.394,45.057L101.401,45.057L101.401,44.922L101.427,44.922L101.427,44.786L101.447,44.786L101.447,44.651L101.461,44.651L101.461,44.516L101.509,44.516L101.509,44.381L101.515,44.381L101.515,44.245L101.533,44.245L101.533,44.11L101.597,44.11L101.597,43.975L101.606,43.975L101.606,43.839L101.616,43.839L101.616,43.704L101.659,43.704L101.659,43.569L101.666,43.569L101.666,43.433L101.715,43.433L101.715,43.298L101.792,43.298L101.792,43.163L101.798,43.163L101.798,43.027L101.803,43.027L101.803,42.892L101.868,42.892L101.868,42.757L101.896,42.757L101.896,42.622L101.917,42.622L101.917,42.486L101.919,42.486L101.919,42.351L101.931,42.351L101.931,42.216L101.938,42.216L101.938,42.08L101.939,42.08L101.939,41.945L102.274,41.945L102.274,41.81L102.288,41.81L102.288,41.674L102.373,41.674L102.373,41.539L102.582,41.539L102.582,41.404L102.64,41.404L102.64,41.268L102.648,41.268L102.648,41.133L103,41.133L103,40.998L103.058,40.998L103.058,40.863L103.839,40.863L103.839,40.727L104.219,40.727L104.219,40.592L104.728,40.592L104.728,40.457L105.71,40.457L105.71,40.321L106.852,40.321L106.852,40.186L106.892,40.186L106.892,40.051L107.058,40.051L107.058,39.915L107.074,39.915L107.074,39.78L107.078,39.78L107.078,39.645L107.132,39.645L107.132,39.51L107.151,39.51L107.151,39.374L107.18,39.374L107.18,39.239L107.289,39.239L107.289,39.104L107.303,39.104L107.303,38.968L107.497,38.968L107.497,38.833L107.587,38.833L107.587,38.698L107.588,38.698L107.588,38.562L107.599,38.562L107.599,38.427L107.611,38.427L107.611,38.292L107.645,38.292L107.645,38.156L107.648,38.156L107.648,38.021L107.687,38.021L107.687,37.886L107.806,37.886L107.806,37.751L107.813,37.751L107.813,37.615L107.822,37.615L107.822,37.48L107.85,37.48L107.85,37.345L107.855,37.345L107.855,37.209L107.859,37.209L107.859,37.074L107.864,37.074L107.864,36.939L107.873,36.939L107.873,36.803L107.874,36.803L107.874,36.668L107.883,36.668L107.883,36.533L107.887,36.533L107.887,36.397L107.904,36.397L107.904,36.262L107.932,36.262L107.932,36.127L107.945,36.127L107.945,35.992L107.984,35.992L107.984,35.856L107.993,35.856L107.993,35.721L108.073,35.721L108.073,35.586L108.075,35.586L108.075,35.45L108.086,35.45L108.086,35.315L108.087,35.315L108.087,35.18L108.1,35.18L108.1,35.044L108.163,35.044L108.163,34.909L108.17,34.909L108.17,34.774L108.172,34.774L108.172,34.638L108.186,34.638L108.186,34.503L108.246,34.503L108.246,34.368L108.252,34.368L108.252,34.233L108.286,34.233L108.286,34.097L108.311,34.097L108.311,33.962L108.328,33.962L108.328,33.827L108.33,33.827L108.33,33.691L108.334,33.691L108.334,33.556L108.337,33.556L108.337,33.421L108.365,33.421L108.365,33.285L108.405,33.285L108.405,33.15L108.408,33.15L108.408,33.015L108.426,33.015L108.426,32.879L108.491,32.879L108.491,32.744L108.509,32.744L108.509,32.609L108.51,32.609L108.51,32.474L108.527,32.474L108.527,32.338L108.543,32.338L108.543,32.203L108.56,32.203L108.56,32.068L108.566,32.068L108.566,31.932L108.588,31.932L108.588,31.797L108.591,31.797L108.591,31.662L108.606,31.662L108.606,31.526L108.634,31.526L108.634,31.391L108.667,31.391L108.667,31.256L108.672,31.256L108.672,31.121L108.691,31.121L108.691,30.985L108.698,30.985L108.698,30.85L108.711,30.85L108.711,30.715L108.738,30.715L108.738,30.579L108.794,30.579L108.794,30.444L108.823,30.444L108.823,30.309L108.844,30.309L108.844,30.173L108.845,30.173L108.845,30.038L108.866,30.038L108.866,29.903L108.872,29.903L108.872,29.767L108.914,29.767L108.914,29.632L108.917,29.632L108.917,29.497L108.934,29.497L108.934,29.362L108.934,29.362L108.934,29.226L108.97,29.226L108.97,29.091L108.98,29.091L108.98,28.956L109.009,28.956L109.009,28.82L109.037,28.82L109.037,28.685L109.051,28.685L109.051,28.55L109.073,28.55L109.073,28.414L109.109,28.414L109.109,28.279L109.229,28.279L109.229,28.144L109.284,28.144L109.284,28.008L109.308,28.008L109.308,27.873L109.371,27.873L109.371,27.738L109.473,27.738L109.473,27.603L109.586,27.603L109.586,27.467L109.628,27.467L109.628,27.332L109.687,27.332L109.687,27.197L109.773,27.197L109.773,27.061L109.904,27.061L109.904,26.926L109.925,26.926L109.925,26.791L110.356,26.791L110.356,26.655L110.77,26.655L110.77,26.52L110.985,26.52L110.985,26.385L112.309,26.385L112.309,26.249L114.054,26.249L114.054,26.114L114.293,26.114L114.293,25.979L122.123,25.979L122.123,25.844L122.867,25.844L122.867,25.708L122.904,25.708L122.904,25.573L122.971,25.573L122.971,25.438L122.975,25.438L122.975,25.302L122.981,25.302L122.981,25.167L123.043,25.167L123.043,25.032L123.351,25.032L123.351,24.896L123.389,24.896L123.389,24.761L130.994,24.761L130.994,24.626L131.047,24.626L131.047,24.49L131.316,24.49L131.316,24.355L131.551,24.355L131.551,24.22L131.818,24.22L131.818,24.085L132.445,24.085L132.445,23.949L132.574,23.949L132.574,23.814L134.053,23.814L134.053,23.679L143.885,23.679L143.885,23.543L144.192,23.543L144.192,23.408L144.521,23.408L144.521,23.273L144.853,23.273L144.853,23.137L145.227,23.137L145.227,23.002L145.389,23.002L145.389,22.867L145.472,22.867L145.472,22.732L145.472,22.732L145.472,22.596L145.595,22.596L145.595,22.461L145.659,22.461L145.659,22.326L145.792,22.326L145.792,22.19L145.81,22.19L145.81,22.055L145.941,22.055L145.941,21.92L145.993,21.92L145.993,21.784L146.037,21.784L146.037,21.649L146.094,21.649L146.094,21.514L146.239,21.514L146.239,21.378L146.442,21.378L146.442,21.243L146.606,21.243L146.606,21.108L147.303,21.108L147.303,20.973L147.833,20.973L147.833,20.837L147.936,20.837L147.936,20.702L148.059,20.702L148.059,20.567L148.376,20.567L148.376,20.431L149.026,20.431L149.026,20.296L163.706,20.296L163.706,20.161L163.897,20.161L163.897,20.025L165.154,20.025L165.154,19.89L165.365,19.89L165.365,19.755L166.165,19.755L166.165,19.619L168.613,19.619L168.613,19.484L168.83,19.484L168.83,19.349L168.901,19.349L168.901,19.214L169.262,19.214L169.262,19.078L169.588,19.078L169.588,18.943L178.007,18.943L178.007,18.808L181.449,18.808L181.449,18.672L204.613,18.672L204.613,18.537L204.762,18.537L204.762,18.402L205.11,18.402L205.11,18.266L205.532,18.266L205.532,18.131L205.887,18.131L205.887,17.996L206.376,17.996L206.376,17.86L206.557,17.86L206.557,17.725L206.594,17.725L206.594,17.59L206.626,17.59L206.626,17.455L206.645,17.455L206.645,17.319L208.675,17.319L208.675,17.184L212.238,17.184L212.238,17.049L215.071,17.049L215.071,16.913L216.188,16.913L216.188,16.778L218.986,16.778L218.986,16.643L224.25,16.643L224.25,16.507L224.279,16.507L224.279,16.372L227.981,16.372L227.981,16.237L232.156,16.237L232.156,16.101L241.07,16.101L241.07,15.966L241.892,15.966L241.892,15.831L248.089,15.831L248.089,15.696L248.144,15.696L248.144,15.56L248.181,15.56L248.181,15.425L248.518,15.425L248.518,15.29L248.583,15.29L248.583,15.154L248.681,15.154L248.681,15.019L248.761,15.019L248.761,14.884L248.872,14.884L248.872,14.748L249.155,14.748L249.155,14.613L249.773,14.613L249.773,14.478L261.553,14.478L261.553,14.342L266.39,14.342L266.39,14.207L266.633,14.207L266.633,14.072L266.918,14.072L266.918,13.937L266.934,13.937L266.934,13.801L267.07,13.801L267.07,13.666L267.08,13.666L267.08,13.531L267.284,13.531L267.284,13.395L267.308,13.395L267.308,13.26L267.315,13.26L267.315,13.125L267.342,13.125L267.342,12.989L267.345,12.989L267.345,12.854L267.385,12.854L267.385,12.719L267.426,12.719L267.426,12.584L267.521,12.584L267.521,12.448L267.689,12.448L267.689,12.313L267.775,12.313L267.775,12.178L267.801,12.178L267.801,12.042L267.836,12.042L267.836,11.907L268.097,11.907L268.097,11.772L269.5,11.772L269.5,11.636L334.056,11.636L334.056,11.501L338.077,11.501L338.077,11.366L338.257,11.366L338.257,11.23L338.335,11.23L338.335,11.095L338.578,11.095L338.578,10.96L338.766,10.96L338.766,10.825L338.847,10.825L338.847,10.689L338.856,10.689L338.856,10.554L338.922,10.554L338.922,10.419L339.19,10.419L339.19,10.283L339.228,10.283L339.228,10.148L347.974,10.148L347.974,10.013L351.461,10.013L351.461,9.877L351.585,9.877L351.585,9.742L351.774,9.742L351.774,9.607L351.867,9.607L351.867,9.471L352.009,9.471L352.009,9.336L352.033,9.336L352.033,9.201L352.087,9.201L352.087,9.066L352.169,9.066L352.169,8.93L352.273,8.93L352.273,8.795L352.376,8.795L352.376,8.66L355.933,8.66L355.933,8.524L357.842,8.524L357.842,8.389L358.311,8.389L358.311,8.254L359.246,8.254L359.246,8.118L371.829,8.118L371.829,7.983L372.151,7.983L372.151,7.848L372.179,7.848L372.179,7.712L372.946,7.712L372.946,7.577L373.402,7.577L373.402,7.442L374.677,7.442L374.677,7.307L375.042,7.307L375.042,7.171L375.196,7.171L375.196,7.036L375.258,7.036L375.258,6.901L375.286,6.901L375.286,6.765L375.307,6.765L375.307,6.63L380.149,6.63L380.149,6.495L380.374,6.495L380.374,6.359L380.673,6.359L380.673,6.224L380.726,6.224L380.726,6.089L380.794,6.089L380.794,5.953L485.977,5.953L485.977,5.818L488.06,5.818L488.06,5.683L488.065,5.683L488.065,5.548L488.198,5.548L488.198,5.412L488.229,5.412L488.229,5.277L488.253,5.277L488.253,5.142L488.254,5.142L488.254,5.006L488.291,5.006L488.291,4.871L488.294,4.871L488.294,4.736L488.352,4.736L488.352,4.6L488.494,4.6L488.494,4.465L493.257,4.465L493.257,4.33L495.681,4.33L495.681,4.195L498.096,4.195L498.096,4.059L498.595,4.059L498.595,3.924L500.134,3.924L500.134,3.789L501.563,3.789L501.563,3.653L501.612,3.653L501.612,3.518L501.631,3.518L501.631,3.383L501.686,3.383L501.686,3.247L501.686,3.247L501.686,3.112L501.797,3.112L501.797,2.977L622.357,2.977L622.357,2.841L623.61,2.841L623.61,2.706L623.613,2.706L623.613,2.571L623.641,2.571L623.641,2.436L623.673,2.436L623.673,2.3L623.69,2.3L623.69,2.165L623.698,2.165L623.698,2.03L623.809,2.03L623.809,1.894L623.813,1.894L623.813,1.759L623.814,1.759L623.814,1.624L624.238,1.624L624.238,1.488L630.154,1.488L630.154,1.353L631.397,1.353L631.397,1.218L631.494,1.218L631.494,1.082L631.495,1.082L631.495,0.947L631.532,0.947L631.532,0.812L631.536,0.812L631.536,0.677L631.579,0.677L631.579,0.541L631.607,0.541L631.607,0.406L631.66,0.406L631.66,0.271L631.68,0.271L631.68,0.135L631.735,0.135L631.735,0" stroke="#4c78a8" stroke-width="2"/></g><g class="mark-group role-title"><g transform="translate(320,-22)"><path class="background" aria-hidden="true" d="M0,0h0v0h0Z" pointer-events="none"/><g><g class="mark-text role-title-text" role="graphics-symbol" aria-roledescription="title" aria-label="Title text 'S3 · overhauled · 50±30ms jitter each way — wifi-ish variance'" pointer-events="none"><text text-anchor="middle" transform="translate(0,10)" font-family="sans-serif" font-size="13px" font-weight="bold" fill="#000" opacity="1">S3 · overhauled · 50±30ms jitter each way — wifi-ish variance</text></g></g><path class="foreground" aria-hidden="true" d="" pointer-events="none" display="none"/></g></g></g><path class="foreground" aria-hidden="true" d="" display="none"/></g></g></g></svg>